<svg xmlns="http://www.w3.org/2000/svg" width="98" height="100.73" viewBox="0 0 98 100.73"><g fill="#454545"><path d="M59.036 42.11l-.104-.1c-1.347-1.23-3.121-1.908-4.996-1.908-1.817 0-3.552.642-4.883 1.806l-.053.047-.053-.047c-1.331-1.164-3.064-1.806-4.881-1.806-1.93 0-3.741.713-5.102 2.008-1.39 1.323-2.154 3.087-2.154 4.969s.765 3.646 2.154 4.967l8.881 8.456a1.67 1.67 0 0 0 1.155.449c.438 0 .847-.158 1.151-.447l8.881-8.456c1.391-1.321 2.156-3.087 2.156-4.969.001-1.883-.764-3.647-2.152-4.969zM41.27 44.53a4.036 4.036 0 0 1 2.795-1.101c1.056 0 2.049.391 2.793 1.1l.987.94c.608.577 1.697.577 2.307-.001l.986-.939a4.022 4.022 0 0 1 2.792-1.099c1.057 0 2.05.39 2.797 1.098.721.686 1.119 1.591 1.119 2.55 0 .956-.396 1.86-1.115 2.546L49 56.983l-7.73-7.359c-.719-.688-1.115-1.591-1.115-2.546-.001-.957.396-1.862 1.115-2.548zM98 11.883V8.539H87.036l-.023-.025c-.134-.139-.335-.141-.681-.057-.166.04-.336.082-.521.082h-7.012c-1.068 0-1.672.078-1.672 1.673v.081h-4.944L53.42.641c-1.737-.868-3.836-.853-5.365.038L9.812 22.92a5.633 5.633 0 0 0-2.801 4.843c0 1.659.733 3.228 2.013 4.305 1.01.85 2.3 1.318 3.632 1.318.309 0 .627-.029.972-.088l34.802-6.055 9.907 10.178c.339.337.761.756 1.181.756h17.58l.022.048c.008.017.776 1.705 1.679 1.705H98v-3.344H87.482V11.883H98zM80.472 36.585V11.883h3.667v24.702h-3.667zM48.698 14.914c.899 0 1.725.33 2.324.93l9.009 8.989 2.364-2.372-9.007-9.009a6.579 6.579 0 0 0-4.69-1.947 6.637 6.637 0 0 0-6.629 6.629c0 1.769.689 3.434 1.94 4.688l1.528 1.528L13.056 30a2.318 2.318 0 0 1-1.88-.505 2.314 2.314 0 0 1-.82-1.766c0-.817.438-1.58 1.143-1.991L49.737 3.432a2.388 2.388 0 0 1 2.188-.07l19.117 9.83c.09.045.186.119.283.196.214.168.338.249.462.249h5.339v21.196H60.209L46.374 20.729c-.593-.595-.961-1.537-.961-2.459 0-1.82 1.505-3.356 3.285-3.356zm40.278 53.548c-1.249-1.056-2.972-1.522-4.603-1.243l-34.804 6.053-9.903-9.902a1.66 1.66 0 0 0-1.184-.491H20.873v-.081c0-.921-.75-1.671-1.672-1.671H0v3.344h10.518v24.702H0v3.344h19.201c.922 0 1.672-.75 1.672-1.672v-.081h4.944l18.758 9.38a5.67 5.67 0 0 0 2.524.588 5.663 5.663 0 0 0 2.848-.758l38.24-22.31a5.668 5.668 0 0 0 2.801-4.878 5.644 5.644 0 0 0-2.012-4.324zM49.302 85.666c-.866 0-1.713-.35-2.323-.961l-9.01-9.009-2.363 2.364 9.008 9.008a6.589 6.589 0 0 0 4.688 1.942 6.637 6.637 0 0 0 6.629-6.63 6.585 6.585 0 0 0-1.94-4.688l-1.529-1.53 32.484-5.649a2.292 2.292 0 0 1 1.876.507c.522.438.822 1.081.822 1.764 0 .816-.438 1.578-1.142 1.989l-38.24 22.309a2.329 2.329 0 0 1-2.189.069l-19.11-9.555a1.678 1.678 0 0 0-.749-.178h-5.34V66.223h16.918l13.834 13.835c.611.61.962 1.457.962 2.323a3.29 3.29 0 0 1-3.286 3.285zM17.529 64.47v24.702h-3.667V64.47h3.667zm55.575-8.886c-.18.861-.409 1.721-.679 2.552l-.074.229 3.168 1.075.076-.234c.314-.963.581-1.963.79-2.974l.051-.241-3.283-.641-.049.234zm-.069-10.417l.052.234 3.275-.679-.053-.24a28.896 28.896 0 0 0-.826-2.961l-.079-.232-3.154 1.109.076.227c.281.832.521 1.687.709 2.542zm3.879 3.646l-.016-.245-3.333.245.014.238c.029.503.044 1 .042 1.477 0 .396-.009.785-.027 1.163l-.011.24 3.338.205.012-.246a28.557 28.557 0 0 0-.019-3.077z"/><path d="M70.918 61.752c-.395.772-.843 1.54-1.33 2.281l-.132.2 2.769 1.874.136-.205a28.599 28.599 0 0 0 1.551-2.656l.111-.219-2.995-1.489-.11.214zm-46.496-9.75a24.916 24.916 0 0 1-.016-2.645l.011-.239-3.337-.206-.012.246c-.022.462-.034.923-.034 1.375.002.57.02 1.142.054 1.698l.014.245 3.333-.236-.013-.238zm1.352-17.058l-.136.206a28.562 28.562 0 0 0-1.547 2.654l-.111.219 2.994 1.489.109-.214c.393-.77.841-1.538 1.331-2.282l.132-.2-2.772-1.872zm-.814 20.935l-.052-.234-3.271.688.053.239c.222 1.003.5 1.999.827 2.96l.079.232 3.151-1.112-.076-.228c-.28-.829-.52-1.686-.711-2.545zm-.06-10.412c.179-.86.407-1.719.678-2.551l.074-.229-3.169-1.074-.076.233a28.408 28.408 0 0 0-.788 2.974l-.051.241 3.283.64.049-.234z"/></g><path fill="#FFEF2B" d="M86.461 74.703l-38.239 22.31a2.218 2.218 0 0 1-2.114.066l-19.109-9.556a1.76 1.76 0 0 0-.785-.186h-5.26V66.303h16.804L51.57 80.115c.596.595.938 1.421.938 2.266a3.208 3.208 0 0 1-3.204 3.205 3.235 3.235 0 0 1-2.267-.938l-9.066-9.065-2.479 2.479 9.066 9.065a6.663 6.663 0 0 0 4.745 1.966c3.698 0 6.71-3.012 6.71-6.711a6.665 6.665 0 0 0-1.965-4.745l-1.42-1.419 32.33-5.623a2.194 2.194 0 0 1 1.812.488c.505.424.793 1.045.793 1.702a2.231 2.231 0 0 1-1.102 1.918zM60.244 34.751l-13.81-14.078c-.605-.607-.939-1.548-.939-2.403 0-1.769 1.438-3.275 3.204-3.275.855 0 1.661.3 2.267.907l9.066 9.046 2.479-2.487-9.064-9.066a6.657 6.657 0 0 0-4.747-1.97c-3.698 0-6.71 3.009-6.71 6.709a6.67 6.67 0 0 0 1.965 4.746l1.418 1.418-32.33 5.623a2.214 2.214 0 0 1-1.814-.489 2.228 2.228 0 0 1 .313-3.623l38.24-22.307a2.219 2.219 0 0 1 2.113-.066l19.11 9.826c.243.122.514.456.785.456h5.259v21.035H60.244zm-3.57 14.814L49 56.871l-7.675-7.306c-.7-.668-1.09-1.552-1.09-2.487s.388-1.819 1.09-2.489c.757-.718 1.748-1.078 2.739-1.078s1.983.36 2.737 1.078l.987.939a1.753 1.753 0 0 0 2.417 0l.987-.939c1.509-1.438 3.965-1.436 5.478-.001.706.671 1.093 1.556 1.093 2.491s-.387 1.817-1.089 2.486z"/></svg>