<svg xmlns="http://www.w3.org/2000/svg" width="104" height="104.001" viewBox="0 0 104 104.001"><path d="M102.07 66.022c.003-.009-.001-.02.003-.028A51.918 51.918 0 0 0 104 52c0-4.849-.682-9.538-1.927-13.994-.003-.009.001-.02-.003-.029-.004-.014-.014-.023-.018-.035a52.206 52.206 0 0 0-1.638-4.879v-.59c0-.647-.361-1.187-.874-1.503a51.706 51.706 0 0 0-2.069-4.157c.314.268.705.446 1.149.446.99 0 1.794-.802 1.794-1.794v-1.751a1.794 1.794 0 1 0-3.587 0v1.751c0 .108.043.199.062.301-.128-.217-.261-.428-.392-.644a3.3 3.3 0 0 0-.071-.117c-.124-.202-.242-.409-.37-.609-.018-.029-.048-.043-.066-.07a51.96 51.96 0 0 0-3.825-5.311c-.012-.019-.016-.038-.028-.056a48.91 48.91 0 0 0-1.088-1.278c-.027-.031-.065-.043-.094-.072a52.083 52.083 0 0 0-4.581-4.578c-.027-.027-.038-.063-.067-.088-.42-.367-.846-.729-1.275-1.083-.012-.011-.029-.012-.043-.022a52.356 52.356 0 0 0-5.322-3.833c-.026-.02-.041-.048-.072-.068-.196-.124-.399-.242-.599-.362-.037-.023-.074-.047-.115-.07-.217-.132-.437-.269-.657-.397.113.02.217.064.337.064h1.753a1.792 1.792 0 0 0 0-3.585H78.56c-.99 0-1.793.802-1.793 1.793 0 .453.183.855.459 1.171a51.976 51.976 0 0 0-4.193-2.091c-.315-.514-.857-.874-1.503-.874h-.59a51.57 51.57 0 0 0-4.885-1.641c-.012-.001-.018-.01-.031-.014h-.023C61.543.682 56.851 0 52 0s-9.543.682-14 1.931c-.01.002-.016 0-.023 0-.011.002-.019.011-.03.014a51.551 51.551 0 0 0-4.884 1.641h-.591c-.647 0-1.187.36-1.503.874a51.853 51.853 0 0 0-4.156 2.069c.267-.314.444-.705.444-1.149 0-.992-.803-1.793-1.793-1.793h-1.752a1.793 1.793 0 0 0 0 3.585h1.752c.108 0 .201-.043.304-.061-.212.124-.42.254-.629.38l-.149.09c-.199.122-.4.239-.598.361-.028.018-.043.046-.069.066a52.556 52.556 0 0 0-5.315 3.831c-.015.011-.032.014-.047.025a45.07 45.07 0 0 0-1.278 1.088c-.029.027-.041.061-.066.088a52.438 52.438 0 0 0-4.583 4.583c-.026.029-.062.04-.089.068-.37.42-.732.846-1.089 1.278-.013.016-.015.036-.026.052a52.04 52.04 0 0 0-3.823 5.31c-.02.028-.053.045-.07.075-.129.206-.251.416-.376.624-.015.02-.027.041-.04.062-.138.229-.277.454-.412.684.021-.111.066-.216.066-.335V23.69a1.794 1.794 0 1 0-3.586 0v1.751c0 .992.803 1.793 1.792 1.793a1.78 1.78 0 0 0 1.172-.459 51.997 51.997 0 0 0-2.091 4.194c-.513.316-.873.857-.873 1.503v.59a51.641 51.641 0 0 0-1.64 4.879c-.004.014-.014.023-.018.036-.002.009.002.02-.002.029A51.85 51.85 0 0 0 0 52c0 4.848.682 9.538 1.928 13.994.002.009-.002.02.002.028.004.016.014.029.02.045a51.307 51.307 0 0 0 1.638 4.872v.59c0 .647.36 1.187.873 1.503a51.687 51.687 0 0 0 2.069 4.156 1.764 1.764 0 0 0-1.15-.444c-.989 0-1.792.801-1.792 1.792v1.753a1.792 1.792 0 1 0 3.586 0v-1.753c0-.105-.043-.197-.061-.299.132.226.271.448.406.671.013.021.025.043.04.064.129.212.253.425.384.632.028.047.069.081.102.124a52.047 52.047 0 0 0 3.791 5.26c.013.019.016.038.028.056.357.432.72.859 1.088 1.278.025.028.062.038.089.064a52.23 52.23 0 0 0 4.587 4.585c.026.026.037.063.068.088.419.367.844.729 1.273 1.083.015.013.035.017.049.027a52.542 52.542 0 0 0 5.316 3.828c.027.021.042.049.072.068.197.124.399.241.599.362l.115.069c.219.132.436.27.657.398-.113-.023-.217-.067-.337-.067h-1.751a1.793 1.793 0 1 0 0 3.586h1.751c.99 0 1.794-.803 1.794-1.794 0-.452-.184-.855-.46-1.171a51.997 51.997 0 0 0 4.194 2.091c.316.514.857.874 1.503.874h.591a51.837 51.837 0 0 0 4.884 1.641c.011.001.018.01.03.014s.023.002.036.004c4.454 1.246 9.141 1.928 13.987 1.928s9.534-.682 13.988-1.928l.035-.004c.012-.002.019-.011.031-.014a51.856 51.856 0 0 0 4.885-1.641h.59c.646 0 1.188-.36 1.503-.874a51.012 51.012 0 0 0 4.155-2.069 1.764 1.764 0 0 0-.444 1.149c0 .991.803 1.794 1.793 1.794h1.753a1.793 1.793 0 0 0 0-3.586h-1.753c-.106 0-.2.043-.302.061.211-.124.419-.256.629-.381l.148-.09c.199-.122.4-.238.597-.36.028-.018.043-.046.07-.065a52.46 52.46 0 0 0 5.31-3.823c.016-.013.037-.019.053-.03.433-.355.86-.718 1.279-1.089.029-.025.039-.062.066-.088a53.018 53.018 0 0 0 4.589-4.591c.025-.025.059-.034.082-.061.369-.419.731-.847 1.088-1.278.014-.017.015-.036.027-.052a52.486 52.486 0 0 0 3.792-5.26c.031-.043.072-.077.102-.123.129-.207.251-.416.376-.624.013-.022.027-.043.039-.065.139-.228.279-.453.413-.683-.022.11-.066.214-.066.333v1.752a1.793 1.793 0 1 0 3.587 0v-1.75c0-.991-.804-1.793-1.794-1.793-.454 0-.854.184-1.172.459a51.334 51.334 0 0 0 2.092-4.193c.513-.316.874-.857.874-1.503v-.59a51.768 51.768 0 0 0 1.636-4.872c.005-.016.016-.028.02-.046zm-8.7 11.102a48.777 48.777 0 0 1-16.207 16.222c-.056.034-.113.068-.168.103a48.196 48.196 0 0 1-10.123 4.619l-5-20.004A28.008 28.008 0 0 0 78.064 61.87l20.004 5.002a48.252 48.252 0 0 1-4.646 10.169c-.017.025-.033.054-.052.083zM26.99 93.438l-.135-.081a48.8 48.8 0 0 1-16.219-16.224c-.021-.034-.043-.069-.062-.104a48.218 48.218 0 0 1-4.641-10.157l20.004-5.002A28.004 28.004 0 0 0 42.13 78.064l-5 20.003a48.194 48.194 0 0 1-10.14-4.629zM10.63 26.877a48.798 48.798 0 0 1 16.208-16.222l.169-.103a48.208 48.208 0 0 1 10.121-4.619l5.002 20.004a28.011 28.011 0 0 0-16.194 16.194L5.932 37.13a48.252 48.252 0 0 1 4.646-10.169c.018-.026.033-.055.052-.084zm14.25 18.685c-.491 2.07-.78 4.218-.78 6.438s.289 4.369.78 6.439l-19.92 4.98a48.193 48.193 0 0 1 0-22.837l19.92 4.98zM27.686 52c0-13.408 10.907-24.315 24.314-24.315S76.314 38.593 76.314 52 65.407 76.315 52 76.315 27.686 65.408 27.686 52zm49.325-41.437l.134.081a48.774 48.774 0 0 1 16.202 16.198l.096.158a48.152 48.152 0 0 1 4.623 10.128L78.061 42.13a27.997 27.997 0 0 0-16.192-16.194L66.87 5.932a48.333 48.333 0 0 1 10.141 4.631zM100.415 52c0 3.934-.483 7.755-1.375 11.418l-19.919-4.979c.491-2.07.78-4.219.78-6.439s-.289-4.369-.78-6.439l19.919-4.979A48.192 48.192 0 0 1 100.415 52zM63.418 4.96l-4.979 19.922C56.368 24.388 54.22 24.1 52 24.1s-4.367.289-6.438.78l-4.98-19.922A48.405 48.405 0 0 1 52 3.586c3.935 0 7.756.484 11.418 1.374zM40.582 99.041l4.979-19.922c2.071.491 4.219.78 6.438.78s4.368-.289 6.438-.78l4.979 19.922a48.283 48.283 0 0 1-11.418 1.374c-3.932 0-7.752-.484-11.416-1.374zM7.098 10.111c.523 0 1.045-.229 1.398-.668.285-.355.608-.678.957-.956a1.793 1.793 0 0 0-2.235-2.806A9.74 9.74 0 0 0 5.7 7.194a1.794 1.794 0 0 0 1.398 2.917zm-1.719 8.366c.99 0 1.794-.802 1.794-1.793V14.93a1.793 1.793 0 1 0-3.586 0v1.753c0 .99.803 1.794 1.792 1.794zm9.573-11.305h1.753a1.792 1.792 0 1 0 0-3.585h-1.753a1.792 1.792 0 0 0 0 3.585zm81.876 7.781v1.753a1.794 1.794 0 0 0 3.587 0v-1.753a1.793 1.793 0 1 0-3.587 0zm-1.313-5.501a1.79 1.79 0 0 0 2.522.284 1.794 1.794 0 0 0 .284-2.519 9.691 9.691 0 0 0-1.516-1.521 1.793 1.793 0 0 0-2.245 2.797c.353.286.673.608.955.959zm-8.198-2.28h1.752a1.792 1.792 0 1 0 0-3.585h-1.752a1.793 1.793 0 1 0 0 3.585zm8.19 87.386a6.136 6.136 0 0 1-.957.956 1.795 1.795 0 0 0 1.117 3.196c.394 0 .786-.127 1.118-.391a9.752 9.752 0 0 0 1.52-1.513 1.793 1.793 0 0 0-.275-2.521 1.8 1.8 0 0 0-2.523.273zm-6.459 2.271h-1.753a1.792 1.792 0 0 0 0 3.586h1.753a1.793 1.793 0 0 0 0-3.586zm9.573-11.305c-.99 0-1.793.802-1.793 1.793v1.754a1.793 1.793 0 1 0 3.587 0v-1.754c0-.99-.804-1.793-1.794-1.793zM16.684 96.829h-1.752a1.792 1.792 0 1 0 0 3.586h1.752a1.794 1.794 0 0 0 0-3.586zm-9.511-7.781v-1.754a1.794 1.794 0 0 0-3.586 0v1.754a1.792 1.792 0 1 0 3.586 0zm1.312 5.502a1.793 1.793 0 0 0-2.805 2.234c.446.56.956 1.07 1.516 1.521a1.787 1.787 0 0 0 2.518-.275 1.793 1.793 0 0 0-.275-2.521 6.551 6.551 0 0 1-.954-.959z" fill="#454545"/><path d="M93.37 77.124a48.786 48.786 0 0 1-16.207 16.222l-.169.103a48.165 48.165 0 0 1-10.122 4.619l-5.001-20.004A28.007 28.007 0 0 0 78.064 61.87l20.004 5.002a48.252 48.252 0 0 1-4.646 10.169c-.017.025-.033.054-.052.083zM26.989 93.438l-.134-.081a48.782 48.782 0 0 1-16.219-16.224c-.021-.034-.043-.069-.062-.104a48.272 48.272 0 0 1-4.642-10.157l20.004-5.002A28.006 28.006 0 0 0 42.13 78.064l-5 20.003a48.225 48.225 0 0 1-10.141-4.629zM10.63 26.877a48.795 48.795 0 0 1 16.207-16.222l.169-.103a48.216 48.216 0 0 1 10.122-4.619l5.001 20.004a28.007 28.007 0 0 0-16.193 16.194L5.932 37.13a48.252 48.252 0 0 1 4.646-10.169c.018-.026.033-.055.052-.084zm14.249 18.685c-.491 2.07-.779 4.218-.779 6.438s.288 4.369.779 6.439L4.96 63.419C4.068 59.756 3.586 55.935 3.586 52s.482-7.755 1.374-11.418l19.919 4.98zm52.132-34.999l.134.081a48.774 48.774 0 0 1 16.202 16.198l.096.158a48.152 48.152 0 0 1 4.623 10.128L78.061 42.13a28 28 0 0 0-16.192-16.194L66.87 5.932a48.333 48.333 0 0 1 10.141 4.631zM100.415 52c0 3.934-.483 7.755-1.375 11.418l-19.919-4.979c.491-2.07.78-4.219.78-6.439s-.289-4.369-.78-6.439l19.919-4.979A48.192 48.192 0 0 1 100.415 52zM63.418 4.96l-4.979 19.922C56.368 24.388 54.22 24.1 52 24.1s-4.368.289-6.438.78l-4.98-19.922C44.245 4.07 48.066 3.586 52 3.586s7.755.484 11.418 1.374zM40.582 99.041l4.979-19.922c2.07.491 4.219.78 6.438.78s4.368-.289 6.438-.78l4.979 19.922c-3.663.89-7.484 1.374-11.418 1.374s-7.753-.484-11.416-1.374z" fill="#FFEF2B"/></svg>