<svg xmlns="http://www.w3.org/2000/svg" width="92" height="103.386" viewBox="0 0 92 103.386"><path fill="#FFF" d="M69.505 89.75c-6.277 6.276-14.624 9.734-23.501 9.735h-.003c-8.879 0-17.231-3.512-23.516-9.887-6.271-6.36-9.724-14.785-9.724-23.722V30.978a6.737 6.737 0 0 1 3.187 1.083c8.345 5.446 18.332 7.418 28.122 5.555 7.946-1.514 15.085-5.425 20.572-11.195v5.291c0 8.463 6.389 15.458 14.596 16.427v18.108c.001 8.877-3.456 17.225-9.733 23.503z"/><g fill="#454545"><circle cx="25.814" cy="63.823" r="3.649"/><circle cx="66.186" cy="63.823" r="3.649"/><path d="M25.814 52.119a7.415 7.415 0 0 0-5.277 2.187 1.95 1.95 0 1 0 2.758 2.757c.673-.673 1.567-1.044 2.52-1.044s1.847.371 2.52 1.044c.381.381.879.571 1.379.571a1.948 1.948 0 0 0 1.378-3.328 7.415 7.415 0 0 0-5.278-2.187zm35.095 2.187a1.948 1.948 0 1 0 2.756 2.757 3.567 3.567 0 0 1 5.04 0c.38.381.88.571 1.379.571s.998-.19 1.378-.571a1.948 1.948 0 0 0 0-2.757c-2.908-2.91-7.643-2.91-10.553 0zM49.755 79.315A5.273 5.273 0 0 1 46 80.871a5.273 5.273 0 0 1-3.755-1.556 1.95 1.95 0 0 0-2.756 2.758A9.15 9.15 0 0 0 46 84.77c2.46 0 4.772-.959 6.512-2.697a1.95 1.95 0 1 0-2.757-2.758z"/></g><path fill="#454545" d="M92 61.941c0-5.296-3.828-9.711-8.862-10.633V18.695c0-4.231-2.104-8.154-5.63-10.493a12.568 12.568 0 0 0-11.14-1.386l-12.24-4.154C44.723-.53 34.823-.858 25.499 1.715 13.292 5.083 6.294 12.205 5.213 22.329a14.77 14.77 0 0 0-2.231 4.205l-.95 2.81A3.339 3.339 0 0 0 3.43 33.29a3.336 3.336 0 0 0 4.164-.429 6.76 6.76 0 0 1 1.269-.964V51.31C3.828 52.23 0 56.646 0 61.941c0 5.508 4.141 10.064 9.472 10.726 1.34 7.393 4.856 14.212 10.236 19.67 7.023 7.124 16.36 11.049 26.292 11.049h.003c9.919-.002 19.244-3.865 26.257-10.879 5.479-5.478 9.035-12.366 10.33-19.848C87.891 71.97 92 67.428 92 61.941zm-16.648-50.49c2.471 1.639 3.887 4.279 3.887 7.244v25.512c-6.051-.94-10.696-6.186-10.696-12.496l-.163-21.436c2.381-.628 4.863-.222 6.972 1.176zM6.296 28.903l.38-1.122a10.926 10.926 0 0 1 6.047-6.542 10.93 10.93 0 0 1 8.908.139c5.904 2.75 13.041 1.264 17.355-3.614l.483-.546a1.95 1.95 0 1 0-2.921-2.583l-.483.546c-3.179 3.594-8.438 4.69-12.788 2.664a14.834 14.834 0 0 0-12.09-.189c-.352.151-.694.319-1.031.496 2.266-6.042 7.751-10.296 16.38-12.677 8.568-2.364 17.676-2.06 26.34.881l11.604 3.939.152 10.074A34.268 34.268 0 0 1 43.34 33.786a34.272 34.272 0 0 1-25.262-4.989c-3.663-2.392-8.28-2.29-11.782.106zM3.899 61.941c0-3.134 2.098-5.786 4.963-6.631v10.566c0 .913.032 1.821.097 2.723-2.914-.811-5.06-3.487-5.06-6.658zM69.504 89.75c-6.277 6.276-14.623 9.734-23.501 9.735H46c-8.879 0-17.23-3.512-23.515-9.887-6.271-6.36-9.724-14.785-9.724-23.722V30.978a6.73 6.73 0 0 1 3.186 1.083c8.346 5.446 18.333 7.418 28.122 5.555 7.946-1.514 15.085-5.425 20.572-11.195v5.291c0 8.463 6.389 15.458 14.597 16.427v18.108c0 8.877-3.457 17.225-9.734 23.503zm13.558-21.157c.048-.778.075-1.561.075-2.347V55.311c2.865.845 4.963 3.497 4.963 6.631.001 3.161-2.134 5.832-5.038 6.651z"/><path d="M75.269 11.451c2.471 1.639 3.887 4.279 3.887 7.244v25.512c-6.051-.94-10.696-6.186-10.696-12.496l-.162-21.436c2.38-.628 4.862-.222 6.971 1.176zM6.213 28.903l.379-1.122a10.93 10.93 0 0 1 6.048-6.542 10.93 10.93 0 0 1 8.908.139c5.904 2.75 13.041 1.264 17.355-3.614l.483-.546a1.95 1.95 0 1 0-2.921-2.583l-.482.546c-3.18 3.594-8.438 4.69-12.789 2.664a14.834 14.834 0 0 0-12.09-.189c-.352.151-.694.319-1.031.496 2.266-6.042 7.751-10.296 16.38-12.677 8.568-2.364 17.676-2.06 26.34.881l11.604 3.939.152 10.074a34.265 34.265 0 0 1-21.292 13.417 34.272 34.272 0 0 1-25.262-4.989c-3.663-2.392-8.28-2.29-11.782.106z" fill="#FFEF2B"/></svg>