<svg xmlns="http://www.w3.org/2000/svg" width="127" height="96.558" viewBox="0 0 127 96.558"><path fill="#454545" d="M127 32.666c0-.708-.394-1.344-1.026-1.659L64.33.184a1.969 1.969 0 0 0-1.661 0L1.025 31.006A1.845 1.845 0 0 0 0 32.666c0 .707.393 1.343 1.025 1.659l20.863 10.432v30.068c0 12.187 18.278 21.733 41.611 21.733s41.61-9.547 41.61-21.733V44.756l8.774-4.387v21.472l-.56.191a7.512 7.512 0 0 0-5.093 7.108c0 2.875 1.683 5.536 4.287 6.779l.685.326-5.961 15.733a1.856 1.856 0 0 0 1.733 2.512h13.527c.608 0 1.18-.3 1.527-.801a1.858 1.858 0 0 0 .206-1.711l-5.961-15.733.685-.326c2.604-1.243 4.287-3.904 4.287-6.779a7.511 7.511 0 0 0-5.095-7.108l-.559-.19V38.515l8.38-4.19A1.844 1.844 0 0 0 127 32.666zm-25.6 42.159c0 4.504-3.871 9.021-10.619 12.396-7.254 3.628-16.943 5.627-27.281 5.627s-20.027-1.999-27.283-5.627c-6.748-3.375-10.618-7.893-10.618-12.396V46.612L62.67 65.147c.49.245 1.168.245 1.661 0L101.4 46.612v28.213zm18.416 15.958h-8.153l4.076-10.755 4.077 10.755zm-.28-21.642c0 2.094-1.703 3.797-3.797 3.797s-3.797-1.703-3.797-3.797a3.805 3.805 0 0 1 3.78-3.798h.017c2.095.01 3.797 1.713 3.797 3.798zm-4.183-33.654l-.117-.011-51.569-4.657a1.834 1.834 0 0 0-2.015 1.681c-.045.493.104.974.422 1.355.317.381.765.614 1.258.659l45.713 4.127L63.5 61.413l-.093-.046L6.002 32.666 63.5 3.917l.092.046 57.404 28.702-5.643 2.822z"/><path fill="#FFEF2B" d="M119.816 90.783h-8.153l4.076-10.755zm-.28-21.642c0 2.094-1.703 3.797-3.797 3.797s-3.797-1.703-3.797-3.797a3.805 3.805 0 0 1 3.78-3.798h.017c2.095.01 3.797 1.713 3.797 3.798zm-4.183-33.654l-.117-.011-51.569-4.657a1.834 1.834 0 0 0-2.015 1.681c-.045.493.104.974.422 1.355.317.381.765.614 1.258.659l45.713 4.127L63.5 61.413l-.093-.046L6.002 32.666 63.5 3.917l.092.046 57.404 28.702-5.643 2.822z"/></svg>