<svg xmlns="http://www.w3.org/2000/svg" width="115" height="106.138" viewBox="0 0 115 106.138"><circle fill="#FABD8A" cx="71.562" cy="33.924" r="32.467"/><path fill="#454545" d="M71.573 67.729c18.667 0 33.854-15.186 33.854-33.853C105.427 15.197 90.24 0 71.573 0c-18.68 0-33.877 15.197-33.877 33.877 0 18.666 15.198 33.852 33.877 33.852zm0-64.909c17.126 0 31.058 13.932 31.058 31.057S88.699 64.933 71.573 64.933c-17.124 0-31.056-13.931-31.056-31.056C40.518 16.752 54.449 2.82 71.573 2.82zM.391 84.589c.022.127.03.2.03.273l-.002.001c.016.04.034.094.059.167l.064.171 9.355 19.921h.222l.09.526.131.142c.017.009.04.025.066.044a.949.949 0 0 1 .22.133c.067.027.12.05.176.084l.267.071.081.016.194-.01a.96.96 0 0 1 .14-.027l.149-.078.06.009.317-.115 13.294-8.376c2.223-1.423 5.11-1.821 7.69-1.055l26.099 7.84c1.442.44 2.961.664 4.514.664 2.677 0 5.299-.66 7.585-1.908l40.899-22.213c2.542-1.396 3.563-4.246 2.481-6.929-.852-2.137-2.761-3.464-4.982-3.464-.511 0-1.03.07-1.544.209l-.145.023-31.76 10.621a1.412 1.412 0 0 0-.878 1.781c.229.676 1.096 1.114 1.776.881L108.8 73.404c.297-.082.568-.12.826-.12 1.664 0 2.291 1.551 2.356 1.728.462 1.098.27 2.585-1.216 3.399L69.89 100.554c-2.979 1.627-6.742 2.017-9.974 1.029l-26.093-7.838a12.325 12.325 0 0 0-9.934 1.318l-.739.454-7.006-16.53 12.259-6.042c1.871-.592 5.532-1.55 9.622-1.55 2.968 0 5.594.511 7.805 1.517.018 0 .102.038.184.079l19.346 7.002c1.575.766 1.873 2.236 1.66 3.267-.346 1.39-1.296 2.239-2.611 2.345a122.78 122.78 0 0 1-2.199-.135c-1.918-.125-4.8-.312-7.475-.48l-.305-.02c-7.359-.463-7.961-.5-8.055-.5a1.375 1.375 0 0 0-.971.434c-.261.273-.4.632-.393 1.01a1.4 1.4 0 0 0 1.349 1.354l.089.006c.678.044 4.452.29 8.117.516 8.839.567 9.692.614 9.854.614 2.671-.124 4.83-1.986 5.356-4.634.522-2.657-.783-5.2-3.251-6.33a2.734 2.734 0 0 1-.194-.084l-19.357-6.997c-2.611-1.169-5.623-1.757-8.979-1.757-5.775 0-10.497 1.714-10.544 1.731-.075.022-.102.029-.118.035L1.018 83.365c-.014.009-.026.017-.038.023l-.187.167c-.062.063-.112.14-.185.217l-.161.318c-.015.064-.025.107-.04.151l-.034.156-.373.04.374.049.017.103zm13.233-4.318l7.113 16.795-8.897 5.619-8.225-17.506 10.009-4.908z"/><path fill="#454545" d="M80.773 41.621c0-5.079-4.133-9.21-9.212-9.21a6.192 6.192 0 0 1-6.184-6.185 6.191 6.191 0 0 1 6.184-6.185 6.191 6.191 0 0 1 6.186 6.185 1.514 1.514 0 0 0 3.027 0c0-4.172-2.843-7.825-6.91-8.881l-.788-.205v-1.178c0-.834-.679-1.514-1.514-1.514s-1.514.68-1.514 1.514v1.178l-.787.205c-4.069 1.057-6.91 4.709-6.91 8.881 0 5.079 4.132 9.211 9.211 9.211a6.191 6.191 0 0 1 6.186 6.184 6.19 6.19 0 0 1-6.186 6.185 6.192 6.192 0 0 1-6.184-6.185 1.514 1.514 0 0 0-3.028 0c0 4.172 2.841 7.824 6.91 8.881l.787.206v1.178c0 .835.679 1.514 1.514 1.514s1.514-.679 1.514-1.514v-1.178l.787-.205c4.069-1.056 6.911-4.708 6.911-8.882z"/></svg>