<svg xmlns="http://www.w3.org/2000/svg" width="103" height="103" viewBox="0 0 103 103"><path fill="#FABD8A" d="M79.143 100.209c-11.615 0-21.064-9.449-21.064-21.064s9.449-21.066 21.064-21.066 21.066 9.451 21.066 21.066-9.451 21.064-21.066 21.064z"/><g fill="#454545"><path d="M77.038 13.82c5.836 1.65 10.488 6.302 12.143 12.139.203.722 1 1.174 1.719.961a1.397 1.397 0 0 0 .965-1.723c-1.914-6.76-7.305-12.148-14.068-14.062a1.396 1.396 0 0 0-.759 2.685zM39.406 89.178h11.23a1.396 1.396 0 0 0 0-2.79h-11.23c-.77 0-1.396.625-1.396 1.395s.627 1.395 1.396 1.395z"/><path d="M44.153 19.166c.132.349.392.625.731.778a1.401 1.401 0 0 0 1.846-.696C51.254 9.25 61.264 2.791 72.233 2.791c15.426 0 27.977 12.55 27.977 27.977 0 7.838-2.812 16.922-7 22.604a1.393 1.393 0 0 0 .297 1.953c.596.441 1.506.303 1.949-.297C99.969 48.903 103 39.154 103 30.768 103 13.802 89.198 0 72.233 0 60.17 0 49.162 7.104 44.188 18.099a1.386 1.386 0 0 0-.035 1.067zm5.618 60.311H39.406c-.77 0-1.396.627-1.396 1.395 0 .77.626 1.396 1.396 1.396h10.365a1.396 1.396 0 0 0 0-2.791zm29.372-24.188c-13.154 0-23.855 10.701-23.855 23.855S65.989 103 79.143 103C92.299 103 103 92.299 103 79.145S92.299 55.289 79.143 55.289zm0 44.92c-11.615 0-21.064-9.449-21.064-21.064s9.449-21.066 21.064-21.066c11.617 0 21.066 9.451 21.066 21.066s-9.449 21.064-21.066 21.064z"/><path d="M80.788 67.617l-.248-.064v-.502c0-.77-.627-1.396-1.396-1.396s-1.395.627-1.395 1.396v.502l-.25.064c-2.904.754-4.934 3.363-4.934 6.344a6.586 6.586 0 0 0 6.578 6.578 3.792 3.792 0 0 1 3.789 3.787 3.792 3.792 0 0 1-3.789 3.789 3.792 3.792 0 0 1-3.787-3.789c0-.768-.627-1.395-1.396-1.395-.768 0-1.395.627-1.395 1.395 0 2.982 2.029 5.59 4.934 6.346l.25.064v.502a1.396 1.396 0 0 0 2.791 0v-.502l.248-.064c2.904-.754 4.934-3.363 4.934-6.346a6.583 6.583 0 0 0-6.578-6.576 3.792 3.792 0 0 1-3.787-3.789 3.791 3.791 0 0 1 3.787-3.787 3.792 3.792 0 0 1 3.789 3.787 1.396 1.396 0 0 0 2.79 0c-.002-2.981-2.031-5.59-4.935-6.344zm-20.649 32.592H39.406c-.77 0-1.396.627-1.396 1.396S38.637 103 39.406 103h20.733c.768 0 1.395-.625 1.395-1.395s-.627-1.396-1.395-1.396zM25.583 79.477H1.395c-.769 0-1.395.627-1.395 1.394 0 .77.626 1.396 1.395 1.396h24.188c.771 0 1.396-.627 1.396-1.396 0-.767-.625-1.394-1.396-1.394zm13.823 16.611h14.227c.768 0 1.395-.625 1.395-1.395s-.627-1.395-1.395-1.395H39.406c-.77 0-1.396.625-1.396 1.395s.627 1.395 1.396 1.395zM33.89 80.871a1.389 1.389 0 0 0-1.395-1.394c-.77 0-1.396.627-1.396 1.395v20.734a1.396 1.396 0 0 0 2.792 0V80.871zm-11.054-5.916c.533.527 1.453.52 1.972-.004a1.398 1.398 0 0 0-.003-1.975C11.021 59.27 2.791 43.489 2.791 30.768c0-15.426 12.55-27.977 27.976-27.977A27.894 27.894 0 0 1 45.58 7.03c.636.398 1.529.188 1.922-.443a1.393 1.393 0 0 0-.442-1.924A30.7 30.7 0 0 0 30.767 0C13.802 0 0 13.802 0 30.768c0 13.449 8.536 29.968 22.836 44.187zm2.747 25.254H1.395c-.769 0-1.395.627-1.395 1.396S.626 103 1.395 103h24.188a1.396 1.396 0 1 0 0-2.791zm0-13.82H1.395c-.769 0-1.395.625-1.395 1.394s.626 1.395 1.395 1.395h24.188a1.395 1.395 0 0 0 0-2.789zm0 6.91H1.395c-.769 0-1.395.625-1.395 1.394s.626 1.395 1.395 1.395h24.188a1.395 1.395 0 0 0 0-2.789z"/></g></svg>