<svg xmlns="http://www.w3.org/2000/svg" width="27" height="30.857" viewBox="0 0 27 30.857"><path fill="#E2574C" d="M1.929 0h16.386L27 8.652v20.277a1.93 1.93 0 0 1-1.929 1.929H1.929A1.93 1.93 0 0 1 0 28.929v-27C0 .863.864 0 1.929 0z"/><path fill="#B53629" d="M26.972 8.679H20.25a1.93 1.93 0 0 1-1.929-1.929V.02l8.651 8.659z"/><path fill="#FFF" d="M19.766 14.622c.323 0 .481-.282.481-.554 0-.283-.165-.556-.481-.556h-1.84c-.359 0-.56.298-.56.627v4.521c0 .403.229.626.54.626.309 0 .538-.223.538-.626v-1.241h1.113c.346 0 .518-.282.518-.562 0-.275-.172-.549-.518-.549h-1.113v-1.686h1.322zm-6.219-1.11h-1.346c-.365 0-.625.251-.625.623v4.529c0 .462.373.606.641.606h1.412c1.672 0 2.776-1.101 2.776-2.799-.001-1.794-1.04-2.959-2.858-2.959zm.065 4.641h-.821v-3.525h.74c1.119 0 1.606.751 1.606 1.788.001.97-.478 1.737-1.525 1.737zm-4.931-4.641H7.347c-.377 0-.587.249-.587.627v4.521c0 .403.241.626.565.626.323 0 .564-.223.564-.626v-1.32h.836c1.032 0 1.884-.731 1.884-1.906 0-1.151-.822-1.922-1.928-1.922zm-.023 2.767H7.89v-1.706h.769c.475 0 .776.37.776.854-.001.482-.302.852-.777.852z"/></svg>