<svg xmlns="http://www.w3.org/2000/svg" width="107" height="107.002" viewBox="0 0 107 107.002"><path fill="#FABD8A" d="M53.501 58.726s-16.711-9.872-20.819-16.81c-2.968-5.011-4.199-7.366-6.271-10.646-2.072-3.281-3.108-6.907-3.108-6.907V14.002l1.533-2.59 2.438-3.108 2.59-2.936 1.899-1.209 3.627-1.382h1.381l3.799-1.554 2.591.863 2.59.518S47.392 2 49.766 3.64c2.494 1.723 1.8 3.929 2.029 3.972.754.139 2.404-1.899 2.404-1.899l6.464-1.887 1.666-2.603h3.28l4.317 1.209 3.911 2.416 4.55 1.21 2.036 5.226 1.744 3.236.263 2.82v4.182l-.263 1.616.263 4.104-5.246 7.803-3.113 6.241-7.943 8.979-7.599 5.353-5.028 3.108z"/><g fill="#454545"><path d="M0 66.065c0 6.551 3.943 9.939 3.983 9.971l14.391 14.387c.546.547 1.497.549 2.051 0a1.453 1.453 0 0 0-.001-2.049L5.964 73.921C5.858 73.83 2.9 71.219 2.9 66.065V39.143a3.94 3.94 0 0 1 3.935-3.936 3.94 3.94 0 0 1 3.936 3.936v14.208a1.45 1.45 0 0 0 2.899 0V39.143a6.841 6.841 0 0 0-6.835-6.834A6.84 6.84 0 0 0 0 39.143v26.922zm42.387 32.309c0-.801-.65-1.45-1.449-1.45H12.22c-.8 0-1.45.649-1.45 1.45v7.178c0 .801.65 1.451 1.45 1.451.799 0 1.449-.65 1.449-1.451v-5.729h25.818v5.729c0 .801.65 1.451 1.45 1.451.799 0 1.449-.65 1.449-1.451v-7.178z"/><path d="M38.797 82.219c0-6.429-3.95-9.943-3.99-9.977L22.218 59.655c-1.288-1.29-2.943-2.039-4.662-2.109a6.38 6.38 0 0 0-4.784 1.893c-1.293 1.293-1.966 2.991-1.893 4.782.07 1.72.819 3.376 2.11 4.665l8.975 8.973c.546.549 1.501.549 2.05 0a1.452 1.452 0 0 0 0-2.049l-8.977-8.977c-.773-.77-1.221-1.74-1.263-2.73-.039-.985.323-1.889 1.047-2.613.686-.688 1.542-1.051 2.478-1.051l.138.003c.989.042 1.959.491 2.732 1.265L32.815 74.35c.111.098 3.082 2.781 3.082 7.871v8.975a1.45 1.45 0 0 0 2.899 0v-8.977zm55.214-13.332c1.363-1.361 2.115-3.111 2.118-4.926 0-1.691-.675-3.299-1.9-4.523-1.224-1.224-2.832-1.898-4.53-1.898a5.34 5.34 0 0 0-.253.006c-1.717.07-3.372.819-4.663 2.109l-12.47 12.477c-.183.162-4.106 3.696-4.106 10.088v8.975a1.45 1.45 0 0 0 2.898 0V82.22c0-4.83 2.646-7.479 3.178-7.962l12.549-12.552c.775-.774 1.746-1.223 2.734-1.265l.13-.003c.952 0 1.787.354 2.483 1.049.688.689 1.051 1.545 1.051 2.475 0 1.037-.45 2.059-1.269 2.873l-8.974 8.975a1.452 1.452 0 0 0 0 2.049c.548.549 1.502.549 2.05 0l8.974-8.972zm-41.204-8.728a1.47 1.47 0 0 0 1.392-.002C74.504 49.08 85.462 30.889 85.462 19.398 85.462 8.702 76.761 0 66.066 0c-7.514 0-14.419 4.401-17.594 11.213a1.442 1.442 0 0 0-.048 1.109c.132.364.398.654.749.817.711.333 1.599-.001 1.927-.701C53.8 6.644 59.675 2.9 66.066 2.9c9.096 0 16.496 7.401 16.496 16.499 0 5.415-2.798 12.363-7.676 19.065C71.111 43.65 64.365 51.1 53.671 57.133l-.17.096-.17-.096C42.636 51.1 35.89 43.65 32.114 38.463c-4.878-6.702-7.677-13.65-7.677-19.065 0-9.098 7.402-16.499 16.5-16.499 2.299 0 4.521.463 6.605 1.375.719.314 1.598-.036 1.908-.746.156-.355.164-.749.023-1.109a1.442 1.442 0 0 0-.77-.8A19.248 19.248 0 0 0 40.938 0C30.241 0 21.539 8.702 21.539 19.398c0 11.492 10.958 29.682 31.268 40.761z"/><path d="M107 66.065V39.143c0-3.769-3.065-6.835-6.834-6.835s-6.834 3.066-6.834 6.834V53.35c0 .799.65 1.449 1.449 1.449s1.449-.65 1.449-1.449V39.142a3.94 3.94 0 0 1 3.936-3.935 3.94 3.94 0 0 1 3.935 3.935v26.923c0 4.875-2.647 7.488-3.179 7.963L86.577 88.374a1.452 1.452 0 0 0 0 2.049c.548.549 1.504.547 2.049.001l14.249-14.257c.188-.161 4.125-3.557 4.125-10.102zM96.23 98.374a1.447 1.447 0 0 0-1.449-1.45H66.066a1.45 1.45 0 0 0-1.45 1.45v7.178a1.45 1.45 0 0 0 2.898 0v-5.729h25.817v5.729c0 .801.65 1.451 1.449 1.451s1.449-.65 1.449-1.451v-7.178z"/></g></svg>