<svg xmlns="http://www.w3.org/2000/svg" width="145" height="81.178" viewBox="0 0 145 81.178"><path fill="none" d="M51.843 51.666h-1.606"/><path opacity=".75" d="M10.53 56.205v12.477H6.765V56.205H0v-2.279h17.295v2.279H10.53zm19.051 9.099c1.021.788 2.404 1.183 4.148 1.183 1.744 0 3.127-.395 4.148-1.183s1.532-1.858 1.532-3.209v-8.169h3.765V62.2c0 2.126-.883 3.762-2.648 4.908-1.766 1.147-4.032 1.721-6.797 1.721-2.766 0-5.031-.573-6.797-1.721-1.766-1.146-2.648-2.782-2.648-4.908v-8.274h3.765v8.169c0 1.35.511 2.421 1.532 3.209zm22.688 3.378V53.926h3.766v12.391h10.179v2.365H52.269zM80.27 55.867c-1.096 0-1.994.148-2.696.443-.702.296-1.054.742-1.054 1.341s.352 1.056 1.054 1.372 2.196.658 4.483 1.023c2.287.366 4.01.88 5.17 1.541 1.158.662 1.738 1.637 1.738 2.924 0 1.288-.733 2.333-2.201 3.135-1.469.803-3.395 1.203-5.775 1.203-3.49 0-6.586-.795-9.287-2.385l2.361-1.879c2.255 1.295 4.596 1.942 7.021 1.942 1.213 0 2.175-.173 2.888-.518s1.069-.802 1.069-1.372-.335-1.014-1.005-1.33-1.824-.605-3.463-.865c-1.638-.261-2.883-.5-3.732-.718a10.151 10.151 0 0 1-2.267-.855c-1.319-.661-1.978-1.675-1.978-3.04 0-1.364.75-2.416 2.25-3.155s3.355-1.108 5.568-1.108c1.425 0 2.84.155 4.244.465s2.616.746 3.638 1.309l-2.01 1.879c-.66-.395-1.554-.718-2.682-.972a15.187 15.187 0 0 0-3.334-.38zm21.556 9.437c1.021.788 2.403 1.183 4.147 1.183s3.128-.395 4.148-1.183c1.021-.788 1.532-1.858 1.532-3.209v-8.169h3.765V62.2c0 2.126-.883 3.762-2.648 4.908-1.766 1.147-4.031 1.721-6.797 1.721s-5.031-.573-6.797-1.721c-1.766-1.146-2.648-2.782-2.648-4.908v-8.274h3.766v8.169c-.001 1.35.51 2.421 1.532 3.209zm39.409-11.378H145v14.756h-4.086L128.28 57.915v10.767h-3.766V53.926h3.766l12.955 11.02v-11.02z" fill="#000100"/><path d="M15.721 75.594v.355h-3.645v2.095h3.287v.355h-3.287v2.707h-.645v-5.513h4.29zm10.016-.072c1.232 0 2.277.274 3.134.823.857.549 1.286 1.217 1.286 2.006 0 .787-.428 1.455-1.286 2.003-.857.549-1.902.823-3.134.823-1.229 0-2.27-.274-3.123-.823-.853-.548-1.28-1.216-1.28-2.003 0-.789.427-1.457 1.28-2.006s1.894-.823 3.123-.823zm.024 5.261c1.038 0 1.914-.235 2.628-.705.714-.469 1.071-1.045 1.071-1.727 0-.684-.357-1.26-1.071-1.73-.714-.469-1.59-.704-2.628-.704-1.042 0-1.924.235-2.646.704-.722.471-1.082 1.047-1.082 1.73 0 .682.36 1.258 1.082 1.727.722.47 1.604.705 2.646.705zm17.008-5.189h.645v3.007c0 .823-.325 1.459-.973 1.906s-1.487.671-2.518.671c-1.025 0-1.862-.221-2.511-.663s-.972-1.047-.972-1.815v-3.105h.65v3.09c0 .657.263 1.172.79 1.543s1.208.557 2.043.557c.843 0 1.528-.188 2.056-.562.527-.375.79-.907.79-1.597v-3.032zm14.771 0v5.513h-.53l-6.335-4.818v4.818h-.645v-5.513h.546l6.32 4.818v-4.818h.644zm6.807 0h2.917c1.475 0 2.602.256 3.379.77.778.513 1.167 1.176 1.167 1.988 0 .798-.385 1.456-1.154 1.976s-1.862.779-3.278.779h-3.03v-5.513zm.644.355v4.802h2.35c1.078 0 1.976-.219 2.693-.657.718-.438 1.077-1.019 1.077-1.742 0-.707-.354-1.285-1.062-1.732-.708-.447-1.625-.67-2.75-.67h-2.308zm16.573-.394l3.853 5.552h-.676L83.422 79.2h-4.075l-1.313 1.906h-.676l3.852-5.552h.354zm1.612 3.291l-1.795-2.597-1.789 2.597h3.584zm14.117-3.252v.355h-3.125v5.157h-.65v-5.157h-3.125v-.355h6.9zm6.54 0v5.513h-.644v-5.513h.644zm10.851-.072c1.234 0 2.279.274 3.135.823.857.549 1.285 1.217 1.285 2.006 0 .787-.428 1.455-1.285 2.003-.855.549-1.9.823-3.135.823-1.229 0-2.27-.274-3.122-.823-.853-.548-1.279-1.216-1.279-2.003 0-.789.427-1.457 1.279-2.006s1.894-.823 3.122-.823zm.025 5.261c1.037 0 1.914-.235 2.627-.705.713-.469 1.07-1.045 1.07-1.727 0-.684-.357-1.26-1.07-1.73-.713-.469-1.59-.704-2.627-.704-1.043 0-1.924.235-2.646.704-.721.471-1.082 1.047-1.082 1.73 0 .682.361 1.258 1.082 1.727.723.47 1.604.705 2.646.705zm18.362-5.189v5.513h-.531l-6.334-4.818v4.818h-.645v-5.513h.545l6.32 4.818v-4.818h.645z" fill="#000100"/><path fill="#FFF" d="M51.843 49.293C34.973 37.46 29.957 15.414 40.628 0"/><path fill="#FFEF2B" d="M51.843 49.293c0-36.463 6.025-29.263 24.86-29.263"/><path fill="#006034" d="M51.843 49.293C34.973 37.46 29.957 15.414 40.628 0" opacity=".7"/><path fill="#FFF" d="M40.628 0c19.906 13.972 25.128 29.21 11.215 49.293"/><path fill="#F58529" d="M40.628 0c19.906 13.972 25.128 29.21 11.215 49.293" opacity=".55"/><path fill="#5CC8E2" d="M51.843 49.293s32.402-3.882 24.86-29.263"/></svg>