<svg xmlns="http://www.w3.org/2000/svg" width="612.478" height="407.476" viewBox="-0.253 0.078 612.478 407.476"><g fill="#CCC" stroke="#FFF" stroke-width=".5"><path d="M386.26 387.29l4.439.97.33 1.49-2.069.68.96 1.56 2.42-.95 1.689 1.01-1.109 3.93 3.14 1.96 2.95 6.49-1.59 2.03-4.83.82-1.061-1.64-1.89-.21-1.15-2.9-4.34-.44-3.689-3.99 1.869-.97 5.301-.46-2.681-.88 1.221-1.98.09-6.52z"/><path d="M490.96 359.66l-1.21 1.9-4.4-.33-.22 1.07 1.229.81-2.71 1.65.7.94-1.21 2.56 1.79 5.63-2.811 1.88-3.85.31-1.26 1.18-6.67-1.1-6.561 2.15-2.22-3.32-2.84-1.87-3.58-1.11-2.89.61-3.82 3.15.07 1.22 1.22.61-2.26 1.16.88 1.91-4.19-.78-.77 2.25-2.62 1.02-1.01 3.47-1.61 1.47-1.72-1.75-2.181-.51-2.41 1.14-5.59.21-4.08 1.8-5.146 3.01-3.67 6.05-.061 1.64-1.399-.23-1.9 2.25-2.79.58-1.36 3.09-5.319 1.65-3.09-.57 1.59-2.03-2.95-6.49-3.14-1.96 1.109-3.93-1.689-1.01-2.42.95-.96-1.56 2.069-.68-.33-1.49-4.439-.97.149-1.41 1.78-1.36-.07-6.14-1.39-4.21-3.82-4.35-2.14-1.02-4.33 2.36-11.93-10.25-5.061-.18-3.6 2.45-5.311-1.56.671-1.34-1.16-1.04 3.66-4.09 6.84-3.91 1.21.42.64-1.09-.75-.62 2.99-2.48 7.7-3.74 1.399-2.62 2 1.06 3.75-1.62 2.49-2.42.8.51 1.24-1.47 2 .92 2.39-2.66 2.341 2.34-.101-3.15 2.72-1.03-.489-1.09-4.351.21-.09-5.17.95-1.47-.92-2.52.7-.25-.73-4.24.99-.17 5.06 5.33 1.261-1.43-.801-1.3 1.261.11.71 1.66-1.46 1.74 4.25 2.36 1.8-.31-2.26-.95.409-.59 2.591-.38 2.039 1.34.36 1.42 3.19 2.15-1.511 1.57-1.357-.61 1.66 2.09 2.34-.76-1.12-3.36-.75.44-2.04-1.7.25-.97 3.52 1.08.86 2.56.99-2.75.38 2.3 1.36.74.47-1.34-.74-.56 1.39-.5 1.801 3.26 2.71 2.2-.08 2.51 1.689-2.4 1.641.31-.94-3.48 2.83 1.83-.37 3.07-2.51 1.19-1.44 2.76-1.689.1.43.97 2.47-.52 3.761-3.59 3.229-1.37.16 1.56-.82-.67-2.04 1.1-.54 2.71 3.2-1.12 1.03 1.45-3.75 3.49.76.71 6.19-2.18-1.91 1.55.47 1.2 1.37-.9.68 2.05 2.381-.8-.181 1.02 2.181 1.22 2.039 3.93.801 3.53-2.771 2.26 2.021 3.84 8.91 3.63-.641 1.41.771 1.13.649-1.2 2.86-.24.12-1.73-1.57-.19-3.77-4.25-10.141-14.07-2.17-5.04.561-.29 3.75 7.3 7.989 11.06 3.4 3.7 3.85 2.37 6.79-2.41 1.32-1.84-.34-.98 3.41-3.9.79.35-.92.87.75 1.35 3.609 2.41 2.76-.95.99-2.83 6.78-1.56 4.28 1.66 2.199-.44 2.61 1.58 1.41-.72 1.611 2.42zM337.77 116.17l2 3.28 4.16 1.21.189 1.28-1.76.42.16 1.53 1.86 2.32.699-1.01.601.48 1.06 3.55 1.58 1.03-.39 2.96.689.8-2.06.72 2.57 4.08 1.79-.47.439 1.63 1.34.19.62 3.58 4.54 2.24-.38 2.88 1.98 1.43-.21 2.69-2.48 1.37-.81 3.19 2.939 4.4-6.76-1.43-1.08-1.35-1.42 4.1 4.88 3.9 3.58-.21 1.54 1.33 3.16-.78-3.32 4.38 4.521 2.23-.011 1.13-2.6 1.13.5 3.24 1.439.62-.909.93-3.74.8-1.96-.97.09 1.36-3.26.38-1.44-.83.28 1.37-.89.04-1.62-4.89-1.03-.91-.7 1.17-1.399-.2-1.061-2.43-2.229-.22-1.761 1.34-.51 3.7-1.07-.59-.279 1.25-1.46.43.35 2.71-1.56.48-2.42-1.49L331 186.2l.02-1.25-3.77-2.17-1.931 1.16-1.59-.22-.51 1.76-2.21-.42-1.41.95.12-1.33-.75 4.22-6.09 5.19-1.75.08-.67-1.55-1.58.46-1.521-1.05-3.45 2.11-5.58-2.2-2.319 1.25-2.4-1.17-.279.66-3.69-.55-1.96.84-.95 1.62-1.13-.06 1.16 1.229-.43 1.69-2.24 1.81 1.36 1.15-.19 1.92-5.45-.35-.54 2.31-4.479 1.23-.84 1.15-2.29-1.14-1.721 2.7-2.189-1.5-2.73.46-.02-.91 1.2-.3-.351-1.18.94.03-.521-2.76-1.939-1.1 1.56-2.02-4.46-3.38.8-1.67-.609-1.53-3.351-1.09-.33-3.14-1.529-2.47.619-.67-2.699-1.54 1.47-3.25-.37-1.15-1.43.6-1.17-2.16.3-.63.43.69.78-2.17 1.22.4-.2-1.29 1.761-.52-1.021-5.27 1.03-.27.71.16-.98.99 1.29 1.43 4.03-.33-.3-.76 2.729-2.84-.279-3.01 2.75-1.02 1.54.44 1.1 2.74 1.33-3.271 1.85.311L272.5 166l5.859 1.02.391.99 1.42-4.77 1.95-1.9 1.54 1.93 3-2.15 4.18 1.96 6.02-1.42.79-1.15-.359-1.82 2.529-.37 1.13-2.43.53.74-.15-.86 1.79-1.29.65-3.02 1.39-.07-.58-2.5 2.851-4.59-.71-.4.54-3.96-.851-.69.67-3.26 5.65-2.56-1.33-1.93.4-.7-2.011-.35.521-1.72 4.6.5-.54 4.19 2.62 2.98 2.95-3.36.76.05.16 2.69 3.351.3 3.43-6.08 2.439.17.44 1.13-.05-4.07 2.75-1.22-2.53-.78.12-2.37 2.1-1.17-1.229-1.74.97.28.98-2.61 2.12.7 2.019-2.15zM374.409.33l3.61 1.27 2.96-1.1 1.17 1.4-1.27 1.55-.721 4.1-1.77 1.57.2 4.26 3.1.71.84 2.05 2.07-.07-.021 2.71-2.47.65-1.28-1.3-2.439 1.04-.41.89 2.38 2.09-.78 2.62-1.31-.39-4.62 1.77-.03 1.07-1.83 1.16.82 2.54-2.229 2.29 1.88 2.79-.24 4.24 2.11 3.36 1.06.19-2.22.94 1.22 3.07-2.09 1.25.01 5.57-1.46-.61.8 1.22-.83.13-1.64-1.23.33-.98-.96.7.6 2.68.94-.021.479 1.22-1.29 1.61 1.11.25-.17 1.93-1.24 1.39.28 1.22-2.18.9-.48 1.43 1.01.98-1.6 2.75 4.28 1.28.439 1.7-1.399 2.39 1.199.51 1.341-1.29.739 2.65 2.08-.2.221 3.59-1.24.39.45 2.08-1.04 3.03 1.189 2.33 1.69.76-3.4 1.16.36 2.91-1.07.56.18 2.73-2.46 2.86.62 1.09-1.489.98-.36 1.55-1.36-.05-1.92 3.48-4.28 2 .021 1.22-4.03-.54.05-.69-5.02 1.37-1.33-1.31.21-1.56-3.3-.41-.93-1.09-1.471.14-1.109 2.37-1.25.35-.021 1.39-3.67.03.38-1.55-2.399.1.479-2.14-1.68.78-.86-3.05-1.92-.67.61-1.38 1.979.1.62-2.49-3.729-.17-1.04-2.67-2.15-1.91-2.49 1.4-.13 2.39-4.51.3-.54 1.66-3.68-.38-2.82 1.52-2.36-1.77-1.399 1.77-2.82-3.6-2.62-1.08.021-1.06 1.979-.21-.92-1.61.61-2.73-3.2-3.05.07-1.27-5.91.94-2.05-.86-1.32 1.55-.7-.62.11-.24-3.23-.62-.18-2.34.98.229.6-1.13-.41-2.33-2.729-1.46-1.44-5.16-1.45-1.41-3.359.21.25-2.76-.801-1.12 1.091-.86-.921-3.08 1.66-.66-1.189-2.52 1.79-.46L284.37 61l2.529-1.27.301-1.08-.99-.44 1.93-1.37.14-2.17-1.22-2.54-1.109-.1-.15-1.2 1.39-.86-1.8-2.41.45-1.95-1.17.29-.63-1.18.859-.88-1.51-.96 1.58-.49-1.62-1.12.9-1.62-.61-.69 1.82.41-.221-2.4 2.03-.43.851-2.51-1.2-.43 1.439-.33-.159-2.76 1.47-.65 1.75-3.6 1.84.23.76-1.271-.5-1.5 2.681-1.14.43-1.93 1.02.55-.59-1.49 1.22-3.71 1.24.64 5.24-1.34 3.819 3.28 1.45-.56.92-2.89 2.07-.87-.26-.67 2.49-.44.6 1.2 6.9.25 1.68 1.05 2.01-.95 1.19.81 1.71-.65 3.08 1.79-1.45 1.79 1.89-.47 4.17 1.04 1.811-1.979 3.58-.99 3.85-3.2-1.37-.31.71-2.1-.78-1.7.721-1.21 1.739-.26-1.43-3.6.43-1.24 4.061 1.23 2.09-.64 5.13 4.18 1.851-.99 2.029.38.721-1.03 1.54.26.8 1.55 2.97-1.48 2.21-3.02.28 1.33 2.21-2.3 1.16.26.069-1.76.997-.06zM118.17 196.94l2.85.56.79 1.5 1.67-2.16 2.37 2.7-.149 1.27 1.96.53 2.25-1.76 1.55.59 1.01-1.89.521 2.09-.74 1.14 1.7 2.37 1.09-.76-1.061-2.38.721-1.06 1.729 4.68 3.39-.59 1.131 1.58 1.739.06 1.311-1.4 1.74-.14 1.449-.35 2.261 4.38 1.609.33.9-.52-.51-2.29 1.579 1.11 1.921-.44-1.37-2.37-1.65.25-.18-.95 1.29-.37 2.35 1.5.04-2.86 1.71 2.13-.03-2.52.86-.74 2.53 3.53 3.75-2.41.319.9 2.891.69 2.67-1.29 2.76.89.64-.91-.64-2.02 2.521 1.18 1.77-1.57 2.69 1.56.899 4.68 1.83 1.91-2.08.9-.91 2.09-1.939.01-.7-1.61-1.59-.01-1.23 3.62-3.05-1.12-1.859 1-1.891-3.08-2.26.6 1.11 2.13-1.561.05-.31 1.1-2.261-.3-1.67-2.8-3.3.05-.84 1-.94-.56 1.28 2.82 1.93.52-.25 2.54-2.47-.97-1.899-2.13.43 1.38-2.63 2.72.01 1.75-1.15-.33-.5 1.35-3.46-.01-1.08 1.3-3.531.52-1.971 5.12-2.069 1.55-.98 2.89-10.989 1.26-2.9 1.54-4.311-.54-11.3 1.77-2.77 1.12-3.891 6.9-2.09.4-.52 1.08-3.99-.08 2.54-6.45-2.66-4.56-.18-4.11 2.75-3.01-.29-1.46 1.68.22 1.94-2.62-.25-.93 1.76-.05-1.01-2.13 2.569-1.35 5.131-6.36 4.55-1.32 4.91 1.05-1.021-12.63 1.532-2.19zm279.739-11.77l4.261 1.91 1.68 1.97 1.75.21.37 2.09 5.25 1.99.28 1.03 1.5-3.19-1.391-.03-.12-1.81 1.761-.15-.78-.46.85-1.15-1.56-2.16 1.729-4.4-.89-.86 3.02-2.83-.47-2.06 5.021 2.02 1.359-2.91 5.891-1.56.02-1.53 3.17-.88 1.351.7-1.141.78 1.101.6 1.779-2.271 2.29 2.25 1.181-1.29 1.069 1.58 1.28-1.13.67.8 1.71-.5 1.21 1.76-1.32.83 2.25-.17 7.711 7.3.789-.73 1.87.69 2.181-.6.08.88 1.779-.12.891 1.03.5-.76 2.149.52.601 1.31 2.689-2.43 1.03.25.84-1.49 3.51 4.25-1 1.47.9.75-.67 1 1.85.94-.35 1.36h1.979l2.12 1.32-1.56.9.77.88-.63 1.24 4.74 3.35-1.021 1.97 2.211 1.65-1.591 2.3.87.64.931-1.2 1.01 1.07 3.16-4.14-.591-1.04 1.771-1.41 3.68 3.13 5.04-1.29.23 1.51 2.05.01.16 1.41 3.01 1.24.17 1.15-1.86.33.141 1.43-.8.22.689 3.42-.97.16-.47 3.37.3 1.76 3.13.16.88 5.89-2.18.52.77 5.24-1.43 2.34-3.58-.96-1.01-1.67-2.181-.71-2.489.97.199 6.13 1.461-.17.399 2.07-3.3.76 1.42 2.87-4.22 1.2-4.49-.84.03.98-1.74.25-.39-.77-2.341-.01-.1-1.36-4.02.59-.12-.91h1.51l.43-1.91-.66-1.9-.819.54-.38-1.76-.73.25.65-.63-1.24-2.21 1.07-.41-.431-1.75-2.6.6-.33-2.36-5.11 1.31-.279-1.59-2.16.17-1.3-2.18-6.16 3.16-.13-.92-7.681-2.53-6.45.66-3.76 2.1-2.53-.03.011-2.021-1.99-.1.67 3.93-1.2.26.23 1.78.68 1.6 1.24-.09.359 2.53-3.85.9.51 2.55 1.471-.68.34 1.36.939-.04-.199 4.62 2.159-.38-.6 4.54-1.11.32 1.67 6.88-2.89.69-9.18-2.17-15.55 4.3-4.79.96-2.301-2.87-9.729 1.56-.29-1.43-1.521.51.65-3.49-1.05-1.37-3.42.69.31 2.14-5.37 1.021.79 1.52-1.27.54-.94-2.96-2.38.48.61-2.23-4.771-.12.05-.96-4.479.24 1.2-1.23-.811-5.2 3.34-.86-.699-2.15.25-2.51.79-.23-.061-4.18-2.53.18-.029-3.68.569.22.7-2.62 2.311-.271-.12-1.28 1.3.08.3 1.12-.37-1.75 2.84-.78.29-1.03-1.67.43-.12-.69 1.551-.38-.471-2.31 1.98.93.63 2.6.87-.88-.811-1.52 4.69-1.07-.07-.86 1.721-.32.729-1.83 1.5-.43-1.09-2 .07-2.62-1.38.07-.511-1.29.29-1.73.99-.28-.85-7.74 1.239-1.17 3.82.07-.37-1.59 1.61.63 2.81-1.58 2.141-3.62-1.851.31-2.28-2.1-2.18-.29-1.109-1.32-.101-2.18 2.48.2.89-1.22 1.78 1.4 2.54-.7.22 1.46 1.12.13 1.486-6.708z"/><path d="M532.55 168.03l2.18 2.34-1.42.91.54 1.229 4.34 1.18.25-1.24 1.17.21-.939 4.54 1.6 3.26-1.561.52.011 1.04-.82-.45-.79 1.48 3.59.92 3.82-.31-.04 4.74 3.04.7-1.7 3.79 2.141 1.66-.71.27.35 1.47-1.84.95.47 6.27 1.43 1.7-.8 1.75.65 1.12 2.31 1.26 1.73-.81.52 3.55 1.54.65-1.99 1.25-.37 2.69 1.421.75 3.039-.36 1.23 1.19.58 4.27 7.189 2.67.601 5.17 6.83.47.02 2.41 1.771.89-.62 3.49-8.08.37-.24 2.4-1.3.05-.59 6.52-3.61-.7.07 1.49-1.29.01-.4 1.25-5.31.04-.13 1.26-3.55.1-.011 1.96-1.42.02-.16 1.58-.729.06.61 7.64-2.74 3.25.07.94 3.88.12-.19 2.07-3.36 1.59.16 4.51-2.46 3.64-1 .17-2.46-2.42-1.09 1.12-4.64-1.06-3.471 1.24-8.529.24-8.11 10.58.66-2.16-2.8-1.94-5.801 3.3-1.42-2.25 4.03-2.55-1.7-1.32 1.16-1.64-4.73-1.92.9-.55-.38-1.91-4.97-3.52 3.689-.11-1.24-5.81 3.79.85 2.79-1.93-.449-1.75.979-.25.86 1.93 1.34-.68 1.39-5.64-2.16-.8-.8 1.48-2.66-1.9-1.819-3.05-.69.74-1.91-1.811-1.76 1.41-2.2-3.8-2.8.76.59-1.33-1.31.21-.22-1.39 2.47-1.32-2.63.28-1.42-5.75-2.801.39.65-2.8-.79-.33-1.42-2.87 3.3-.76-.399-2.07-1.46.17-.211-6.13 2.5-.97 2.181.71 1 1.67 3.58.96 1.43-2.33-.77-5.25 2.18-.52-.88-5.89-3.13-.16-.311-1.76.47-3.37.971-.16-.69-3.42.8-.22-.14-1.43 1.87-.33-.17-1.15-3.01-1.24-.16-1.41-2.051-.02-.22-1.51-.83-3.36.71-.65-1.59-3.54 1.01-1.54 3.471 1.66 1.14-1.48 3.79.38 2.16 2.26.399-.82-1.609-1.22.939-1.4 1.48.21 1.04-1.9 3.16 1.88.04-3.311 2.569-2.24 1.99.07-1.07-2.59 1.62-1.72.99.56.45-2.86 3.189-.37.9-.71-.37-1.82 4.73-1.93-4.511-2.38 1.961-1.98 9.67 1.41.791-1.917zM47.79 194.14l1.01-2.86-.82-2.07.69-2.17 1.14-.53-1.58-1.71.87-2.19-.7-1.08 1.98-2.67 1.51-.46.71-3.15 2.29-1.46 4.86 1.18 2.3-1.97 1.63 1.17 1.39-1.6 3.561 1.05.25-.85 1.979-.03 4.271-2.14 2.55.59.59-2.92-3.46-.14.521-2.41-2.061-.2-.09-.95.04-.74 2.56.25.53-2.22 1.431-1.28-1.58-.74-.61-1.91 1.36-.77-.25-2.53 1.488-.63-.34-1.57 1.33-1.17 1.59.86-.13.92 1.83-.55 2.22 1.84 2.851.15 1.899 5.71 1.23-.07 1.53 2.01-1.091 1.62.62 2.91 2.87 1.43-2.42 3.73 1.49 1.72 2.71.6.27 2.43-2.52-.6-.4 1.45 2.09 3.13 1.74-.91 2.44 1.53.83-.81-.189 1.64 1.25 1.01-.96 1 .73 2.89.989-.06.69-2.91 1.51-.25-.87 4.3 1.261-1.04 2.71 1.39-2.841 1.18.41 1.71.92.09 1.141-1.89 1.34.64-.311-2.63 2.86.78-.07-1.29.86.05.06 1.84 6.271 4.22-1.04 1.17 1.44.97-.78 1.77-1.53 2.19 1.021 12.63-4.91-1.05-4.55 1.32-5.131 6.36-2.569 1.35 1.01 2.13-1.76.05.25.93-1.94 2.62-1.68-.22.29 1.46-2.75 3.01.18 4.11 2.66 4.56-2.54 6.45-1.3.16-1.891-4.81-4.14-1.06-2.64-5.47-2.11-.93.4-2.64 1.689-1.46-4.18-5.55 1.47-3.03-2.05-1.35-.02-1.87-4.051-3.38-.899-1.94-1.78-.37-1.02 2.27-2.591-.89-1.33-2.14-.609-6.37-2.91 1.65-1.29-.24L62 207.8l-1.641-.42-.529-4.78-1.891.38-1.819-1.86-.2-2.32-2.8-.15-2.761-3.45-2.569-1.06z"/><path d="M519.27 104.03l-.47 3.979.67 1.4 3.05 2.6 2.11-.17-.761 4.89.95 2.29 3.82 5.05 1.41-.27 4.27 2.43 1.45 3.12 2.62 2.4-.37 1.69 2 2.76-2.38.59-.37 1.25 1.48 1.45-1.881 1.67-.739-.74-.801 1.85.771 1.17 1.31-.25-.43.7 1.48 2.23-2.07.57.46 1.01-1.79.87.19 2.11-1.681-.14-.5 1.13 1.28.67-2.49.87-.38 1.4.23 2.51 1.1-.01.64 2.19-.46 4.84 2.16.47.34.94-1.97.75.41.54-1.38 1.19-.86 1.9-9.67-1.41-1.96 1.99 4.51 2.38-4.72 1.92.36 1.83-.9.7-3.18.38-.45 2.86-.99-.56-1.62 1.72 1.08 2.59-2-.07-2.57 2.24-.04 3.3-3.149-1.87-1.04 1.89-1.48-.21-.939 1.41 1.609 1.22-.399.83-2.17-2.27-3.79-.38-1.141 1.48-3.46-1.66-1.01 1.55 1.59 3.54-.71.65.83 3.36-5.04 1.29-3.68-3.13-1.771 1.41.591 1.04-3.16 4.14-1.01-1.07-.931 1.2-.87-.64 1.591-2.3-2.211-1.65 1.021-1.97-4.74-3.35.63-1.24-.77-.88 1.56-.9-2.12-1.32h-1.979l.35-1.36-1.85-.94.67-1-.9-.75 1-1.47-3.51-4.25-.84 1.49-1.03-.25-2.689 2.43-.601-1.31-2.149-.52-.5.76-.891-1.03-1.779.12-.08-.88-2.181.6-1.87-.69-.789.73-7.711-7.3-2.25.17 1.32-.83-1.21-1.76-1.71.5-.67-.8-1.28 1.13-1.069-1.58-1.181 1.29-1.25-5.09 1.471-3.92 2.229 1.19 5.07-.04 1.25 1.35.14-2.2 3.2-4.01-.91-.38.44-2.23-1.57-.54.68-2.39 4.94.95.109-1.54-1.89-.67-.81-1.43 2.739-.94-1.79-5.23-2.729.41-3.72-1.54.39-2.1-1.51-.76.25-4.26-2.49-1.46-2.52-.02-.49-1.4-1.53.72-4.22-3.46-.92-2.6 3.59-4.74-.99-1.35.24-2.62 1.04-.36-.37-1.35 2.78 1.02.91-2.08 2.699-1.98 3.65.41.29-1.56 2.13-.55-1.1-.75 1.119-1.56 1.721 1.25-.061-1.25 1.53-.73 3.38 2.22-.24-1.36 2.58-.66 2.141.9.819-1.57-.609-.56 2.6-.19 3.2-4.06 1.229.52.671-.97 5.97-.51 3.189 1.05 4.061 4.86.56 2.45 2.38.23 2.21-2.16 3.21 2.28 1.99.02-.8 1.85 2.96 1.61 1.34-2.51 5.83-3.44 9.73-1.13 4.77-2.38 1.46-1.97 2.68.23 2.232-1.399zM359.64 328.58l3.49-1.44 6.649 2.23-6.47-.03-3.669-.76zm69.8-5.16l1.271 8.04 3.21 8.76-.551.29-1.52-3.62-1.58 1.88-1.05-.55.649-6-.93-4-1.26-.56-.54 2.01-1.72-1.99.069-1.55-1.3-.52 3.04-.67.92 1.63.311-3.13.981-.02zm-58.66-71.16l4.771.12-.61 2.23 2.39-.48.94 2.96 1.27-.54-.8-1.51 5.37-1.02-.3-2.14 3.42-.69 1.05 1.38-.64 3.48 1.51-.51.29 1.43 9.73-1.56 2.3 2.88 4.79-.96 3.47 2.16 2.2 8.02.77-.79 2.45.15.45-1.79 3.42-.67-1.24 1.15.34 1.66 1.24.63.12.81-1.31.24.979 7 1.11-.1.479 4.17.761-.1 1.09 2.52 3.859.52.58 4.06 1.73-.15.41 2.67-2.04.31.27 2.12-.96 1.56-3.729 1.17.27 1.82 3.81.21.32 2.811-1.439.41 1.47 3.28 4.53-.72.029 2.95 1.801-.27 3.72 1.45.609 8.94.971-.09-2.25 1.96-4.7 1-2.14 1.75-.69 2.1-4.32-1.11-1.92.52.53 3.8-1.25 3.13-2.09 2.4-1.101-.53-1.05 1.88-.03-2.28-2.079-1.46.529-.78.37-.28-.3-1.61 1.1-1.95.761 1.77.42-1.38 1.41-.57.819 2.12.7-3.83-1.55-1.57-.83.54.56 1.81-2.05.42-3.29-2.85-.99.25-1.619-3.22.04 3.21 1.319 1.4-1.49 2.97-.109-2.63-4.13-6.53-1 1.42.239.23 1.98 3.97-1.63 1.771-.34 1.25-1.03-1.29-1.13.76-.8-1.71-.66 2-3.34-5.04-1.74.13-.52-.81-1.381.69-2.119-1.69-1.75.7.539 2.04-3.43-2 .15.59-.98.17.73 4.229-.7.25-1.13-1.16-1.48 1.96.811 2.08-2.16.01.649 2.23-1.93-.91-1.24.93-2.96-3.99-.949 1.74-.851-.14.851-2.05-.79-.59-2.24.03-.63 1.15.84-5.3-3.29 4.54-3.25-1.57-.62 2.3-8.29-.64-5.58 1.17-1.899 1.62-1.73-.4-9.89-3.09 1.17-.48v-1.8l-1.53.38-3.49-2.32-.47-1.29-3.48-.32-1.05-1.7-1.51-.33-.65 1.36-3.35.23-.75-1.53 1.11-1.27 5.77-1.05 3.41-2.14-1.62-3.13-2.03.62-4.979-1.94 1.71-1.85 16.53 2.66 2.739-1.11-.699-.53-2.841 1.12-1.17-.77.7-.57-1.05-.2 1.24-.08-.62-3.31-1.66-.85-3.66 1.64-1.2-2.69-1.66-.11-2.359-1.99 3.46-1.48-.95-2.93 5.48-1.33-.21-1.72 1.239-.63-.83-1.44 4.17 2.65.91-.09-.25-1.72 3.28-.54.23 1.22 2.09-.27-.04-2.93 1.79 1.33 3.569-.26.261 1.95 8.51-1.87-1.11-1.27-2.529.17-.101-.87 4.82-1.72-1.7-2.69.68-.61 2.431 1.34L370 280l-4.591-2.81-.84-2.32 1.681-3.18 1.59-.33 1.109.91.96-2.05 2.16.8.061-1.46 1.649-.25-2.569-2.16-.061-2.061 1.09-.49-.42-2.77-2.989.06.59-4.09.67 2.81 2.229-.34.16-5.89-1.66.62-.039-2.739zM138.2 118.68l2.279-.02 1.261-2.58 2.43-1.84 3.67.09-.42-.92 1.16-1.6 2.54-3.01 1.569.17 3.011-4.25-.051-1.75.2.85 1.53-.34-.8-.13.13-1.01 1.979-1.65 1.011.63 1.54-1.94 2.72 1.17 1.25-1.92 1.76.39.09-1.26 1.47-.92.511 1.76 2.149-.1 2.46 3.77 1.08-.08-1.66 5.2 2.32 1.4-.08 1.97 2.28.49 1.189 1.22-.97.47 4.351 3.33 2.649-1.64.9 4.55 1.35-1.16.58 1.83-1.64.73.33 1.57-.9 1.49 1.76.5.431 2.13-1.33-.02-1.04 1.7-2.12-.33.87 3.29-.91 2.37 2.67.62-.13 2.78 1.229 2.21 2.36-.26-.86 1.68 2.931 2.21 1.51-1.05-.8 2.39-1.59.22 1.63 3.78-1.82 2.47 1.23 1.16-.101 1.3-1.81.07-.011 1.74 1.57.44-.939 1.24-.2 1.21 3.38.53-1.19 3.77 1.521 1.51-.101 4.67 1.41 2.57-1.47.79-1.33-.88-.76.61-.49-.97-1.31 2.85-3.351-1.4-1.54.56-.569 1.82-1.5-.99.09.95-1.46-.02.21 2.66-2.07.09-1.95 3.12 1.21 1.95-.85 3.33 1.2 5.66-1.311 1.51.88 3.55-1.43 3.42-1.77 1.57-2.521-1.18.64 2.02-.64.91-2.76-.89-2.67 1.29-2.891-.69-.319-.9-3.75 2.41-2.53-3.53-.86.74.03 2.52-1.71-2.13-.04 2.86-2.35-1.5-1.29.37.18.95 1.65-.25 1.37 2.37-1.921.44-1.579-1.11.51 2.29-.9.52-1.609-.33-2.261-4.38-1.449.35-2.04-1.32-.771 1.07-.79-1.32.74-.93-2.22-1.82 1.01-.36-1.13-.45.649-.84-1.27.38.16-1.16-1.801-.93.721-2.53-.7-.81.74-.06-1.261-2.23.931.37-.32-1.18 1.101-.19-1.891-2.01.68-2.76-1.3-.45.78-1.82-1.02-.96 1.189-.57-1.16-.65 1.25-.51-1.02-2.44 1.01-.91-.79-.2-.07-4.34.721-.11-.9-1.81.64-2.44 1.381.02.56-2.34-1.15-1.92.57-2.21-1.65-3.18-.09-2.63-1.66-1.59 1.131-2.02 1.439-.08-.63-3.01 2.5-2.41-2.81-2.88 1.81-1.84-.19-1.521-2.079-3.74.8-1.11-2.311-1.9 1.05-.85-.539-2.9 1.779-.9.351-1.25-1.141-.43 1.681-1.12-.87-2.76 2.46-.17-2.181-2.73.384-1.429zm153.22-17.28l.2 2.83 1.67 1.51.189 1.81-1.35 1.82-1.93.9-1.551-1-1.16.5.261 6.54-.9 1-2-1.91-1.1-4.72-2.511-.81-.84-2.52-1.54-.4-.449-2.02-2.58.2-1.61 1.21.84-4.64 1.54-1.82 1.23-.4-1.36-2.23 5.09.2 3.03 3.24 4.45-.91 2.449-2.23 2.45 1.22v1.41l-2.2.61-.318.61z"/><path d="M336.71 108.5l.479-2.14-1.68.78-.86-3.06-1.93-.66.609-1.38 1.98.1.62-2.5-3.73-.16-1.04-2.68-2.149-1.9-2.49 1.39-.13 2.39-4.521.3-.529 1.66-3.681-.38-2.819 1.521-2.37-1.771-1.391 1.78-2.819-3.6-2.62-1.08.02-1.06 1.98-.21-.92-1.61.609-2.72-3.21-3.06.07-1.27-5.91.94-2.05-.86-1.319 1.55-.7-.61.1-.24-3.229-.62-.18-2.34.99.24.6-1.13-.409-2.33-2.73-1.47-1.439-5.16-1.45-1.42-3.36.21.24-2.76-.8-1.12 1.09-.85-.92-3.08 1.67-.66-1.19-2.53 1.79-.45-.612-1.49-1.091-1.01-1.81.41.3-1.8-2-.15-2.37-2.39.58-3.75L272 47.57l-.42 1.2-1.19-.99-.28 1.05-3.479-.89-1.7 1.8-2.38-.72-.59 2.11-2.49-.77-.39.96-1.641-.86-.029-3.1-.95-.79-1.601 1.47-1.22-.11-1.69 2.27-1.47-.95-1.29 4.41-3.05-.73-1.75 1.44 1.2.31.149 2.99-1.46 2.71-2.96.48.92 4.56.801 2.84 1.029-1.69 5.4 5.28-1.54 2.39.42 2.03-2.12-.4-.05 1.94 3.43 3.77-.46 2.27 1.66 1.25-1.83-.03.54 2.08 2.11.17.87 2.24-5.15 5.84 1.99 2.43-1.48 3.13 1.521.76.14 1.51-.899.67-.931-.59-.229.94 1.72.73-1.92 1.2.53.83 1.02-.69 2.51-.43.91 1.33.04 1.15 1.58.31-.4 2.14 2.29.26-.17 2.36-.779.3 1.229 2.33-1.89 2.54 1.609 1.53-1.479 2.53 1.59 1.86-.66 1.95 1.99 4.57-2.14 1.68.79.44-1.48 2.09-3.77 2.35-1.11-.81-.85 1.68-1.551-.12.84 2.25-.8 1.79.3.81 1.591.02.35 3.29.96.67-1.08 2.19 1.391 3.83 1.479.76-1.18 1.7 1.46 1.17-3.16 3.98 1.31 2.74 2.73.87-.25 2.18 2.56 1.32.801-1.2.76 1.69.72.16-.979.99 1.289 1.43 4.021-.33-.3-.75 2.729-2.84-.27-3.01 2.74-1.02 1.54.44 1.1 2.74 1.32-3.27 1.85.31-.392 2.73 5.87 1.01.39.99 1.42-4.77 1.95-1.9 1.54 1.92 3-2.15 4.17 1.96 6.02-1.42.79-1.15-.359-1.82 2.54-.38 1.13-2.43.529.75-.159-.87 1.789-1.29.65-3.02 1.39-.06-.579-2.5 2.85-4.59-.71-.4.54-3.96-.851-.69.671-3.26 5.649-2.56-1.33-1.93.4-.7-2.01-.35.52-1.73 4.6.51-.54 4.18 2.62 2.98 2.95-3.35.76.05.16 2.69 3.351.3 3.43-6.08 2.45.17.439 1.13-.05-4.07 2.75-1.22-2.54-.78.13-2.37 2.101-1.17-1.23-1.74.971.28.979-2.61 2.12.7 2.02-2.15-.909-1.01.319-2.01 1.42-.95.12-2.25.38-1.54-2.401.11zm-42.77-8.32l-2.189.61-.32.61.19 2.83 1.68 1.51.189 1.81-1.35 1.81-1.93.91-1.55-1.01-1.16.5.26 6.54-.9 1-2-1.91-1.1-4.73-2.51-.81-.84-2.52-1.551-.4-.449-2.02-2.58.2-1.61 1.21.84-4.64 1.55-1.82 1.221-.4-1.351-2.23 5.09.2 3.03 3.24 4.45-.91 2.45-2.23 2.45 1.21v1.44h-.01zm68.86 67.33l2.489.7 1.471-.64.689 2.13 3.971 1.03 1.439 2.26.22 2.95 2.91.26-.1-4.44 1.979 2.3-1.239 1.38 1.89 1.53.35 1.86-1.069 1.16.68 2.75 2.76 1.13.19-1.48 2.149.18.131 1.92 2.13-.771 1.189.97 3.13-3.44 1.66 1.98 3.44.14 2.649 1.8-1.479 6.71-1.12-.13-.22-1.46-2.54.7-1.78-1.4-.89 1.22-2.48-.2.101 2.18 1.109 1.32 2.18.29 2.28 2.1 1.851-.31-2.141 3.62-2.81 1.58-1.61-.63.37 1.59-3.82-.07-1.239 1.17.85 7.74-.99.28-.29 1.73.511 1.29 1.38-.07-.07 2.62 1.09 2-1.5.43-.729 1.83-1.721.32.07.86-4.69 1.07.811 1.52-.87.88-.63-2.6-1.98-.93.471 2.31-1.551.38.12.69 1.67-.43-.29 1.03-2.84.78.37 1.75-.3-1.12-1.3-.08.12 1.28-2.311.271-.7 2.62-.569-.22-.42-3.07-4.12.91.74 2.35-6.771.17.16 1.78 1.29-.26.32.98-3.101.57 1.08 2.31-1 2.73-9.82 1.45-2.16-1.73-2.12.53-.341 2.72-3 .63-2.88-3.46-7.359 1.62-.3-1.64 1.39-.3-.41-1.99.91-.05-.23-2.71-.819.17-.34-2.46-3.11.94-.71-4.08 1.74-.9-.46-3-2.45.45-.34-1.3-1.49.2-.3-.98-1.65.31-.58 1.45-.84-.37.26 1.97-1.92.85-.689-.68.92-1.19-.431-2.05-3.12 1.05-.399-1.19-1.95.94-.19-1.12-2.85.93-.54-2.72-1.35-.46-.53-1.97-3.81-.64-2.431.49.351 1.78-1.91.13-1.11 1.28-1.46-.07-1.359-1.5-.74 1.14-.311-1.17-2.319-.29-2.391.59-.96 1.5-2.22.03-.979-1.11-.79.99-4.471-.98-2.229 1.59-8.43-.5-1.681-1.49-.52-2.34-.54.68-1.45-.78-1.41 2.4-1.439-1.43-2.181.22-1.04-4.07 2.09-3-.819-1.08 6.06-5.19 2.73-.46 2.189 1.5 1.721-2.7 2.29 1.14.84-1.15 4.479-1.23.54-2.31 5.45.35.19-1.92-1.36-1.15 2.24-1.81.43-1.69-1.16-1.229 1.13.06.95-1.62 1.96-.84 3.69.55.279-.66 2.4 1.17 2.319-1.25 5.58 2.2 3.45-2.11 1.521 1.05 1.58-.46.67 1.55 1.75-.08 6.09-5.19.75-4.22-.12 1.33 1.41-.95 2.21.42.51-1.76 1.59.22 1.931-1.16 3.77 2.17L331 186.2l3.75-2.53 2.42 1.49 1.56-.48-.35-2.71 1.46-.43.279-1.25 1.07.59.51-3.7 1.761-1.34 2.229.22 1.061 2.43 1.399.2.7-1.17 1.03.91 1.62 4.89.89-.04-.28-1.37 1.44.83 3.26-.38-.09-1.36 1.96.97 3.74-.8.909-.93-1.439-.62-.5-3.24 2.6-1.13.011-1.13-4.521-2.23 3.321-4.38zm185.34-43.12l.689 3.49L551 129.1l.55-.89 1.229.24.69 1.59 1.3.41 1.93-1.03 2.13 1.14 1.381-2.3.819 1.01-.649 2.44 3.239 2.87 3.79.5 1.07 3.81 3.11-1.43 1.439.32 3.851-3.771 3.55 6.9 3.12.9 2.3-1.09 5.479 1.42-.35 1.3 2.021 4.9 3.069.94 1.94 2.04 4.029-.56 1.091-1.47 6.12-.94 1.05 2.41-4.24 2.51-.33 2.93 1.59 2.84 3.75 3.27-.49 2.77 1.261 2.52-2.61.27-2.04 2.71-1.54.41-3.12 6.34-4.399-.24-1.301 1.05-3.279-.03-.261 2.12 2.91.64 1.28 2.44-.5.75 1.83 2.04.6-.77 2.53.21 2.44 1.42 1.42-2.52 1.45 2.41-3.391 3.98-5.99-2.47-1.1 3.86-1.02.04-1.12 2.271.58 1.85-2.051 3.79.931 1.18 3.52-.34 1.92 1.19.58 3.04-.649 1.89 1.689 1.25.3 2.86.561.8.609-.58.17 1.82-3.239.9-.271 1.21 2 .47.57 1.5 2.33-2.32 1.16 3.2-.41 1.49-2.26-.2-.19 2.4-.92.12-1.43 4.98-1.051.61 1.62 1.39-3.66.06 1.45 2.93-.87 5.44-1.05.23-.88 2.13-3.85-.6-2.63.67-2.341-1.82-2.119 1.54-.95-2.05-4.9.2-3.21 1.28-2.06-.49-.37-.95.62-3.48-1.771-.89-.01-2.41-6.83-.47-.6-5.17-7.19-2.67-.58-4.27-1.229-1.18-3.04.36-1.42-.75.369-2.7 1.99-1.25-1.54-.64-.52-3.55-1.721.81-2.31-1.26-.66-1.12.811-1.76-1.431-1.69-.47-6.27 1.85-.95-.35-1.47.71-.27-2.14-1.67 1.7-3.78-3.04-.71.04-4.74-3.82.31-3.59-.92.79-1.48.819.45-.01-1.04 1.561-.52-1.601-3.26.94-4.54-1.17-.21-.25 1.24-4.33-1.18-.54-1.22 1.43-.91-2.18-2.34 1.38-1.19-.41-.54 1.97-.75-.34-.94-2.16-.47.46-4.84-.64-2.19-1.1.01-.23-2.51.38-1.4 2.49-.87-1.28-.67.5-1.13 1.681.14-.19-2.11 1.79-.87-.46-1.01 2.07-.57-1.48-2.23.43-.7-1.31.25-.771-1.17.801-1.85.739.74 1.881-1.67-1.48-1.45.37-1.25 2.38-.59-2-2.76 3.07-2.13.109 1.05 3.07-3.01-1.31-5.33 3.13.41 1.43-.82.626.78zM66.03 93.19l1.75-.11 3.551 4.34 2.37.43.47-1.21 1.76-.54.88 2.51 1.4.98L80.89 99l.87 3.12 1.48-.17-.061 4.49 1.96.17 2.29 1.74-.28 1.71 5.28-.78 2.32.77.189-2.29 3.721 2.47.199 2.09 1.86.76 3.17.4-1.3 3.26 1.62 2-.65 2.65 5.141 6.58 1.729 1.03.82 2.3-1.29.43-.48 3.48-2.478.65-.36 1.38-6.95.04-.239 2.939 1.39 1.43-1.67 1.71-1.57-1.34-1.12 4.96-1.68 1.6-7.51 2.02.21 3.88-2.851-.15-2.22-1.84-1.83.55.13-.92-1.59-.86-1.33 1.17.34 1.57-1.489.63.25 2.53-1.36.77.61 1.91 1.58.74-1.431 1.28-.53 2.22-2.56-.25-.04.74.09.95 2.061.2-.521 2.41 3.46.14-.59 2.92-2.55-.59-4.271 2.14-1.979.03-.25.85-3.561-1.05-1.39 1.6L62.05 173l-2.3 1.97-4.86-1.18-2.29 1.46-.71 3.15-1.51.46-1.98 2.67.7 1.08-.87 2.19 1.58 1.71-1.14.53-.69 2.17.82 2.07-1.01 2.86-4.261-.07-2.06-2.09-1.24.81-1.359-1.1-2.83.73-1.721-3.69-1.79-1.58-3.699 1.5-.771-2.22-2.43-1.55-.7-1.68 1.521-1.48-.551-1.65 1.21-.84-1.92-1.08-.54-1.43.83-1.54-2.029-.79-1.36-2.37-1.7-.05.561-1.229-1.24.93-.391-.54 1.33-2.08-1.08-.79.841-.88.22-5.9-1.65-6.84-1.93-1.89 21.59-29.96 13.72-12.02 1.37-2.96 9.23-1.3 2.93-6.92.139-6.401z"/><path d="M319.56 303.85l5.97-.46 3.431 1.49-1.71 1.85-2.811-.21-.67 2.23-4.21-4.9zm-43.18-80.08l2.229-1.58 4.471.97.79-.99.97 1.11 2.22-.03.96-1.5 2.391-.59 2.33.29.31 1.17.74-1.14 1.35 1.51 1.47.07 1.11-1.28 1.91-.13-.351-1.78 2.431-.49 3.81.64.53 1.96 1.34.46.54 2.72 2.85-.93.181 1.12 1.949-.94.4 1.19 3.12-1.05.43 2.05-.91 1.19.69.69 1.92-.85-.26-1.97.84.37.58-1.45 1.649-.31.301.98 1.479-.2.35 1.3 2.45-.44.45 3-1.74.9.71 4.09 3.11-.94.34 2.46.82-.17.229 2.71-.909.05.409 1.99-1.38.31.29 1.64 7.37-1.62 2.87 3.47 3.01-.63.33-2.73 2.12-.53 2.16 1.73 9.82-1.45 1-2.74-1.08-2.31 3.1-.57-.33-.98-1.29.26-.149-1.78 6.77-.17-.74-2.36 4.11-.91.42 3.07.03 3.68 2.529-.18.061 4.18-.79.23-.25 2.52.7 2.15-3.33.86.81 5.2-1.2 1.24 4.48-.25-.05.97.05 2.68 1.66-.62-.16 5.89-2.23.34-.67-2.81-.59 4.09 2.99-.06.42 2.77-1.09.49.06 2.06 2.57 2.16-1.65.25-.06 1.46-2.16-.8-.96 2.05-1.11-.91-1.59.33-1.68 3.18.84 2.32 4.59 2.81-1.54 2.41-2.43-1.34-.68.61 1.7 2.69-4.82 1.72.1.87 2.53-.17 1.11 1.27-8.511 1.87-.26-1.95-3.57.26-1.79-1.33.04 2.93-2.09.27-.229-1.22-3.28.54.25 1.72-.91.09-4.17-2.65.83 1.44-1.24.63.21 1.72-5.479 1.33.95 2.93-3.46 1.48-2.601-.21-.77 1.25-2.96 1.2-6.17-1.82-2.11 2.27-2.19-1.27-4.02.15-.561 1.1-5.85-1.32.65-1.62-1.681-3.93.96-1.41-.689-3.16-3.95-3.3-.75-3.01 2.41-1.13 5.26-.38-.49-1.52 2.08-.09.37-2.94-1.13-4.38-5.33.77-.03-1.66 1.61.37.5-4.19-5.17 1.33-1.08-1.4.31-1.07-3.02.61-1.24-2.79 1.24-.63-.899-1.06.13-2.92-1.24.2.77-6.05-3.319-.26-.851-1.09 1.061-.7.33-3.26-2.71.53.369 1.47-1.51.41-.39-1.65-6.42.8-.26-1.16-1.5.27-1.08-5.93 1.18-.4.39-1.95-.46-1.04-3.12.42-.779-5.83-2.061-1.86-.62-2.4 1.021-.53-1.63-2.16 3.59-1.97 1.34.17-1.43-.68-.371-1.52z"/><path d="M258.73 220.53l2.181-.22 1.439 1.43 1.41-2.4 1.45.78.54-.68.529 2.34 1.671 1.49 8.439.5.351 1.53 1.43.68-1.34-.17-3.59 1.97 1.63 2.16-1.021.53.62 2.4 2.061 1.86.779 5.83 3.12-.42.46 1.04-.39 1.95-1.181.4 1.08 5.93 1.5-.27.261 1.16 6.42-.8.39 1.65 1.51-.41-.37-1.47 2.71-.53-.329 3.26-1.061.7.851 1.09 3.319.26-.77 6.05 1.24-.2-.131 2.92.9 1.06-1.24.63 1.24 2.79 3.02-.61-.31 1.07 1.08 1.4 5.17-1.33-.5 4.19-1.61-.37.03 1.66 5.33-.77 1.13 4.38-.37 2.94-2.08.09.49 1.52-5.26.38-2.41 1.13.75 3.01 3.95 3.3.689 3.16-.96 1.41 1.68 3.93-.649 1.62-14.439 4.04-.771 1.74 1.48 3.24-.75 3.3-2.341 2.51-6.819 11.97-8.891 10.49-19.77 16.84-.96 1.64 1.39 1.36.521-1.28.529 1.13 2.98-.39-.79 11.29-.95.78-1.31-.09-.271-4.6-2.35-3.65-5.79-2.79-6.34.5-9.271 4.92-.84 2.46-4.88-2.64.1 1.69-1.649.82 1.37 1.93-2.49.84-5.26-1.15-7.341-3.54-2.119-3.6-.091-2.34-2.27-.94 1.1-1.92 2.091-1.93 4.05.78.17 2.08 2.76-.68-.77-3.39 1.909-.45-.97-4.12-1.229-.02 1.13-2.42.91-.93 1.689.23-.2-1.97 4.17-.46-.31-1.73 2.86-.82-.92-4.45.59-2.23 6.93-1.56.88-2.17-1.88-2.37 3.85-4.8-3.79-3.14 1.471-3.51-2.181-6.17 3.221-.24-1.261-1.24 5.851-1.31.06-1.41 2.431-.72.67 3.59-1.19 1.06.84 2.29-1.3 1.57 1.13.39.851-1.4 1.989-.43-.439-2.51 1.28-1.88 1.659 3.83-.3-1.06 2.17-2.35 1.74 1.75-.77.96 2.75 1.11.54 2.72.899.32 2.36-.34-.42-3.58 2.449.07.21-1.87 2.801 3.65-.48.57 2.601 1.58-.051-.99 1.761-1.4 1.649.91 2.53-.81 1.08.89 2.33-1.55-.16-.81-.76.91-1.29-1.44-.61.8-.45-.92-1.38.02-.99-.88.96-.45-1.109-.48-.08-1.49-1.68.73-2.11-2.54 2.5-.62.83-9.5-1.28-2.64 1.4-.53-.33-.79-2.11.61-.729-3.21-4.431 1.25-1.069-3.45-2.44.44-.32-1.62-2.229.63-.521-.82 1.32-.25.19-3.7.84-.36-.5-2.67-2.22.19-.521 1.06-1.21-2.42 2.89-.72-.989-5.64 1.59-.41-.88-5.62-2.92.79-.12 2.4-1.811.84-1.069-.56-.29-3.95-1.771.49-.67-3.83-2.38 1.62-.17-2.25-1.75 1.8.05-2.18-1.13.46.99-.84.04-1.92-1.271.25-1.26-2.32 2.34-.87 1.66-3.45-.88.04.819-2.14-.829-1.85 2.3-4.15-1.79.35-.69-1.54 2.601-3.2-2.551.29-.909-5.42-2.801.55.21 1.08-.67-.47-.479 1.37-3.37-1.88-1.45 1.02-2.85-3.79.319-2.37.69.59 2.03-1.26.609-3.12 2.24.36.42 1.64.51-.33 1.011-3.57 2.939 2.23-.49.47 3.7-.38.311.88-1.931.58.521.78 1.35-.43.79 1.15 3.061-.07.739-1.22 2.521-.45 1.12 1.07 2.33.22 1.09-1.73 2.12 1.21-.271-4.34 4.174-.74zm111.26-119.81l1.67.771 1.87-.96 1.61 1.04 1.92-2.59 1.42 1.69 1.84.04.101 1.19 1.189-.05.74 1.22.979-.85.69.78.59-1.04.8.89 1.62-.78 5.641 1.94 3.59-1.71-1.13-1.32 2.109-.9 1.44.9 1.29-1.66 2.42 2.55 1.27-.87 1.36.54-.14 1.26.699-1.49 3.381-1.32.97.82.37 4.46 4.319 3.57.841 3.03 3.35 1.39.25 1.98 1.83 1.03-1.67 2.43.8 2.5 5.23 1.18.01-1.96 1.109-.68.29.84 3.58-1.04 3.15.63-.24 2.62.99 1.35-3.59 4.74.92 2.6 4.22 3.46 1.53-.72.49 1.4 2.52.02 2.49 1.46-.25 4.26 1.51.76-.39 2.1 3.72 1.54 2.729-.41 1.79 5.23-2.739.94.81 1.43 1.89.67-.109 1.54-4.94-.95-.68 2.39 1.57.54-.44 2.23.91.38-3.2 4.01-.14 2.2-1.25-1.35-5.07.04-2.229-1.19-1.471 3.92 1.25 5.09-2.29-2.25-1.779 2.271-1.101-.6 1.141-.78-1.351-.7-3.17.88-.02 1.53-5.891 1.56-1.359 2.91-5.021-2.02.47 2.06-3.02 2.83.89.86-1.729 4.4 1.56 2.16-.85 1.15.78.46-1.761.15.12 1.81 1.391.03-1.5 3.19-.28-1.03-5.25-1.99-.37-2.09-1.75-.21-1.68-1.97-4.261-1.91-2.649-1.8-3.44-.14-1.66-1.98-3.13 3.44-1.189-.97-2.13.771-.131-1.92-2.149-.18-.19 1.48-2.76-1.13-.68-2.75 1.069-1.16-.35-1.86-1.89-1.53 1.239-1.38-1.979-2.3.1 4.44-2.91-.26-.22-2.95-1.439-2.26-3.971-1.03-.689-2.13-1.471.64-2.489-.7-3.16.78-1.54-1.33-3.58.21-4.88-3.9 1.42-4.1 1.08 1.35 6.76 1.43-2.939-4.4.81-3.19 2.48-1.37.21-2.69-1.98-1.43.38-2.88-4.54-2.24-.62-3.58-1.34-.19-.439-1.63-1.79.47-2.57-4.08 2.06-.72-.689-.8.39-2.96-1.58-1.03-1.06-3.55-.601-.48-.699 1.01-1.86-2.32-.16-1.53 1.76-.42-.189-1.28-4.16-1.21-2-3.28-.9-1.02.32-2 1.42-.95.12-2.25 3.67-.03.021-1.39 1.25-.35 1.109-2.37 1.471-.14.93 1.09 3.3.41-.21 1.56 1.33 1.31 5.02-1.37-.05.69 4.03.54-.021-1.22 4.28-2 1.92-3.48 1.36.05.36-1.55 1.486-.983zM124.96 25.08l3.54.52 2.529-.98 6.11 3.84 6.91-.71.1 2.21 2.521 1.95 2.41.09 1.68-1.71 3.33.22 2.02 1.19.101 1.43 1.39 1.1 1.8-.49 3.38 1.67 1.561-1.81 7.08-.28.229 5.95 2.2.54-1 2.79 3.96-.78 2.2.68.89-.88 1.74 1.83.47-2.66 3.5 1.7 3.431.05-.11 2.16-1.89 2.58.21 1.01-3.061 1.09.051 2.64 1.119 1.49-1.05.01-1.819-1.68.149-1.07-.95.03-.449 4.08.909.43.021 1.41-.891 1.34-1.819.38 1.14 3.93-3.359 4.4-.301 3.16-1.439.98.17 1.93-3.57.67.09 1.19-.91.43 1.33 2.95-.68 1.45 1.3 1.15-.72 5.26 1.39 4.11-1.06 2.49-1.42.7-.41 2.02 1.33.99.05 2-1.2.25-2.149.1-.511-1.76-1.47.92-.09 1.26-1.76-.39-1.25 1.92-2.72-1.17-1.54 1.94-1.011-.63-1.979 1.65-.13 1.01.8.13-1.53.34-.2-.85.051 1.75-3.011 4.25-1.569-.17-2.54 3.01-1.16 1.6.42.92-3.67-.09-2.43 1.84-1.261 2.58-2.279.02-1.37-.93 1.42-3.59-1.99 1.96-3.42-1.44-1.73 1.38-2.72-1.41-2.479 3.5-4.37.21-3.37 1.85-1.75-1.18-.74 1.32-2.68-.87-.891 2.01 1.32 1.32-1.22.4-.74 2.19-2.26.38-.51 2.189-5.141-6.58.65-2.65-1.62-2 1.3-3.26-3.17-.4-.08-1.25 1.91-1.03-.78-2.07.82-.52 1.01.88.42-.92-1.31-.84-.46-1.83-.69.19.42-1.34-2.14-1.23 2.17.34.32-1.9-1.19-2.43 5.83.76.94-1.52-.271-.93-.72.32-.34-2.87 3.92.98-1.59-1.64 1.29-1.25-.32-1.11 2.79 1.39 4.54-1.88-.12-1.02 3.21-.55.61 2.85 2.21-.26 2.04 2.84 2.51-11.09 3.79.6.59-1.17-1.58-1.39.38-3.71-1.33-1.07 3.94-.72.84-1.83-.58-2.57-2.38-1.59-2.67-.19-.19-1.79 4.021-1.27.34-2.12-2.1-2.32-1.851-.42-.25-2.16-3.729-3.32.119-2.8-1.762.691-.649-1.41-1.101.01-.06 1.11-.91.18-1.96-2.65.01-3.04-1.22-1.3-1.74.19 1.37-1.14-.93-.91 1.21-2.39-2.4-2.57 1.521.35.97-.9 2.1-4.19.561-1.97-1.74-2.6.229-2.39 2.24-2.69-2.51-.36-1.36-1.3 6.41.15-.02-1.53 1.479.39.19 1.04z"/><path d="M396.01 1.02l.13 2.27 2.67.87.69 3.14 2 1 .359 1.33 1.43.2.211 1.9 1.92 1.39-.58 2.72-1.23 1.13 1.24 1.62-.021 1.88 1.351.44.189 1.72 1.521-.05 1.09 2.68 1.31.521-.35 1.62 1.7-.39 3.939 3.35-.25 2.03 1.101 2.45L415.8 36l-3.83.14-7.65 2.9 2.82 1.24.54 2.53 1.03-.14.14 1.32.66-.521.75 2.82 1.7.8-3.021 5.55 4 3.31-1.89 1.11-1.71 3.82 2.689 1.46 2.54-1.87 6.59 2.1.761-1.08 2.01.38.28 2.71 1.619 1.27 2.37-.64 1.44.8 1.02-1.55 2.561-.32 1.41-1.59 2.09 1.57 1.069-1.43 2.62.44-.819 3.23 1.59 2.13.01 1.89-.84.31 1.36 1.62 2.79-.27 1.159-1.1 3.36 1.55.12 1.24-1.24.99-1.75-.42 1.101 2.08-.801 1.75 2.431 1.56-.591 2.36 1.221 1.34-.141 2.42 2.5 1.27-1.14 2.68 1.35 2.71-.26 1.15-.84-.56-2.17.76.92 2.61-1.08 1.24 2.84 4.8 3.66 2.021.65 4.39 2 .77.609.56-.819 1.57-2.141-.9-2.58.66.24 1.36-3.38-2.22-1.53.73.061 1.25-1.721-1.25-1.119 1.56 1.1.75-2.13.55-.29 1.56-3.65-.41-2.699 1.98-.91 2.08-2.78-1.02.37 1.35-1.04.36-3.15-.63-3.58 1.04-.29-.84-1.109.68-.01 1.96-5.23-1.18-.8-2.5 1.67-2.43-1.83-1.03-.25-1.98-3.35-1.39-.841-3.03-4.319-3.57-.37-4.46-.97-.82-3.381 1.32-.699 1.49.14-1.26-1.36-.54-1.27.87-2.42-2.55-1.29 1.66-1.44-.9-2.109.9 1.13 1.32-3.59 1.71-5.641-1.94-1.62.78-.8-.89-.59 1.04-.69-.78-.979.85-.74-1.22-1.189.05-.101-1.19-1.84-.04-1.42-1.69-1.92 2.59-1.61-1.04-1.87.96-1.67-.771-.62-1.09 2.46-2.86-.18-2.73 1.07-.56-.36-2.91 3.4-1.16-1.69-.76-1.189-2.33 1.04-3.03-.45-2.08 1.24-.39-.221-3.59-2.08.2-.739-2.65-1.341 1.29-1.199-.51 1.399-2.39-.439-1.7-4.28-1.28 1.6-2.75-1.01-.98.48-1.43 2.18-.9-.28-1.22 1.24-1.39.17-1.93-1.11-.25 1.29-1.61-.479-1.22-.94.021-.6-2.68.96-.7-.33.98 1.64 1.23.83-.13-.8-1.22 1.46.61-.01-5.57 2.09-1.25-1.22-3.07 2.22-.94-1.06-.19-2.11-3.36.24-4.24-1.88-2.79 2.229-2.29-.82-2.54 1.83-1.16.03-1.07 4.62-1.77 1.31.39.78-2.62-2.38-2.09.41-.89 2.439-1.04 1.28 1.3 2.47-.65.021-2.71-2.07.07-.84-2.05-3.1-.71-.2-4.26 1.77-1.57.721-4.1 1.27-1.55.65.2.359-1.41 1.92.57-1.149 2.4 2.609.67-.409-1.2 1.229.64 3.42-2.54 5.228-.21zM108.7 127.97l.51-2.189 2.26-.38.74-2.19 1.22-.4-1.32-1.32.891-2.01 2.68.87.74-1.32 1.75 1.18 3.37-1.85 4.37-.21 2.479-3.5 2.72 1.41 1.73-1.38 3.42 1.44 1.99-1.96-1.42 3.59 1.37.93-.381 1.43 2.181 2.73-2.46.17.87 2.76-1.681 1.12 1.141.43-.351 1.25-1.779.9.539 2.9-1.05.85 2.311 1.9-.8 1.11 2.079 3.74.19 1.521-1.81 1.84 2.81 2.88-2.5 2.41.63 3.01-1.439.08-1.131 2.02 1.66 1.59.09 2.63 1.65 3.18-.57 2.21 1.15 1.92-.56 2.34-1.381-.02-.64 2.44.9 1.81-.721.11.07 4.34.79.2-1.01.91 1.02 2.44-1.25.51 1.16.65-1.189.57 1.02.96-.78 1.82 1.3.45-.68 2.76 1.891 2.01-1.101.19.32 1.18-.931-.37 1.261 2.23-.74.06.7.81-.721 2.53 1.801.93-.16 1.16 1.27-.38-.649.84 1.13.45-1.01.36 2.22 1.82-.74.93.79 1.32.771-1.07 2.04 1.32-1.74.14-1.311 1.4-1.739-.06-1.131-1.58-3.39.59-1.729-4.68-.721 1.06 1.061 2.38-1.09.76-1.7-2.37.74-1.14-.521-2.09-1.01 1.89-1.55-.59-2.25 1.76-1.96-.53.149-1.27-2.37-2.7-1.67 2.16-.79-1.5-2.85-.56.78-1.77-1.44-.97 1.04-1.17-6.271-4.22-.06-1.84-.86-.05.07 1.29-2.86-.78.311 2.63-1.34-.64-1.141 1.89-.92-.09-.41-1.71 2.841-1.18-2.71-1.39-1.261 1.04.87-4.3-1.51.25-.69 2.91-.989.06-.73-2.89.96-1L100.6 182l.19-1.64-.83.81-2.44-1.53-1.74.91-2.09-3.13.4-1.45 2.52.6-.27-2.43-2.71-.6-1.49-1.72 2.42-3.73-2.87-1.43-.62-2.91 1.091-1.62-1.53-2.01-1.23.07-1.899-5.71-.21-3.88 7.51-2.02 1.68-1.6 1.12-4.96 1.57 1.34 1.67-1.71-1.39-1.43.239-2.939 6.95-.04.36-1.38 2.479-.65.48-3.48 1.29-.43-.82-2.3-1.73-1.031zm-91.1 49.69l3.82-.25 2.609 2.62 1.461-.3-.301-1.58 1.92 1.08-1.21.84.551 1.65-1.521 1.48.7 1.68 2.43 1.55.771 2.22 3.699-1.5 1.79 1.58 1.721 3.69 2.83-.73 1.359 1.1 1.24-.81 2.06 2.09 4.261.07 2.569 1.06 2.761 3.45 2.8.15.2 2.32 1.819 1.86 1.891-.38.529 4.78 1.641.42.97-2.38 1.29.24 2.91-1.65.609 6.37 1.33 2.14 2.591.89 1.02-2.27 1.78.37.899 1.94 4.051 3.38.02 1.87 2.05 1.35-1.47 3.03 4.18 5.55-1.689 1.46-.4 2.64-1.85.86-2.55-.96-2.9 2.78-.841-.57-3.25 1.47-1.23-1.05-2.72.16-3.49-2.62-4.83 1.74-2.95-3.13-3.789.53-4.65-1.79-1.15 2.62-5.52-2.65.12-.89-1.88-.86-.46-2.27-2.53.1-.84-1.14-1.79 1.65-.74 4.13-2.59.8-2.94-1.45.681 2.64-1.761.56-2.05-1.72 1.521-3.22-1.881-3.23-3.029-.17-2.24 1.43-2.71-.84-.69-4.49-2.34-2.63-3.41-.08-.68.73-2.3-4.52.189-1.37-2.619-1.65.81-1.25-1.94-.84-2.09 1.18L0 209.03l1.52-8.521 5.32-4.14.75-2.52-.54-1.46 1.39-1.96-.16-3.1 1.29-1.28.141-2.24 1.83-3.24 2.279-.74.91-4.43 1.811.63 1.059 1.631zm175.2-36.19l4.15-1.68 3.899.44 5.2-.84.729-1.4 4.44 1.729 1.51-2.229 2.08.77 1.46-.57 1.45 2.3 1.76-2.021 3.75.82.69-2.4 3.07-.91.96-1.46 2.689 2.5.53 1.95-.9 1.11 2.08 2.38-1.89 3.03 2.16 2.34-.67 1.94 4.38.68 4.14-.99 1.08.67.15-2 2.109.72.49-.76.84.43.9-1.94 3.3.46.96.68-1.08 2.19 1.4 3.83 1.47.75-1.18 1.71 1.46 1.17-3.16 3.98 1.31 2.74 2.73.87-.25 2.18 2.56 1.32.811-1.2.76 1.68-1.03.27 1.021 5.27-1.761.52.2 1.29-1.22-.4-.78 2.17-.43-.69-.3.63 1.17 2.16 1.43-.6.37 1.15-1.47 3.25 2.699 1.54-.619.67 1.529 2.47.33 3.14 3.351 1.09.609 1.53-.8 1.67 4.46 3.38-1.56 2.02 1.939 1.1.521 2.76-.94-.03.351 1.18-1.2.3.02.91-6.06 5.19.819 1.08-2.09 3 1.04 4.07-4.21.77.271 4.34-2.12-1.2-1.09 1.72-2.32-.21-1.12-1.07-2.52.45-.74 1.21-3.07.07-.78-1.15-1.35.43-.53-.78 1.931-.58-.311-.88-3.7.38.49-.46-2.939-2.24-1.011 3.57-.51.33-.42-1.64-2.229-.36-.61 3.12-2.03 1.25-.689-.59-.23-2.22-5.09-.05-.32-1.01-3.87-1.48-2.109 1.23-.141 4.31-1.189-.38-1.46-2.47.229-2.5-1.569-.11-1.03 1.92-1.51-.16 2.06-3.17-.51-2.26-4.95 2.14-1.439-2.83-2.48 1.36-.42-4.12-4.33-.79-1.91-1.57-.8-2.23-2.93-2.14-4.86.21-1.71-.98.18-1.53-2.13 1.12-1.83-1.91-.899-4.68-2.69-1.56 1.43-3.42-.88-3.55 1.311-1.51-1.2-5.66.85-3.33-1.21-1.95 1.95-3.12 2.07-.09-.21-2.66 1.46.02-.09-.95 1.5.99.569-1.82 1.54-.56 3.351 1.4 1.31-2.85.49.97.76-.61 1.33.88 1.47-.79-1.41-2.57.101-4.67-1.521-1.51 1.19-3.77-3.38-.53.2-1.21.939-1.24-1.57-.44.011-1.74 1.81-.07.101-1.3-1.23-1.16 1.82-2.47-1.63-3.78 1.59-.22.796-2.389zM104.57 23.12l1.171-.42 5.1 2.62 3.39-.11.601-.98 2.069.8 1.36 1.3 2.51.36-2.24 2.69-.229 2.39 1.74 2.6-.561 1.97-2.1 4.19-.97.9-1.521-.35 2.4 2.57-1.21 2.39.93.91-1.37 1.14 1.74-.19 1.22 1.3-.01 3.04 1.96 2.65.91-.18.06-1.11 1.101-.01.649 1.41 1.76-.69-.119 2.8 3.729 3.32.25 2.16 1.851.42 2.1 2.32-.34 2.12-4.021 1.27.19 1.79 2.67.19 2.38 1.59.58 2.57-.84 1.83-3.94.72 1.33 1.07-.38 3.71 1.58 1.39-.59 1.17-3.79-.6-2.51 11.09-2.04-2.84-2.21.26-.61-2.85-3.21.55.12 1.02-4.54 1.88-2.79-1.39.32 1.11-1.29 1.25 1.59 1.64-3.92-.98.34 2.87.72-.32.271.93-.94 1.52-5.83-.76 1.19 2.43-.32 1.9-2.17-.34 2.14 1.23-.42 1.34.69-.19.46 1.83 1.31.84-.42.92-1.01-.88-.82.52.78 2.07-1.91 1.03.08 1.25-1.86-.76-.199-2.09-3.721-2.47-.189 2.29-2.32-.77-5.28.78.28-1.71-2.29-1.74-1.96-.17.061-4.49-1.48.17L80.89 99l-2.68.59-1.4-.98-.88-2.51-1.76.54-.47 1.21-2.37-.43-3.551-4.34-1.75.11-.819-.9.28-2.2-1.83-.2.189-2.24-1.87-.5-.21-2.08 1.41-1.46 3.47.09L68 82.15l-3.141-1.24-2.81-3.18-.47-2.08-1.471-1.12.73-.2-.85-3.18-1.761-1.39.42-2.75-4.42-3.39-1.45-4.21H51.05l-.3-2.22 1.6-1.92.601-2.73-1.79-1.47.68-1.98-1.69-.77-.069-.81 1.989.33-1.34-2.5.9-1.64-1.91-2.29 2.39-1.61 3.49-.72.391 1.5 4.05.41-1.03 2.21 3.9.57 4.22-4.64 6.63-4.53-.77-2.86 1.449-3.16 1.65-1.22 8.229-1.1 4.351 1.05 2.26-1.61.65.87 2.529-.77 1.57.78 4.43-2.98 4.46-.48zm301.68 234.19l15.55-4.3 9.18 2.16 2.88-.69-1.66-6.88 1.11-.32.6-4.54-2.16.38.19-4.62-.94.04-.34-1.36-1.47.68-.51-2.55 3.85-.9-.359-2.54-1.24.09-.68-1.6-.24-1.78 1.2-.26-.671-3.93 1.99.11-.01 2.02 2.52.04 3.761-2.1 6.45-.66 7.67 2.53.13.91 6.16-3.16 1.3 2.18 2.16-.17.279 1.6 5.11-1.32.33 2.36 2.6-.6.44 1.75-1.07.41 1.24 2.2-.65.63.721-.25.38 1.77.819-.54.66 1.9-.42 1.91h-1.52l.12.91 4.02-.59.1 1.36 2.341.01.39.77 1.74-.25-.03-.98 4.49.84 4.22-1.2.79.33-.65 2.8 2.801-.39 1.42 5.75 2.63-.28-2.47 1.32.22 1.39 1.31-.21-.59 1.33 2.8-.76 2.2 3.8 1.76-1.41 1.91 1.81.69-.74 1.819 3.05 2.66 1.9.8-1.479 2.16.8-1.39 5.64-1.34.68-.86-1.93-.979.25.449 1.75-2.79 1.93-3.79-.85 1.24 5.81-3.689.11 4.97 3.521.38 1.91-.9.55 4.73 1.92-1.16 1.64 1.7 1.32-4.03 2.55 1.42 2.25-5.34 3.34-4.74 8.99-.689-.03 2.82-3.34-.69-1.52-3.17-2.34-3.48.12-8.029 3.44-6.011 9.14-2.79 1.61 4.771-5.22-.85-2.8-1.57-.93-5.5.15-5.021 1.15-4.939 2.88-4.53 4.9-4.86 2.35-9.239 14.32-6.391 3.16 1.38-2.95 6.221-2.26 4.85-8.4-1.25 1.23-1.86-1.1.2-3.89-2.02-1.14-1.101-1.37.341-.95-.96.56 1.63 4.97-3.62 4.53-.97.09-.61-8.94-3.72-1.45-1.801.271-.029-2.95-4.53.72-1.47-3.28 1.439-.41-.319-2.81-3.811-.21-.27-1.82 3.729-1.17.96-1.56-.27-2.12 2.04-.31-.41-2.67-1.73.15-.58-4.06-3.859-.521-1.09-2.52-.761.1-.479-4.17-1.11.1-.979-7 1.31-.24-.12-.81-1.239-.63-.341-1.66 1.24-1.15-3.42.67-.45 1.79-2.45-.15-.77.79-2.2-8.02-3.445-2.182z"/><path d="M207.17 41.57l.85-.12 2.11 2.66.35 1.91 3.891-2.94 2.909 1.24 3.44.1-.92.44.75-.01 1 6.13 1.82-1.02.52 2.76.98-1.979-.681-1.89 2.101-3.96 2.84-1.53 3.06.78 3.67-4.18 2-.09 1.511 4.34 1.42.34-.2 3.83.7 1.85 1.229.39.57 4.1 1.31-.34 1.2.32.15 2.98-1.46 2.71-2.96.48.92 4.56.79 2.83 1.029-1.69 5.4 5.28-1.55 2.39.43 2.03-2.12-.4-.05 1.94 3.43 3.77-.46 2.28 1.66 1.24-1.84-.03.55 2.08 2.101.17.88 2.24-5.15 5.84 1.99 2.43-1.48 3.14 1.521.76.14 1.51-.899.67-.94-.59-.229.94 1.71.73-1.92 1.21.529.83 1.021-.69 2.33-.44 1.09 1.34.04 1.15 1.58.31-.4 2.14 2.29.26-.17 2.36-.78.3 1.23 2.33-1.891 2.54 1.61 1.53-1.479 2.53 1.59 1.86-.66 1.95 1.99 4.57-2.141 1.68.8.44-1.479 2.09-3.771 2.35-1.109-.81-.851 1.68-1.55-.11.83 2.25-.79 1.79.3.81 1.591.02.35 3.28-3.3-.46-.9 1.94-.84-.43-.49.76-2.109-.72-.15 2-1.08-.67-4.14.99-4.38-.68.67-1.94-2.16-2.34 1.89-3.03-2.08-2.38.9-1.11-.53-1.95-2.689-2.5-.96 1.46-3.07.91-.69 2.4-3.75-.82-1.76 2.021-1.45-2.3-1.46.57-2.08-.77-1.51 2.229-4.44-1.729-.729 1.4-5.2.84-3.899-.44-4.15 1.68-1.51 1.05-2.931-2.21.86-1.68-2.36.26-1.229-2.21.13-2.78-2.67-.62.91-2.37-.87-3.29 2.12.33 1.04-1.7 1.33.02-.431-2.13-1.76-.5.9-1.49-.33-1.57 1.64-.73-.58-1.83-1.35 1.16-.9-4.55-2.649 1.64-4.351-3.33.97-.47-1.189-1.22-2.28-.49.08-1.97-2.32-1.4 1.66-5.2-1.08.08-2.46-3.77 1.2-.25-.05-2-1.33-.99.41-2.02 1.42-.7 1.06-2.49-1.39-4.11.72-5.26-1.3-1.15.68-1.45-1.33-2.95.91-.43-.09-1.19 3.57-.67-.17-1.93 1.439-.98.301-3.16 3.359-4.4-1.14-3.93 1.819-.38.891-1.34-.021-1.41-.909-.43.449-4.08.95-.03-.149 1.07 1.819 1.68 1.05-.01-1.119-1.49-.051-2.64 3.061-1.09-.21-1.01 3.27 2.22 1.34-3.05 1.67-.58-.97-4.04 1.07-.75 2.07.76.239 2.1 1.92-.88-1.22 1.93 5.39-1.05 2.49-3.74 2.87-1.95-.015 3.318z"/></g></svg>