<?xml version="1.0" encoding="utf-8"?>
<!-- Generator: Adobe Illustrator 16.0.0, SVG Export Plug-In . SVG Version: 6.00 Build 0)  -->
<!DOCTYPE svg PUBLIC "-//W3C//DTD SVG 1.1//EN" "http://www.w3.org/Graphics/SVG/1.1/DTD/svg11.dtd">
<svg version="1.1" id="Шар_1" xmlns="http://www.w3.org/2000/svg" xmlns:xlink="http://www.w3.org/1999/xlink" x="0px" y="0px"
	 width="13.001px" height="11.842px" viewBox="0 0 13.001 11.842" enable-background="new 0 0 13.001 11.842" xml:space="preserve">
<path fill="#000100" d="M12.814,5.457L7.526,0.168c-0.226-0.224-0.69-0.224-0.916,0C6.491,0.288,6.425,0.45,6.425,0.626
	S6.491,0.964,6.61,1.084l4.176,4.176H0.654C0.294,5.26,0,5.553,0,5.914c0,0.361,0.294,0.655,0.654,0.655h10.132L6.61,10.745
	c-0.248,0.247-0.248,0.667,0,0.915c0.242,0.242,0.674,0.242,0.916,0l5.288-5.288C13.062,6.124,13.062,5.705,12.814,5.457z"/>
</svg>
