<?xml version="1.0" encoding="utf-8"?>
<!-- Generator: Adobe Illustrator 16.0.0, SVG Export Plug-In . SVG Version: 6.00 Build 0)  -->
<!DOCTYPE svg PUBLIC "-//W3C//DTD SVG 1.1//EN" "http://www.w3.org/Graphics/SVG/1.1/DTD/svg11.dtd">
<svg version="1.1" id="Шар_1" xmlns="http://www.w3.org/2000/svg" xmlns:xlink="http://www.w3.org/1999/xlink" x="0px" y="0px"
	 width="92px" height="103.386px" viewBox="0 0 92 103.386" enable-background="new 0 0 92 103.386" xml:space="preserve">
<g>
	<path fill="#FFFFFF" d="M69.505,89.75c-6.277,6.276-14.624,9.734-23.501,9.735c-0.001,0-0.002,0-0.003,0
		c-8.879,0-17.231-3.512-23.516-9.887c-6.271-6.36-9.724-14.785-9.724-23.722V30.978c1.104,0.082,2.199,0.439,3.187,1.083
		c8.345,5.446,18.332,7.418,28.122,5.555c7.946-1.514,15.085-5.425,20.572-11.195v5.291c0,8.463,6.389,15.458,14.596,16.427v18.108
		C79.239,75.124,75.782,83.472,69.505,89.75z"/>
	<g>
		<circle fill="#454545" cx="25.814" cy="63.823" r="3.649"/>
		<circle fill="#454545" cx="66.186" cy="63.823" r="3.649"/>
		<path fill="#454545" d="M25.814,52.119c-1.993,0-3.867,0.777-5.277,2.187c-0.762,0.762-0.762,1.995,0,2.757s1.996,0.762,2.758,0
			c0.673-0.673,1.567-1.044,2.52-1.044s1.847,0.371,2.52,1.044c0.381,0.381,0.879,0.571,1.379,0.571c0.499,0,0.997-0.19,1.378-0.571
			c0.762-0.762,0.762-1.995,0-2.757C29.682,52.896,27.808,52.119,25.814,52.119z"/>
		<path fill="#454545" d="M60.909,54.306c-0.762,0.762-0.762,1.995,0,2.757c0.761,0.762,1.995,0.762,2.756,0
			c1.39-1.39,3.651-1.39,5.04,0c0.38,0.381,0.88,0.571,1.379,0.571s0.998-0.19,1.378-0.571c0.762-0.762,0.762-1.995,0-2.757
			C68.554,51.396,63.819,51.396,60.909,54.306z"/>
		<path fill="#454545" d="M49.755,79.315c-1.003,1.004-2.337,1.556-3.755,1.556c-1.419,0-2.751-0.552-3.755-1.556
			c-0.762-0.76-1.995-0.76-2.756,0c-0.762,0.762-0.762,1.996,0,2.758c1.738,1.738,4.051,2.697,6.511,2.697s4.772-0.959,6.512-2.697
			c0.762-0.762,0.762-1.996,0-2.758C51.75,78.556,50.517,78.556,49.755,79.315z"/>
	</g>
	<path fill="#454545" d="M92,61.941c0-5.296-3.828-9.711-8.862-10.633V18.695c0-4.231-2.104-8.154-5.63-10.493
		c-3.312-2.196-7.423-2.695-11.14-1.386l-12.24-4.154c-9.405-3.192-19.305-3.52-28.629-0.947
		C13.292,5.083,6.294,12.205,5.213,22.329c-0.956,1.261-1.716,2.677-2.231,4.205l-0.95,2.81c-0.509,1.509,0.053,3.094,1.398,3.946
		c1.346,0.851,3.02,0.678,4.164-0.429c0.392-0.379,0.818-0.698,1.269-0.964V51.31C3.828,52.23,0,56.646,0,61.941
		c0,5.508,4.141,10.064,9.472,10.726c1.34,7.393,4.856,14.212,10.236,19.67c7.023,7.124,16.36,11.049,26.292,11.049
		c0.001,0,0.002,0,0.003,0c9.919-0.002,19.244-3.865,26.257-10.879c5.479-5.478,9.035-12.366,10.33-19.848
		C87.891,71.97,92,67.428,92,61.941z M75.352,11.451c2.471,1.639,3.887,4.279,3.887,7.244v25.512
		c-6.051-0.94-10.696-6.186-10.696-12.496L68.38,10.275C70.761,9.647,73.243,10.053,75.352,11.451z M6.296,28.903l0.38-1.122
		c0.992-2.938,3.196-5.322,6.047-6.542c2.851-1.221,6.098-1.17,8.908,0.139c5.904,2.75,13.041,1.264,17.355-3.614l0.483-0.546
		c0.713-0.806,0.639-2.039-0.169-2.751c-0.807-0.714-2.038-0.638-2.752,0.168l-0.483,0.546c-3.179,3.594-8.438,4.69-12.788,2.664
		c-3.815-1.777-8.221-1.846-12.09-0.189c-0.352,0.151-0.694,0.319-1.031,0.496c2.266-6.042,7.751-10.296,16.38-12.677
		c8.568-2.364,17.676-2.06,26.34,0.881l11.604,3.939l0.152,10.074c-5.167,7.025-12.704,11.782-21.292,13.417
		c-8.794,1.675-17.766-0.097-25.262-4.989C14.415,26.405,9.798,26.507,6.296,28.903z M3.899,61.941c0-3.134,2.098-5.786,4.963-6.631
		v10.566c0,0.913,0.032,1.821,0.097,2.723C6.045,67.788,3.899,65.112,3.899,61.941z M69.504,89.75
		c-6.277,6.276-14.623,9.734-23.501,9.735c-0.001,0-0.001,0-0.003,0c-8.879,0-17.23-3.512-23.515-9.887
		c-6.271-6.36-9.724-14.785-9.724-23.722V30.978c1.104,0.082,2.199,0.439,3.186,1.083c8.346,5.446,18.333,7.418,28.122,5.555
		c7.946-1.514,15.085-5.425,20.572-11.195v5.291c0,8.463,6.389,15.458,14.597,16.427v18.108
		C79.238,75.124,75.781,83.472,69.504,89.75z M83.062,68.593c0.048-0.778,0.075-1.561,0.075-2.347V55.311
		c2.865,0.845,4.963,3.497,4.963,6.631C88.101,65.103,85.966,67.774,83.062,68.593z"/>
	<g>
		<path fill="#FFEF2B" d="M75.269,11.451c2.471,1.639,3.887,4.279,3.887,7.244v25.512c-6.051-0.94-10.696-6.186-10.696-12.496
			l-0.162-21.436C70.678,9.647,73.16,10.053,75.269,11.451z"/>
		<path fill="#FFEF2B" d="M6.213,28.903l0.379-1.122c0.993-2.938,3.197-5.322,6.048-6.542c2.85-1.221,6.098-1.17,8.908,0.139
			c5.904,2.75,13.041,1.264,17.355-3.614l0.483-0.546c0.714-0.806,0.638-2.039-0.169-2.751c-0.807-0.714-2.038-0.638-2.752,0.168
			l-0.482,0.546c-3.18,3.594-8.438,4.69-12.789,2.664c-3.814-1.777-8.222-1.846-12.09-0.189c-0.352,0.151-0.694,0.319-1.031,0.496
			c2.266-6.042,7.751-10.296,16.38-12.677c8.568-2.364,17.676-2.06,26.34,0.881l11.604,3.939l0.152,10.074
			c-5.167,7.025-12.703,11.782-21.292,13.417c-8.794,1.675-17.766-0.097-25.262-4.989C14.332,26.405,9.715,26.507,6.213,28.903z"/>
	</g>
</g>
</svg>
