<?xml version="1.0" encoding="utf-8"?>
<!-- Generator: Adobe Illustrator 16.0.0, SVG Export Plug-In . SVG Version: 6.00 Build 0)  -->
<!DOCTYPE svg PUBLIC "-//W3C//DTD SVG 1.1//EN" "http://www.w3.org/Graphics/SVG/1.1/DTD/svg11.dtd">
<svg version="1.1" id="Шар_1" xmlns="http://www.w3.org/2000/svg" xmlns:xlink="http://www.w3.org/1999/xlink" x="0px" y="0px"
	 width="104px" height="104.001px" viewBox="0 0 104 104.001" enable-background="new 0 0 104 104.001" xml:space="preserve">
<g>
	<g>
		<path fill="#454545" d="M102.07,66.022c0.003-0.009-0.001-0.02,0.003-0.028C103.318,61.538,104,56.849,104,52
			c0-4.849-0.682-9.538-1.927-13.994c-0.003-0.009,0.001-0.02-0.003-0.029c-0.004-0.014-0.014-0.023-0.018-0.035
			c-0.468-1.663-1.016-3.289-1.638-4.879v-0.59c0-0.647-0.361-1.187-0.874-1.503c-0.631-1.42-1.317-2.806-2.069-4.157
			c0.314,0.268,0.705,0.446,1.149,0.446c0.99,0,1.794-0.802,1.794-1.794v-1.751c0-0.992-0.804-1.794-1.794-1.794
			s-1.793,0.802-1.793,1.794v1.751c0,0.108,0.043,0.199,0.062,0.301c-0.128-0.217-0.261-0.428-0.392-0.644
			c-0.023-0.04-0.047-0.079-0.071-0.117c-0.124-0.202-0.242-0.409-0.37-0.609c-0.018-0.029-0.048-0.043-0.066-0.07
			c-1.167-1.851-2.44-3.628-3.825-5.311c-0.012-0.019-0.016-0.038-0.028-0.056c-0.355-0.432-0.718-0.858-1.088-1.278
			c-0.027-0.031-0.065-0.043-0.094-0.072c-1.431-1.62-2.96-3.148-4.581-4.578c-0.027-0.027-0.038-0.063-0.067-0.088
			c-0.42-0.367-0.846-0.729-1.275-1.083c-0.012-0.011-0.029-0.012-0.043-0.022c-1.688-1.389-3.469-2.663-5.322-3.833
			c-0.026-0.02-0.041-0.048-0.072-0.068c-0.196-0.124-0.399-0.242-0.599-0.362c-0.037-0.023-0.074-0.047-0.115-0.07
			c-0.217-0.132-0.437-0.269-0.657-0.397c0.113,0.02,0.217,0.064,0.337,0.064h1.753c0.988,0,1.792-0.801,1.792-1.792
			c0-0.992-0.804-1.793-1.792-1.793H78.56c-0.99,0-1.793,0.802-1.793,1.793c0,0.453,0.183,0.855,0.459,1.171
			c-1.361-0.759-2.761-1.454-4.193-2.091c-0.315-0.514-0.857-0.874-1.503-0.874h-0.59c-1.592-0.626-3.221-1.172-4.885-1.641
			c-0.012-0.001-0.018-0.01-0.031-0.014c-0.006-0.001-0.016,0-0.023,0C61.543,0.682,56.851,0,52,0s-9.543,0.682-14,1.931
			c-0.01,0.002-0.016,0-0.023,0c-0.011,0.002-0.019,0.011-0.03,0.014c-1.664,0.469-3.292,1.015-4.884,1.641h-0.591
			c-0.647,0-1.187,0.36-1.503,0.874c-1.42,0.631-2.806,1.318-4.156,2.069c0.267-0.314,0.444-0.705,0.444-1.149
			c0-0.992-0.803-1.793-1.793-1.793h-1.752c-0.989,0-1.793,0.802-1.793,1.793c0,0.991,0.804,1.792,1.793,1.792h1.752
			c0.108,0,0.201-0.043,0.304-0.061c-0.212,0.124-0.42,0.254-0.629,0.38c-0.052,0.031-0.1,0.06-0.149,0.09
			c-0.199,0.122-0.4,0.239-0.598,0.361c-0.028,0.018-0.043,0.046-0.069,0.066c-1.851,1.17-3.629,2.444-5.315,3.831
			c-0.015,0.011-0.032,0.014-0.047,0.025c-0.431,0.354-0.858,0.716-1.278,1.088c-0.029,0.027-0.041,0.061-0.066,0.088
			c-1.62,1.432-3.152,2.962-4.583,4.583c-0.026,0.029-0.062,0.04-0.089,0.068c-0.37,0.42-0.732,0.846-1.089,1.278
			c-0.013,0.016-0.015,0.036-0.026,0.052c-1.385,1.682-2.656,3.461-3.823,5.31c-0.02,0.028-0.053,0.045-0.07,0.075
			c-0.129,0.206-0.251,0.416-0.376,0.624c-0.015,0.02-0.027,0.041-0.04,0.062c-0.138,0.229-0.277,0.454-0.412,0.684
			c0.021-0.111,0.066-0.216,0.066-0.335v-1.751c0-0.992-0.804-1.794-1.794-1.794c-0.989,0-1.792,0.802-1.792,1.794v1.751
			c0,0.992,0.803,1.793,1.792,1.793c0.454,0,0.856-0.184,1.172-0.459c-0.759,1.362-1.454,2.761-2.091,4.194
			c-0.513,0.316-0.873,0.857-0.873,1.503v0.59c-0.624,1.59-1.173,3.219-1.64,4.879c-0.004,0.014-0.014,0.023-0.018,0.036
			c-0.002,0.009,0.002,0.02-0.002,0.029C0.682,42.463,0,47.152,0,52c0,4.848,0.682,9.538,1.928,13.994
			c0.002,0.009-0.002,0.02,0.002,0.028c0.004,0.016,0.014,0.029,0.02,0.045c0.466,1.658,1.014,3.283,1.638,4.872v0.59
			c0,0.647,0.36,1.187,0.873,1.503c0.631,1.42,1.318,2.807,2.069,4.156c-0.314-0.268-0.707-0.444-1.15-0.444
			c-0.989,0-1.792,0.801-1.792,1.792v1.753c0,0.991,0.803,1.793,1.792,1.793c0.99,0,1.794-0.802,1.794-1.793v-1.753
			c0-0.105-0.043-0.197-0.061-0.299c0.132,0.226,0.271,0.448,0.406,0.671c0.013,0.021,0.025,0.043,0.04,0.064
			c0.129,0.212,0.253,0.425,0.384,0.632c0.028,0.047,0.069,0.081,0.102,0.124c1.158,1.831,2.419,3.593,3.791,5.26
			c0.013,0.019,0.016,0.038,0.028,0.056c0.357,0.432,0.72,0.859,1.088,1.278c0.025,0.028,0.062,0.038,0.089,0.064
			c1.433,1.623,2.964,3.152,4.587,4.585c0.026,0.026,0.037,0.063,0.068,0.088c0.419,0.367,0.844,0.729,1.273,1.083
			c0.015,0.013,0.035,0.017,0.049,0.027c1.686,1.386,3.465,2.659,5.316,3.828c0.027,0.021,0.042,0.049,0.072,0.068
			c0.197,0.124,0.399,0.241,0.599,0.362c0.038,0.023,0.076,0.046,0.115,0.069c0.219,0.132,0.436,0.27,0.657,0.398
			c-0.113-0.023-0.217-0.067-0.337-0.067h-1.751c-0.99,0-1.794,0.801-1.794,1.792s0.804,1.794,1.794,1.794h1.751
			c0.99,0,1.794-0.803,1.794-1.794c0-0.452-0.184-0.855-0.46-1.171c1.361,0.759,2.762,1.454,4.194,2.091
			c0.316,0.514,0.857,0.874,1.503,0.874h0.591c1.592,0.625,3.22,1.172,4.884,1.641c0.011,0.001,0.018,0.01,0.03,0.014
			s0.023,0.002,0.036,0.004c4.454,1.246,9.141,1.928,13.987,1.928s9.534-0.682,13.988-1.928c0.012-0.002,0.023-0.002,0.035-0.004
			s0.019-0.011,0.031-0.014c1.664-0.469,3.293-1.016,4.885-1.641h0.59c0.646,0,1.188-0.36,1.503-0.874
			c1.42-0.631,2.808-1.317,4.155-2.069c-0.267,0.314-0.444,0.705-0.444,1.149c0,0.991,0.803,1.794,1.793,1.794h1.753
			c0.989,0,1.792-0.803,1.792-1.794s-0.803-1.792-1.792-1.792h-1.753c-0.106,0-0.2,0.043-0.302,0.061
			c0.211-0.124,0.419-0.256,0.629-0.381c0.05-0.03,0.098-0.06,0.148-0.09c0.199-0.122,0.4-0.238,0.597-0.36
			c0.028-0.018,0.043-0.046,0.07-0.065c1.849-1.168,3.627-2.439,5.31-3.823c0.016-0.013,0.037-0.019,0.053-0.03
			c0.433-0.355,0.86-0.718,1.279-1.089c0.029-0.025,0.039-0.062,0.066-0.088c1.622-1.435,3.154-2.968,4.589-4.591
			c0.025-0.025,0.059-0.034,0.082-0.061c0.369-0.419,0.731-0.847,1.088-1.278c0.014-0.017,0.015-0.036,0.027-0.052
			c1.372-1.668,2.632-3.429,3.792-5.26c0.031-0.043,0.072-0.077,0.102-0.123c0.129-0.207,0.251-0.416,0.376-0.624
			c0.013-0.022,0.027-0.043,0.039-0.065c0.139-0.228,0.279-0.453,0.413-0.683c-0.022,0.11-0.066,0.214-0.066,0.333v1.752
			c0,0.992,0.803,1.794,1.793,1.794s1.794-0.802,1.794-1.794V78.56c0-0.991-0.804-1.793-1.794-1.793
			c-0.454,0-0.854,0.184-1.172,0.459c0.76-1.361,1.456-2.761,2.092-4.193c0.513-0.316,0.874-0.857,0.874-1.503v-0.59
			c0.622-1.587,1.169-3.212,1.636-4.872C102.055,66.052,102.066,66.04,102.07,66.022z M93.37,77.124
			c-4.03,6.612-9.599,12.186-16.207,16.222c-0.056,0.034-0.113,0.068-0.168,0.103c-3.157,1.909-6.551,3.465-10.123,4.619l-5-20.004
			c7.446-2.832,13.361-8.747,16.192-16.194l20.004,5.002c-1.162,3.588-2.722,6.998-4.646,10.169
			C93.405,77.066,93.389,77.095,93.37,77.124z M26.99,93.438c-0.045-0.026-0.09-0.054-0.135-0.081
			c-6.61-4.034-12.186-9.611-16.219-16.224c-0.021-0.034-0.043-0.069-0.062-0.104c-1.921-3.166-3.48-6.573-4.641-10.157
			l20.004-5.002c2.83,7.447,8.746,13.362,16.193,16.194L37.13,98.067C33.551,96.909,30.151,95.353,26.99,93.438z M10.63,26.877
			c4.031-6.612,9.601-12.186,16.208-16.222c0.055-0.034,0.112-0.068,0.169-0.103c3.155-1.909,6.55-3.464,10.121-4.619l5.002,20.004
			c-7.447,2.832-13.362,8.747-16.194,16.194L5.932,37.13c1.162-3.588,2.722-6.998,4.646-10.169
			C10.596,26.935,10.611,26.906,10.63,26.877z M24.88,45.562C24.389,47.632,24.1,49.78,24.1,52s0.289,4.369,0.78,6.439L4.96,63.419
			C4.068,59.756,3.587,55.935,3.587,52s0.481-7.755,1.373-11.418L24.88,45.562z M27.686,52c0-13.408,10.907-24.315,24.314-24.315
			S76.314,38.593,76.314,52S65.407,76.315,52,76.315S27.686,65.408,27.686,52z M77.011,10.563c0.044,0.027,0.09,0.054,0.134,0.081
			c6.604,4.031,12.173,9.597,16.202,16.198c0.033,0.055,0.065,0.106,0.096,0.158c1.912,3.157,3.467,6.554,4.623,10.128L78.061,42.13
			c-2.828-7.447-8.746-13.363-16.192-16.194l5.001-20.004C70.449,7.092,73.849,8.648,77.011,10.563z M100.415,52
			c0,3.934-0.483,7.755-1.375,11.418l-19.919-4.979c0.491-2.07,0.78-4.219,0.78-6.439s-0.289-4.369-0.78-6.439l19.919-4.979
			C99.932,44.245,100.415,48.066,100.415,52z M63.418,4.96l-4.979,19.922C56.368,24.388,54.22,24.1,52,24.1s-4.367,0.289-6.438,0.78
			L40.582,4.958C44.246,4.07,48.066,3.586,52,3.586C55.935,3.586,59.756,4.07,63.418,4.96z M40.582,99.041l4.979-19.922
			c2.071,0.491,4.219,0.78,6.438,0.78s4.368-0.289,6.438-0.78l4.979,19.922c-3.662,0.89-7.483,1.374-11.418,1.374
			C48.066,100.415,44.246,99.931,40.582,99.041z"/>
		<path fill="#454545" d="M7.098,10.111c0.523,0,1.045-0.229,1.398-0.668c0.285-0.355,0.608-0.678,0.957-0.956
			c0.775-0.619,0.902-1.747,0.285-2.52C9.12,5.191,7.992,5.064,7.218,5.681C6.661,6.126,6.15,6.633,5.7,7.194
			C5.08,7.965,5.202,9.096,5.975,9.716C6.305,9.98,6.701,10.111,7.098,10.111z"/>
		<path fill="#454545" d="M5.379,18.477c0.99,0,1.794-0.802,1.794-1.793V14.93c0-0.992-0.804-1.793-1.794-1.793
			c-0.989,0-1.792,0.801-1.792,1.793v1.753C3.587,17.673,4.39,18.477,5.379,18.477z"/>
		<path fill="#454545" d="M14.952,7.172h1.753c0.99,0,1.793-0.801,1.793-1.792c0-0.992-0.803-1.793-1.793-1.793h-1.753
			c-0.989,0-1.792,0.802-1.792,1.793C13.16,6.371,13.963,7.172,14.952,7.172z"/>
		<path fill="#454545" d="M96.828,14.953v1.753c0,0.992,0.803,1.793,1.793,1.793s1.794-0.802,1.794-1.793v-1.753
			c0-0.992-0.804-1.793-1.794-1.793S96.828,13.961,96.828,14.953z"/>
		<path fill="#454545" d="M95.515,9.452c0.355,0.445,0.877,0.676,1.404,0.676c0.393,0,0.786-0.127,1.118-0.392
			c0.773-0.618,0.901-1.746,0.284-2.519c-0.445-0.56-0.955-1.07-1.516-1.521c-0.77-0.617-1.9-0.495-2.521,0.276
			c-0.62,0.773-0.496,1.903,0.276,2.521C94.913,8.779,95.233,9.101,95.515,9.452z"/>
		<path fill="#454545" d="M87.317,7.172h1.752c0.989,0,1.793-0.801,1.793-1.792c0-0.992-0.804-1.793-1.793-1.793h-1.752
			c-0.99,0-1.793,0.802-1.793,1.793C85.524,6.371,86.327,7.172,87.317,7.172z"/>
		<path fill="#454545" d="M95.507,94.558c-0.285,0.355-0.608,0.678-0.957,0.956c-0.775,0.619-0.903,1.747-0.286,2.521
			c0.354,0.443,0.877,0.675,1.403,0.675c0.394,0,0.786-0.127,1.118-0.391c0.558-0.444,1.068-0.952,1.52-1.513
			c0.62-0.773,0.497-1.903-0.275-2.521C97.257,93.667,96.127,93.79,95.507,94.558z"/>
		<path fill="#454545" d="M89.048,96.829h-1.753c-0.988,0-1.792,0.801-1.792,1.792s0.804,1.794,1.792,1.794h1.753
			c0.99,0,1.792-0.803,1.792-1.794S90.038,96.829,89.048,96.829z"/>
		<path fill="#454545" d="M98.621,85.524c-0.99,0-1.793,0.802-1.793,1.793v1.754c0,0.992,0.803,1.793,1.793,1.793
			s1.794-0.801,1.794-1.793v-1.754C100.415,86.327,99.611,85.524,98.621,85.524z"/>
		<path fill="#454545" d="M16.684,96.829h-1.752c-0.99,0-1.793,0.801-1.793,1.792s0.803,1.794,1.793,1.794h1.752
			c0.989,0,1.793-0.803,1.793-1.794S17.673,96.829,16.684,96.829z"/>
		<path fill="#454545" d="M7.173,89.048v-1.754c0-0.991-0.804-1.793-1.794-1.793c-0.989,0-1.792,0.802-1.792,1.793v1.754
			c0,0.992,0.803,1.793,1.792,1.793C6.369,90.841,7.173,90.04,7.173,89.048z"/>
		<path fill="#454545" d="M8.485,94.55c-0.619-0.777-1.746-0.9-2.52-0.285c-0.774,0.618-0.901,1.746-0.285,2.519
			c0.446,0.56,0.956,1.07,1.516,1.521c0.331,0.264,0.728,0.395,1.12,0.395c0.523,0,1.046-0.229,1.398-0.67
			c0.62-0.773,0.497-1.903-0.275-2.521C9.088,95.222,8.767,94.9,8.485,94.55z"/>
	</g>
	<g>
		<path fill="#FFEF2B" d="M93.37,77.124c-4.03,6.612-9.6,12.186-16.207,16.222c-0.056,0.034-0.113,0.068-0.169,0.103
			c-3.156,1.909-6.55,3.465-10.122,4.619l-5.001-20.004c7.447-2.832,13.362-8.747,16.193-16.194l20.004,5.002
			c-1.162,3.588-2.722,6.998-4.646,10.169C93.405,77.066,93.389,77.095,93.37,77.124z"/>
		<path fill="#FFEF2B" d="M26.989,93.438c-0.044-0.026-0.089-0.054-0.134-0.081c-6.611-4.034-12.187-9.611-16.219-16.224
			c-0.021-0.034-0.043-0.069-0.062-0.104c-1.921-3.166-3.48-6.573-4.642-10.157l20.004-5.002c2.83,7.447,8.747,13.362,16.194,16.194
			L37.13,98.067C33.551,96.909,30.151,95.353,26.989,93.438z"/>
		<path fill="#FFEF2B" d="M10.63,26.877c4.031-6.612,9.6-12.186,16.207-16.222c0.056-0.034,0.113-0.068,0.169-0.103
			c3.156-1.909,6.55-3.464,10.122-4.619l5.001,20.004c-7.447,2.832-13.362,8.747-16.193,16.194L5.932,37.13
			c1.162-3.588,2.722-6.998,4.646-10.169C10.596,26.935,10.611,26.906,10.63,26.877z"/>
		<path fill="#FFEF2B" d="M24.879,45.562C24.388,47.632,24.1,49.78,24.1,52s0.288,4.369,0.779,6.439L4.96,63.419
			C4.068,59.756,3.586,55.935,3.586,52s0.482-7.755,1.374-11.418L24.879,45.562z"/>
		<path fill="#FFEF2B" d="M77.011,10.563c0.044,0.027,0.089,0.054,0.134,0.081c6.604,4.031,12.173,9.597,16.202,16.198
			c0.033,0.055,0.065,0.106,0.096,0.158c1.912,3.157,3.467,6.554,4.623,10.128L78.061,42.13
			c-2.829-7.447-8.746-13.363-16.192-16.194l5.001-20.004C70.449,7.092,73.849,8.648,77.011,10.563z"/>
		<path fill="#FFEF2B" d="M100.415,52c0,3.934-0.483,7.755-1.375,11.418l-19.919-4.979c0.491-2.07,0.78-4.219,0.78-6.439
			s-0.289-4.369-0.78-6.439l19.919-4.979C99.932,44.245,100.415,48.066,100.415,52z"/>
		<path fill="#FFEF2B" d="M63.418,4.96l-4.979,19.922C56.368,24.388,54.22,24.1,52,24.1s-4.368,0.289-6.438,0.78L40.582,4.958
			C44.245,4.07,48.066,3.586,52,3.586S59.755,4.07,63.418,4.96z"/>
		<path fill="#FFEF2B" d="M40.582,99.041l4.979-19.922c2.07,0.491,4.219,0.78,6.438,0.78s4.368-0.289,6.438-0.78l4.979,19.922
			c-3.663,0.89-7.484,1.374-11.418,1.374S44.245,99.931,40.582,99.041z"/>
	</g>
</g>
</svg>
