<?xml version="1.0" encoding="utf-8"?>
<!-- Generator: Adobe Illustrator 16.0.0, SVG Export Plug-In . SVG Version: 6.00 Build 0)  -->
<!DOCTYPE svg PUBLIC "-//W3C//DTD SVG 1.1//EN" "http://www.w3.org/Graphics/SVG/1.1/DTD/svg11.dtd">
<svg version="1.1" id="Шар_1" xmlns="http://www.w3.org/2000/svg" xmlns:xlink="http://www.w3.org/1999/xlink" x="0px" y="0px"
	 width="18.001px" height="16.316px" viewBox="0 0 18.001 16.316" enable-background="new 0 0 18.001 16.316" xml:space="preserve">
<path fill="#1D1D1B" d="M7.769,16.164L0.165,8.561c-0.22-0.22-0.22-0.606,0-0.827L7.769,0.13c0.175-0.174,0.654-0.174,0.829,0.001
	c0.105,0.106,0.163,0.252,0.163,0.412c0,0.16-0.058,0.308-0.165,0.413L2.001,7.552h15.404c0.327,0,0.596,0.267,0.596,0.595
	c0,0.328-0.269,0.595-0.596,0.595H2.001l6.596,6.596c0.22,0.221,0.22,0.607-0.001,0.827C8.395,16.367,7.973,16.367,7.769,16.164z"/>
</svg>
