<?xml version="1.0" encoding="utf-8"?>
<!-- Generator: Adobe Illustrator 16.0.0, SVG Export Plug-In . SVG Version: 6.00 Build 0)  -->
<!DOCTYPE svg PUBLIC "-//W3C//DTD SVG 1.1//EN" "http://www.w3.org/Graphics/SVG/1.1/DTD/svg11.dtd">
<svg version="1.1" id="Шар_1" xmlns="http://www.w3.org/2000/svg" xmlns:xlink="http://www.w3.org/1999/xlink" x="0px" y="0px"
	 width="26px" height="26px" viewBox="0 0 26 26" enable-background="new 0 0 26 26" xml:space="preserve">
<g>
	<path fill="#1D1D1B" d="M18.825,0H7.175C3.219,0,0,3.219,0,7.175v11.651C0,22.781,3.219,26,7.175,26h11.65
		C22.782,26,26,22.781,26,18.826V7.175C26,3.219,22.782,0,18.825,0z M23.694,18.826c0,2.684-2.186,4.867-4.869,4.867H7.175
		c-2.685,0-4.868-2.184-4.868-4.867V7.175c0-2.684,2.184-4.868,4.868-4.868h11.65c2.684,0,4.867,2.184,4.867,4.868v11.651H23.694z"
		/>
	<path fill="#1D1D1B" d="M13,6.301c-3.694,0-6.7,3.005-6.7,6.7S9.306,19.7,13,19.7c3.694,0,6.7-3.005,6.7-6.699
		S16.694,6.301,13,6.301z M13,17.392c-2.422,0-4.393-1.97-4.393-4.392c0-2.422,1.97-4.393,4.393-4.393
		c2.422,0,4.393,1.971,4.393,4.393C17.393,15.422,15.422,17.392,13,17.392z"/>
	<path fill="#1D1D1B" d="M19.981,4.345c-0.445,0-0.881,0.18-1.195,0.495c-0.316,0.314-0.496,0.75-0.496,1.197
		c0,0.444,0.182,0.881,0.496,1.196c0.314,0.313,0.75,0.495,1.195,0.495s0.881-0.182,1.195-0.495
		c0.316-0.315,0.496-0.752,0.496-1.196c0-0.446-0.18-0.883-0.496-1.197C20.864,4.524,20.426,4.345,19.981,4.345z"/>
</g>
</svg>
