<?xml version="1.0" encoding="utf-8"?>
<!-- Generator: Adobe Illustrator 16.0.0, SVG Export Plug-In . SVG Version: 6.00 Build 0)  -->
<!DOCTYPE svg PUBLIC "-//W3C//DTD SVG 1.1//EN" "http://www.w3.org/Graphics/SVG/1.1/DTD/svg11.dtd">
<svg version="1.1" id="Шар_1" xmlns="http://www.w3.org/2000/svg" xmlns:xlink="http://www.w3.org/1999/xlink" x="0px" y="0px"
	 width="27px" height="30.857px" viewBox="0 0 27 30.857" enable-background="new 0 0 27 30.857" xml:space="preserve">
<g>
	<path fill="#E2574C" d="M1.929,0h16.386L27,8.652v20.277c0,1.065-0.864,1.929-1.929,1.929H1.929C0.864,30.857,0,29.994,0,28.929
		v-27C0,0.863,0.864,0,1.929,0z"/>
	<path fill="#B53629" d="M26.972,8.679H20.25c-1.064,0-1.929-0.864-1.929-1.929V0.02L26.972,8.679z"/>
	<path fill="#FFFFFF" d="M19.766,14.622c0.323,0,0.481-0.282,0.481-0.554c0-0.283-0.165-0.556-0.481-0.556h-1.84
		c-0.359,0-0.56,0.298-0.56,0.627v4.521c0,0.403,0.229,0.626,0.54,0.626c0.309,0,0.538-0.223,0.538-0.626v-1.241h1.113
		c0.346,0,0.518-0.282,0.518-0.562c0-0.275-0.172-0.549-0.518-0.549h-1.113v-1.686H19.766z M13.547,13.512h-1.346
		c-0.365,0-0.625,0.251-0.625,0.623v4.529c0,0.462,0.373,0.606,0.641,0.606h1.412c1.672,0,2.776-1.101,2.776-2.799
		C16.404,14.677,15.365,13.512,13.547,13.512z M13.612,18.153h-0.821v-3.525h0.74c1.119,0,1.606,0.751,1.606,1.788
		C15.138,17.386,14.659,18.153,13.612,18.153z M8.681,13.512H7.347c-0.377,0-0.587,0.249-0.587,0.627v4.521
		c0,0.403,0.241,0.626,0.565,0.626c0.323,0,0.564-0.223,0.564-0.626v-1.32h0.836c1.032,0,1.884-0.731,1.884-1.906
		C10.609,14.283,9.787,13.512,8.681,13.512z M8.658,16.279H7.89v-1.706h0.769c0.475,0,0.776,0.37,0.776,0.854
		C9.434,15.909,9.133,16.279,8.658,16.279z"/>
</g>
</svg>
