<?xml version="1.0" encoding="utf-8"?>
<!-- Generator: Adobe Illustrator 16.0.0, SVG Export Plug-In . SVG Version: 6.00 Build 0)  -->
<!DOCTYPE svg PUBLIC "-//W3C//DTD SVG 1.1//EN" "http://www.w3.org/Graphics/SVG/1.1/DTD/svg11.dtd">
<svg version="1.1" id="Шар_1" xmlns="http://www.w3.org/2000/svg" xmlns:xlink="http://www.w3.org/1999/xlink" x="0px" y="0px"
	 width="14.027px" height="25.948px" viewBox="0 0 14.027 25.948" enable-background="new 0 0 14.027 25.948" xml:space="preserve">
<g>
	<path fill="#1D1D1B" d="M13.5,0.005L10.135,0C6.355,0,3.912,2.506,3.912,6.385V9.33H0.529C0.236,9.33,0,9.567,0,9.859v4.267
		c0,0.292,0.236,0.529,0.529,0.529h3.383v10.764c0,0.292,0.236,0.529,0.529,0.529h4.414c0.291,0,0.527-0.237,0.527-0.529V14.655
		h3.957c0.293,0,0.529-0.237,0.529-0.529l0.002-4.267c0-0.141-0.057-0.274-0.156-0.374c-0.098-0.1-0.234-0.155-0.373-0.155H9.383
		V6.833c0-1.199,0.287-1.809,1.85-1.809L13.5,5.024c0.291,0,0.527-0.236,0.527-0.529V0.534C14.027,0.243,13.791,0.005,13.5,0.005z"
		/>
</g>
</svg>
