<?xml version="1.0" encoding="utf-8"?>
<!-- Generator: Adobe Illustrator 16.0.0, SVG Export Plug-In . SVG Version: 6.00 Build 0)  -->
<!DOCTYPE svg PUBLIC "-//W3C//DTD SVG 1.1//EN" "http://www.w3.org/Graphics/SVG/1.1/DTD/svg11.dtd">
<svg version="1.1" id="Шар_1" xmlns="http://www.w3.org/2000/svg" xmlns:xlink="http://www.w3.org/1999/xlink" x="0px" y="0px"
	 width="22.947px" height="21.927px" viewBox="0 0 22.947 21.927" enable-background="new 0 0 22.947 21.927" xml:space="preserve">
<g>
	<path id="LinkedIn_3_" fill="#1D1D1B" d="M22.947,13.443v8.483h-4.919v-7.915c0-1.988-0.712-3.346-2.491-3.346
		c-1.359,0-2.168,0.915-2.524,1.799c-0.13,0.316-0.162,0.757-0.162,1.199v8.263h-4.92c0,0,0.066-13.406,0-14.795h4.919v2.097
		c-0.01,0.016-0.023,0.032-0.032,0.047h0.032V9.229c0.653-1.007,1.82-2.445,4.434-2.445C20.52,6.784,22.947,8.899,22.947,13.443z
		 M2.783,0C1.101,0,0,1.104,0,2.556c0,1.42,1.068,2.558,2.719,2.558h0.033c1.715,0,2.782-1.137,2.782-2.558
		C5.502,1.104,4.467,0,2.783,0z M0.293,21.927H5.21V7.132H0.293V21.927z"/>
</g>
</svg>
