<?xml version="1.0" encoding="utf-8"?>
<!-- Generator: Adobe Illustrator 16.0.0, SVG Export Plug-In . SVG Version: 6.00 Build 0)  -->
<!DOCTYPE svg PUBLIC "-//W3C//DTD SVG 1.1//EN" "http://www.w3.org/Graphics/SVG/1.1/DTD/svg11.dtd">
<svg version="1.1" id="Шар_1" xmlns="http://www.w3.org/2000/svg" xmlns:xlink="http://www.w3.org/1999/xlink" x="0px" y="0px"
	 width="30px" height="26.365px" viewBox="0 0 30 26.365" enable-background="new 0 0 30 26.365" xml:space="preserve">
<g>
	<g>
		<g>
			<path d="M29.237,18.102c-0.422,0-0.764,0.342-0.764,0.764v2.918c0,1.685-1.371,3.055-3.055,3.055H4.583
				c-1.685,0-3.055-1.37-3.055-3.055v-2.918c0-0.422-0.343-0.764-0.765-0.764C0.343,18.102,0,18.443,0,18.865v2.918
				c0,2.526,2.056,4.582,4.583,4.582h20.835c2.527,0,4.582-2.056,4.582-4.582v-2.918C30,18.443,29.659,18.102,29.237,18.102z"/>
		</g>
	</g>
	<g>
		<g>
			<path d="M24.6,21.11H5.4c-0.421,0-0.764,0.342-0.764,0.764s0.343,0.764,0.764,0.764h19.2c0.422,0,0.764-0.342,0.764-0.764
				S25.022,21.11,24.6,21.11z"/>
		</g>
	</g>
	<g>
		<g>
			<path d="M22.731,10.366c-0.281-0.315-0.766-0.342-1.08-0.061l-5.887,5.259V0.764C15.764,0.342,15.422,0,15,0
				c-0.421,0-0.764,0.341-0.764,0.764v14.801l-5.888-5.259c-0.313-0.281-0.797-0.254-1.078,0.061
				c-0.28,0.314-0.254,0.797,0.061,1.078l6.397,5.714c0.362,0.324,0.817,0.486,1.271,0.486c0.455,0,0.911-0.162,1.272-0.485
				l6.396-5.715C22.985,11.163,23.01,10.681,22.731,10.366z"/>
		</g>
	</g>
</g>
</svg>
