<?xml version="1.0" encoding="utf-8"?>
<!-- Generator: Adobe Illustrator 16.0.0, SVG Export Plug-In . SVG Version: 6.00 Build 0)  -->
<!DOCTYPE svg PUBLIC "-//W3C//DTD SVG 1.1//EN" "http://www.w3.org/Graphics/SVG/1.1/DTD/svg11.dtd">
<svg version="1.1" id="Шар_1" xmlns="http://www.w3.org/2000/svg" xmlns:xlink="http://www.w3.org/1999/xlink" x="0px" y="0px"
	 width="107px" height="24.594px" viewBox="0 0 107 24.594" enable-background="new 0 0 107 24.594" xml:space="preserve">
<path fill="#1D1D1B" d="M106.613,11.333L95.631,0.349c-0.467-0.466-1.434-0.466-1.902,0.001c-0.247,0.248-0.384,0.585-0.384,0.949
	c0,0.365,0.137,0.703,0.386,0.951l8.672,8.673H1.359C0.61,10.923,0,11.533,0,12.283s0.61,1.359,1.359,1.359h101.043l-8.674,8.674
	c-0.514,0.514-0.514,1.386,0,1.901c0.504,0.502,1.399,0.502,1.902,0l10.982-10.983C107.129,12.718,107.129,11.848,106.613,11.333z"
	/>
</svg>
