<?xml version="1.0" encoding="utf-8"?>
<!-- Generator: Adobe Illustrator 16.0.0, SVG Export Plug-In . SVG Version: 6.00 Build 0)  -->
<!DOCTYPE svg PUBLIC "-//W3C//DTD SVG 1.1//EN" "http://www.w3.org/Graphics/SVG/1.1/DTD/svg11.dtd">
<svg version="1.1" id="Шар_1" xmlns="http://www.w3.org/2000/svg" xmlns:xlink="http://www.w3.org/1999/xlink" x="0px" y="0px"
	 width="51px" height="36.425px" viewBox="0 0 51 36.425" enable-background="new 0 0 51 36.425" xml:space="preserve">
<g>
	<path d="M27.609,1.723c-1.922,0.768-4.031,1.76-6.328,2.974c-2.297,1.217-4.443,2.621-6.416,4.216
		c-1.984,1.601-3.719,3.52-5.18,5.754c-1.473,2.237-2.396,4.824-2.783,7.764c1.922,0,3.744,0.48,5.467,1.438s2.584,2.718,2.584,5.27
		c0,2.56-0.699,4.413-2.109,5.561c-1.398,1.152-3.258,1.727-5.555,1.727c-2.172,0-3.932-0.893-5.279-2.684
		C0.674,31.953,0,30.034,0,27.99c0-3.707,0.961-7.062,2.883-10.066c1.91-3.002,4.244-5.717,6.99-8.147
		c2.746-2.428,5.717-4.472,8.912-6.135C21.98,1.981,24.863,0.765,27.422,0L27.609,1.723z"/>
	<path d="M51,1.723c-1.922,0.768-4.031,1.76-6.328,2.974c-2.303,1.217-4.443,2.621-6.422,4.216c-1.984,1.601-3.713,3.52-5.18,5.754
		c-1.467,2.237-2.396,4.824-2.777,7.764c1.916,0,3.738,0.48,5.461,1.438c1.729,0.958,2.59,2.718,2.59,5.27
		c0,2.56-0.705,4.413-2.109,5.561c-1.404,1.152-3.258,1.727-5.561,1.727c-2.172,0-3.932-0.893-5.273-2.684
		c-1.342-1.788-2.01-3.707-2.01-5.751c0-3.707,0.955-7.062,2.877-10.066c1.916-3.002,4.244-5.717,6.996-8.147
		c2.746-2.428,5.717-4.472,8.912-6.135c3.195-1.66,6.072-2.877,8.631-3.642L51,1.723z"/>
</g>
</svg>
