<?xml version="1.0" encoding="utf-8"?>
<!-- Generator: Adobe Illustrator 16.0.0, SVG Export Plug-In . SVG Version: 6.00 Build 0)  -->
<!DOCTYPE svg PUBLIC "-//W3C//DTD SVG 1.1//EN" "http://www.w3.org/Graphics/SVG/1.1/DTD/svg11.dtd">
<svg version="1.1" id="Шар_1" xmlns="http://www.w3.org/2000/svg" xmlns:xlink="http://www.w3.org/1999/xlink" x="0px" y="0px"
	 width="127px" height="96.558px" viewBox="0 0 127 96.558" enable-background="new 0 0 127 96.558" xml:space="preserve">
<g>
	<path fill="#454545" d="M127,32.666c0-0.708-0.394-1.344-1.026-1.659L64.33,0.184c-0.49-0.245-1.169-0.245-1.661,0L1.025,31.006
		C0.393,31.322,0,31.958,0,32.666c0,0.707,0.393,1.343,1.025,1.659l20.863,10.432v30.068c0,12.187,18.278,21.733,41.611,21.733
		s41.61-9.547,41.61-21.733V44.756l8.774-4.387v21.472l-0.56,0.191c-3.046,1.038-5.093,3.896-5.093,7.108
		c0,2.875,1.683,5.536,4.287,6.779l0.685,0.326l-5.961,15.733c-0.218,0.569-0.14,1.21,0.207,1.71
		c0.347,0.502,0.917,0.802,1.526,0.802h13.527c0.608,0,1.18-0.3,1.527-0.801c0.345-0.501,0.422-1.142,0.206-1.711l-5.961-15.733
		l0.685-0.326c2.604-1.243,4.287-3.904,4.287-6.779c0-3.214-2.048-6.07-5.095-7.108l-0.559-0.19V38.515l8.38-4.19
		C126.606,34.008,127,33.373,127,32.666z M101.4,74.825c0,4.504-3.871,9.021-10.619,12.396c-7.254,3.628-16.943,5.627-27.281,5.627
		s-20.027-1.999-27.283-5.627c-6.748-3.375-10.618-7.893-10.618-12.396V46.612L62.67,65.147c0.49,0.245,1.168,0.245,1.661,0
		L101.4,46.612V74.825z M119.816,90.783h-8.153l4.076-10.755L119.816,90.783z M119.536,69.141c0,2.094-1.703,3.797-3.797,3.797
		s-3.797-1.703-3.797-3.797c0-2.085,1.695-3.788,3.78-3.798h0.017C117.834,65.353,119.536,67.056,119.536,69.141z M115.353,35.487
		l-0.117-0.011l-51.569-4.657c-1.053-0.093-1.922,0.656-2.015,1.681c-0.045,0.493,0.104,0.974,0.422,1.355
		c0.317,0.381,0.765,0.614,1.258,0.659l45.713,4.127L63.5,61.413l-0.093-0.046L6.002,32.666L63.5,3.917l0.092,0.046l57.404,28.702
		L115.353,35.487z"/>
	<polygon fill="#FFEF2B" points="119.816,90.783 111.663,90.783 115.739,80.028 	"/>
	<path fill="#FFEF2B" d="M119.536,69.141c0,2.094-1.703,3.797-3.797,3.797s-3.797-1.703-3.797-3.797c0-2.085,1.695-3.788,3.78-3.798
		h0.017C117.834,65.353,119.536,67.056,119.536,69.141z"/>
	<path fill="#FFEF2B" d="M115.353,35.487l-0.117-0.011l-51.569-4.657c-1.053-0.093-1.922,0.656-2.015,1.681
		c-0.045,0.493,0.104,0.974,0.422,1.355c0.317,0.381,0.765,0.614,1.258,0.659l45.713,4.127L63.5,61.413l-0.093-0.046L6.002,32.666
		L63.5,3.917l0.092,0.046l57.404,28.702L115.353,35.487z"/>
</g>
</svg>
