<?xml version="1.0" encoding="utf-8"?>
<!-- Generator: Adobe Illustrator 16.0.0, SVG Export Plug-In . SVG Version: 6.00 Build 0)  -->
<!DOCTYPE svg PUBLIC "-//W3C//DTD SVG 1.1//EN" "http://www.w3.org/Graphics/SVG/1.1/DTD/svg11.dtd">
<svg version="1.1" id="Шар_1" xmlns="http://www.w3.org/2000/svg" xmlns:xlink="http://www.w3.org/1999/xlink" x="0px" y="0px"
	 width="98px" height="100.73px" viewBox="0 0 98 100.73" enable-background="new 0 0 98 100.73" xml:space="preserve">
<g>
	<g>
		<path fill="#454545" d="M59.036,42.11l-0.104-0.1c-1.347-1.23-3.121-1.908-4.996-1.908c-1.817,0-3.552,0.642-4.883,1.806
			L49,41.955l-0.053-0.047c-1.331-1.164-3.064-1.806-4.881-1.806c-1.93,0-3.741,0.713-5.102,2.008
			c-1.39,1.323-2.154,3.087-2.154,4.969s0.765,3.646,2.154,4.967l8.881,8.456c0.306,0.289,0.715,0.449,1.155,0.449
			c0.438,0,0.847-0.158,1.151-0.447l8.881-8.456c1.391-1.321,2.156-3.087,2.156-4.969C61.189,45.196,60.424,43.432,59.036,42.11z
			 M41.27,44.53c0.748-0.71,1.74-1.101,2.795-1.101c1.056,0,2.049,0.391,2.793,1.1l0.987,0.94c0.608,0.577,1.697,0.577,2.307-0.001
			l0.986-0.939c0.744-0.709,1.736-1.099,2.792-1.099c1.057,0,2.05,0.39,2.797,1.098c0.721,0.686,1.119,1.591,1.119,2.55
			c0,0.956-0.396,1.86-1.115,2.546L49,56.983l-7.73-7.359c-0.719-0.688-1.115-1.591-1.115-2.546
			C40.154,46.121,40.551,45.216,41.27,44.53z"/>
		<path fill="#454545" d="M98,11.883V8.539H87.036l-0.023-0.025c-0.134-0.139-0.335-0.141-0.681-0.057
			c-0.166,0.04-0.336,0.082-0.521,0.082h-7.012c-1.068,0-1.672,0.078-1.672,1.673v0.081h-4.944L53.42,0.641
			c-1.737-0.868-3.836-0.853-5.365,0.038L9.812,22.92c-1.728,1.007-2.801,2.863-2.801,4.843c0,1.659,0.733,3.228,2.013,4.305
			c1.01,0.85,2.3,1.318,3.632,1.318c0.309,0,0.627-0.029,0.972-0.088l34.802-6.055l9.907,10.178
			c0.339,0.337,0.761,0.756,1.181,0.756h17.58l0.022,0.048c0.008,0.017,0.776,1.705,1.679,1.705H98v-3.344H87.482V11.883H98z
			 M80.472,36.585V11.883h3.667v24.702H80.472z M48.698,14.914c0.899,0,1.725,0.33,2.324,0.93l9.009,8.989l2.364-2.372l-9.007-9.009
			c-1.251-1.255-2.917-1.947-4.69-1.947c-3.655,0-6.629,2.974-6.629,6.629c0,1.769,0.689,3.434,1.94,4.688l1.528,1.528L13.056,30
			c-0.676,0.117-1.362-0.073-1.88-0.505c-0.521-0.442-0.82-1.086-0.82-1.766c0-0.817,0.438-1.58,1.143-1.991L49.737,3.432
			c0.647-0.376,1.522-0.402,2.188-0.07l19.117,9.83c0.09,0.045,0.186,0.119,0.283,0.196c0.214,0.168,0.338,0.249,0.462,0.249h5.339
			v21.196H60.209L46.374,20.729c-0.593-0.595-0.961-1.537-0.961-2.459C45.413,16.45,46.918,14.914,48.698,14.914z"/>
		<path fill="#454545" d="M88.976,68.462c-1.249-1.056-2.972-1.522-4.603-1.243l-34.804,6.053l-9.903-9.902
			c-0.315-0.316-0.735-0.491-1.184-0.491H20.873v-0.081c0-0.921-0.75-1.671-1.672-1.671H0v3.344h10.518v24.702H0v3.344h19.201
			c0.922,0,1.672-0.75,1.672-1.672v-0.081h4.944l18.758,9.38c0.77,0.385,1.643,0.588,2.524,0.588c1.011,0,1.996-0.262,2.848-0.758
			l38.24-22.31c1.727-1.008,2.801-2.877,2.801-4.878C90.988,71.115,90.254,69.539,88.976,68.462z M49.302,85.666
			c-0.866,0-1.713-0.35-2.323-0.961l-9.01-9.009l-2.363,2.364l9.008,9.008c1.252,1.252,2.918,1.942,4.688,1.942
			c3.655,0,6.629-2.974,6.629-6.63c0-1.771-0.688-3.436-1.94-4.688l-1.529-1.53l32.484-5.649c0.656-0.121,1.357,0.068,1.876,0.507
			c0.522,0.438,0.822,1.081,0.822,1.764c0,0.816-0.438,1.578-1.142,1.989l-38.24,22.309c-0.659,0.386-1.505,0.412-2.189,0.069
			l-19.11-9.555c-0.231-0.116-0.49-0.178-0.749-0.178h-5.34V66.223h16.918l13.834,13.835c0.611,0.61,0.962,1.457,0.962,2.323
			C52.587,84.193,51.113,85.666,49.302,85.666z M17.529,64.47v24.702h-3.667V64.47H17.529z"/>
		<g>
			<path fill="#454545" d="M73.104,55.584c-0.18,0.861-0.409,1.721-0.679,2.552l-0.074,0.229l3.168,1.075l0.076-0.234
				c0.314-0.963,0.581-1.963,0.79-2.974l0.051-0.241l-3.283-0.641L73.104,55.584z"/>
			<path fill="#454545" d="M73.035,45.167l0.052,0.234l3.275-0.679l-0.053-0.24c-0.221-0.995-0.499-1.992-0.826-2.961l-0.079-0.232
				l-3.154,1.109l0.076,0.227C72.607,43.457,72.847,44.312,73.035,45.167z"/>
			<path fill="#454545" d="M76.914,48.813l-0.016-0.245l-3.333,0.245l0.014,0.238c0.029,0.503,0.044,1,0.042,1.477
				c0,0.396-0.009,0.785-0.027,1.163l-0.011,0.24l3.338,0.205l0.012-0.246c0.022-0.461,0.033-0.916,0.033-1.357
				C76.967,49.966,76.949,49.388,76.914,48.813z"/>
			<path fill="#454545" d="M70.918,61.752c-0.395,0.772-0.843,1.54-1.33,2.281l-0.132,0.2l2.769,1.874l0.136-0.205
				c0.574-0.873,1.096-1.768,1.551-2.656l0.111-0.219l-2.995-1.489L70.918,61.752z"/>
		</g>
		<g>
			<path fill="#454545" d="M24.422,52.002c-0.027-0.485-0.041-0.979-0.043-1.473c0-0.398,0.009-0.791,0.027-1.172l0.011-0.239
				l-3.337-0.206l-0.012,0.246c-0.022,0.462-0.034,0.923-0.034,1.375c0.002,0.57,0.02,1.142,0.054,1.698l0.014,0.245l3.333-0.236
				L24.422,52.002z"/>
			<path fill="#454545" d="M25.774,34.944l-0.136,0.206c-0.566,0.862-1.087,1.755-1.547,2.654l-0.111,0.219l2.994,1.489l0.109-0.214
				c0.393-0.77,0.841-1.538,1.331-2.282l0.132-0.2L25.774,34.944z"/>
			<path fill="#454545" d="M24.96,55.879l-0.052-0.234l-3.271,0.688l0.053,0.239c0.222,1.003,0.5,1.999,0.827,2.96l0.079,0.232
				l3.151-1.112l-0.076-0.228C25.391,57.595,25.151,56.738,24.96,55.879z"/>
			<path fill="#454545" d="M24.9,45.467c0.179-0.86,0.407-1.719,0.678-2.551l0.074-0.229l-3.169-1.074l-0.076,0.233
				c-0.312,0.962-0.578,1.963-0.788,2.974l-0.051,0.241l3.283,0.64L24.9,45.467z"/>
		</g>
	</g>
	<g>
		<path fill="#FFEF2B" d="M86.461,74.703l-38.239,22.31c-0.648,0.378-1.439,0.403-2.114,0.066l-19.109-9.556
			c-0.244-0.122-0.514-0.186-0.785-0.186h-5.26V66.303h16.804l13.812,13.812c0.596,0.595,0.938,1.421,0.938,2.266
			c0,1.768-1.438,3.205-3.204,3.205c-0.843,0-1.671-0.343-2.267-0.938l-9.066-9.065l-2.479,2.479l9.066,9.065
			c1.268,1.268,2.951,1.966,4.745,1.966c3.698,0,6.71-3.012,6.71-6.711c0-1.791-0.697-3.478-1.965-4.745l-1.42-1.419l32.33-5.623
			c0.65-0.118,1.311,0.064,1.812,0.488c0.505,0.424,0.793,1.045,0.793,1.702C87.562,73.57,87.141,74.307,86.461,74.703z"/>
	</g>
	<g>
		<path fill="#FFEF2B" d="M60.244,34.751L46.434,20.673c-0.605-0.607-0.939-1.548-0.939-2.403c0-1.769,1.438-3.275,3.204-3.275
			c0.855,0,1.661,0.3,2.267,0.907l9.066,9.046l2.479-2.487l-9.064-9.066c-1.267-1.271-2.953-1.97-4.747-1.97
			c-3.698,0-6.71,3.009-6.71,6.709c0,1.791,0.696,3.475,1.965,4.746l1.418,1.418l-32.33,5.623c-0.655,0.114-1.31-0.066-1.814-0.489
			c-0.501-0.425-0.789-1.045-0.789-1.702c0-0.788,0.422-1.524,1.102-1.921l38.24-22.307c0.648-0.377,1.438-0.403,2.113-0.066
			l19.11,9.826c0.243,0.122,0.514,0.456,0.785,0.456h5.259v21.035H60.244z"/>
	</g>
	<g>
		<path fill="#FFEF2B" d="M56.674,49.565L49,56.871l-7.675-7.306c-0.7-0.668-1.09-1.552-1.09-2.487s0.388-1.819,1.09-2.489
			c0.757-0.718,1.748-1.078,2.739-1.078s1.983,0.36,2.737,1.078l0.987,0.939c0.678,0.644,1.738,0.644,2.417,0l0.987-0.939
			c1.509-1.438,3.965-1.436,5.478-0.001c0.706,0.671,1.093,1.556,1.093,2.491S57.376,48.896,56.674,49.565z"/>
	</g>
</g>
</svg>
