<?xml version="1.0" encoding="utf-8"?>
<!-- Generator: Adobe Illustrator 16.0.0, SVG Export Plug-In . SVG Version: 6.00 Build 0)  -->
<!DOCTYPE svg PUBLIC "-//W3C//DTD SVG 1.1//EN" "http://www.w3.org/Graphics/SVG/1.1/DTD/svg11.dtd">
<svg version="1.1" id="Шар_1" xmlns="http://www.w3.org/2000/svg" xmlns:xlink="http://www.w3.org/1999/xlink" x="0px" y="0px"
	 width="103px" height="103px" viewBox="0 0 103 103" enable-background="new 0 0 103 103" xml:space="preserve">
<g>
	<path fill="#FABD8A" d="M79.143,100.209c-11.615,0-21.064-9.449-21.064-21.064s9.449-21.066,21.064-21.066
		s21.066,9.451,21.066,21.066S90.758,100.209,79.143,100.209z"/>
	<g>
		<path fill="#454545" d="M77.038,13.82c5.836,1.65,10.488,6.302,12.143,12.139c0.203,0.722,1,1.174,1.719,0.961
			c0.742-0.209,1.174-0.981,0.965-1.723c-1.914-6.76-7.305-12.148-14.068-14.062c-0.123-0.035-0.25-0.052-0.377-0.052
			c-0.625,0-1.178,0.417-1.344,1.013c-0.102,0.36-0.059,0.737,0.123,1.062C76.381,13.483,76.678,13.718,77.038,13.82z"/>
		<path fill="#454545" d="M39.406,89.178h11.23c0.769,0,1.395-0.625,1.395-1.395s-0.626-1.395-1.395-1.395h-11.23
			c-0.77,0-1.396,0.625-1.396,1.395S38.637,89.178,39.406,89.178z"/>
		<path fill="#454545" d="M44.153,19.166c0.132,0.349,0.392,0.625,0.731,0.778c0.182,0.083,0.374,0.124,0.572,0.124
			c0.548,0,1.048-0.322,1.274-0.82C51.254,9.25,61.264,2.791,72.233,2.791c15.426,0,27.977,12.55,27.977,27.977
			c0,7.838-2.812,16.922-7,22.604c-0.221,0.301-0.312,0.67-0.258,1.037c0.057,0.369,0.254,0.695,0.555,0.916
			c0.596,0.441,1.506,0.303,1.949-0.297C99.969,48.903,103,39.154,103,30.768C103,13.802,89.198,0,72.233,0
			C60.17,0,49.162,7.104,44.188,18.099C44.034,18.438,44.022,18.817,44.153,19.166z"/>
		<path fill="#454545" d="M49.771,79.477H39.406c-0.77,0-1.396,0.627-1.396,1.395c0,0.77,0.626,1.396,1.396,1.396h10.365
			c0.771,0,1.396-0.627,1.396-1.396C51.168,80.104,50.542,79.477,49.771,79.477z"/>
		<path fill="#454545" d="M79.143,55.289c-13.154,0-23.855,10.701-23.855,23.855S65.989,103,79.143,103
			C92.299,103,103,92.299,103,79.145S92.299,55.289,79.143,55.289z M79.143,100.209c-11.615,0-21.064-9.449-21.064-21.064
			s9.449-21.066,21.064-21.066c11.617,0,21.066,9.451,21.066,21.066S90.76,100.209,79.143,100.209z"/>
		<path fill="#454545" d="M80.788,67.617l-0.248-0.064v-0.502c0-0.77-0.627-1.396-1.396-1.396s-1.395,0.627-1.395,1.396v0.502
			l-0.25,0.064c-2.904,0.754-4.934,3.363-4.934,6.344c0,3.627,2.951,6.578,6.578,6.578c2.09,0,3.789,1.699,3.789,3.787
			c0,2.09-1.699,3.789-3.789,3.789c-2.088,0-3.787-1.699-3.787-3.789c0-0.768-0.627-1.395-1.396-1.395
			c-0.768,0-1.395,0.627-1.395,1.395c0,2.982,2.029,5.59,4.934,6.346l0.25,0.064v0.502c0,0.77,0.625,1.396,1.395,1.396
			s1.396-0.627,1.396-1.396v-0.502l0.248-0.064c2.904-0.754,4.934-3.363,4.934-6.346c0-3.627-2.949-6.576-6.578-6.576
			c-2.088,0-3.787-1.699-3.787-3.789c0-2.088,1.699-3.787,3.787-3.787c2.09,0,3.789,1.699,3.789,3.787
			c0,0.77,0.625,1.395,1.395,1.395s1.395-0.625,1.395-1.395C85.721,70.98,83.692,68.371,80.788,67.617z"/>
		<path fill="#454545" d="M60.139,100.209H39.406c-0.77,0-1.396,0.627-1.396,1.396S38.637,103,39.406,103h20.733
			c0.768,0,1.395-0.625,1.395-1.395S60.907,100.209,60.139,100.209z"/>
		<path fill="#454545" d="M25.583,79.477H1.395C0.626,79.477,0,80.104,0,80.871c0,0.77,0.626,1.396,1.395,1.396h24.188
			c0.771,0,1.396-0.627,1.396-1.396C26.979,80.104,26.354,79.477,25.583,79.477z"/>
		<path fill="#454545" d="M39.406,96.088h14.227c0.768,0,1.395-0.625,1.395-1.395s-0.627-1.395-1.395-1.395H39.406
			c-0.77,0-1.396,0.625-1.396,1.395S38.637,96.088,39.406,96.088z"/>
		<path fill="#454545" d="M33.89,80.871c0-0.373-0.146-0.723-0.408-0.986c-0.263-0.262-0.613-0.408-0.987-0.408
			c-0.77,0-1.396,0.627-1.396,1.395v20.734c0,0.77,0.626,1.395,1.396,1.395s1.396-0.625,1.396-1.395V80.871z"/>
		<path fill="#454545" d="M22.836,74.955c0.533,0.527,1.453,0.52,1.972-0.004c0.544-0.547,0.542-1.432-0.003-1.975
			C11.021,59.27,2.791,43.489,2.791,30.768c0-15.426,12.55-27.977,27.976-27.977c5.256,0,10.379,1.465,14.813,4.239
			c0.636,0.398,1.529,0.188,1.922-0.443c0.199-0.316,0.261-0.69,0.178-1.054c-0.084-0.363-0.305-0.672-0.62-0.87
			C42.181,1.613,36.547,0,30.767,0C13.802,0,0,13.802,0,30.768C0,44.217,8.536,60.736,22.836,74.955z"/>
		<path fill="#454545" d="M25.583,100.209H1.395c-0.769,0-1.395,0.627-1.395,1.396S0.626,103,1.395,103h24.188
			c0.771,0,1.396-0.625,1.396-1.395S26.354,100.209,25.583,100.209z"/>
		<path fill="#454545" d="M25.583,86.389H1.395C0.626,86.389,0,87.014,0,87.783s0.626,1.395,1.395,1.395h24.188
			c0.771,0,1.396-0.625,1.396-1.395S26.354,86.389,25.583,86.389z"/>
		<path fill="#454545" d="M25.583,93.299H1.395C0.626,93.299,0,93.924,0,94.693s0.626,1.395,1.395,1.395h24.188
			c0.771,0,1.396-0.625,1.396-1.395S26.354,93.299,25.583,93.299z"/>
	</g>
</g>
</svg>
