<?xml version="1.0" encoding="utf-8"?>
<!-- Generator: Adobe Illustrator 16.0.0, SVG Export Plug-In . SVG Version: 6.00 Build 0)  -->
<!DOCTYPE svg PUBLIC "-//W3C//DTD SVG 1.1//EN" "http://www.w3.org/Graphics/SVG/1.1/DTD/svg11.dtd">
<svg version="1.1" id="Шар_1" xmlns="http://www.w3.org/2000/svg" xmlns:xlink="http://www.w3.org/1999/xlink" x="0px" y="0px"
	 width="107px" height="107.002px" viewBox="0 0 107 107.002" enable-background="new 0 0 107 107.002" xml:space="preserve">
<g>
	<path fill="#FABD8A" d="M53.501,58.726c0,0-16.711-9.872-20.819-16.81c-2.968-5.011-4.199-7.366-6.271-10.646
		c-2.072-3.281-3.108-6.907-3.108-6.907v-4.835v-5.526l1.533-2.59l2.438-3.108l2.59-2.936l1.899-1.209l3.627-1.382h1.381
		l3.799-1.554l2.591,0.863l2.59,0.518c0,0,1.641-0.604,4.015,1.036c2.494,1.723,1.8,3.929,2.029,3.972
		c0.754,0.139,2.404-1.899,2.404-1.899l6.464-1.887l1.666-2.603h3.28l4.317,1.209l3.911,2.416l4.55,1.21l2.036,5.226l1.744,3.236
		l0.263,2.82v4.182l-0.263,1.616l0.263,4.104l-5.246,7.803l-3.113,6.241l-7.943,8.979l-7.599,5.353L53.501,58.726L53.501,58.726z"/>
	<g>
		<path fill="#454545" d="M0,66.065c0,6.551,3.943,9.939,3.983,9.971l14.391,14.387c0.546,0.547,1.497,0.549,2.051,0
			c0.563-0.564,0.563-1.484-0.001-2.049L5.964,73.921c-0.106-0.091-3.064-2.702-3.064-7.856V39.143c0-2.17,1.765-3.936,3.935-3.936
			c2.171,0,3.936,1.766,3.936,3.936v14.208c0,0.799,0.65,1.449,1.449,1.449c0.8,0,1.45-0.649,1.45-1.449V39.143
			c0-3.769-3.065-6.834-6.835-6.834C3.065,32.308,0,35.374,0,39.143V66.065z"/>
		<path fill="#454545" d="M42.387,98.374c0-0.801-0.65-1.45-1.449-1.45H12.22c-0.8,0-1.45,0.649-1.45,1.45v7.178
			c0,0.801,0.65,1.451,1.45,1.451c0.799,0,1.449-0.65,1.449-1.451v-5.729h25.818v5.729c0,0.801,0.65,1.451,1.45,1.451
			c0.799,0,1.449-0.65,1.449-1.451V98.374z"/>
		<path fill="#454545" d="M38.797,82.219c0-6.429-3.95-9.943-3.99-9.977L22.218,59.655c-1.288-1.29-2.943-2.039-4.662-2.109
			c-1.78-0.07-3.497,0.605-4.784,1.893c-1.293,1.293-1.966,2.991-1.893,4.782c0.07,1.72,0.819,3.376,2.11,4.665l8.975,8.973
			c0.546,0.549,1.501,0.549,2.05,0c0.564-0.564,0.564-1.484,0-2.049l-8.977-8.977c-0.773-0.77-1.221-1.74-1.263-2.73
			c-0.039-0.985,0.323-1.889,1.047-2.613c0.686-0.688,1.542-1.051,2.478-1.051l0.138,0.003c0.989,0.042,1.959,0.491,2.732,1.265
			l12.646,12.643c0.111,0.098,3.082,2.781,3.082,7.871v8.975c0,0.799,0.65,1.449,1.45,1.449c0.799,0,1.449-0.65,1.449-1.449V82.219z
			"/>
		<path fill="#454545" d="M94.011,68.887c1.363-1.361,2.115-3.111,2.118-4.926c0-1.691-0.675-3.299-1.9-4.523
			c-1.224-1.224-2.832-1.898-4.53-1.898c-0.085,0-0.168,0.002-0.253,0.006c-1.717,0.07-3.372,0.819-4.663,2.109l-12.47,12.477
			c-0.183,0.162-4.106,3.696-4.106,10.088v8.975c0,0.799,0.649,1.449,1.448,1.449c0.801,0,1.45-0.65,1.45-1.449v-8.975
			c0-4.83,2.646-7.479,3.178-7.962l12.549-12.552c0.775-0.774,1.746-1.223,2.734-1.265l0.13-0.003c0.952,0,1.787,0.354,2.483,1.049
			c0.688,0.689,1.051,1.545,1.051,2.475c0,1.037-0.45,2.059-1.269,2.873l-8.974,8.975c-0.564,0.564-0.564,1.484,0,2.049
			c0.548,0.549,1.502,0.549,2.05,0L94.011,68.887z"/>
		<path fill="#454545" d="M52.807,60.159c0.428,0.232,0.953,0.233,1.392-0.002C74.504,49.08,85.462,30.889,85.462,19.398
			C85.462,8.702,76.761,0,66.066,0c-7.514,0-14.419,4.401-17.594,11.213c-0.163,0.351-0.181,0.745-0.048,1.109
			c0.132,0.364,0.398,0.654,0.749,0.817c0.711,0.333,1.599-0.001,1.927-0.701c2.7-5.794,8.575-9.538,14.966-9.538
			c9.096,0,16.496,7.401,16.496,16.499c0,5.415-2.798,12.363-7.676,19.065C71.111,43.65,64.365,51.1,53.671,57.133l-0.17,0.096
			l-0.17-0.096C42.636,51.1,35.89,43.65,32.114,38.463c-4.878-6.702-7.677-13.65-7.677-19.065c0-9.098,7.402-16.499,16.5-16.499
			c2.299,0,4.521,0.463,6.605,1.375c0.719,0.314,1.598-0.036,1.908-0.746c0.156-0.355,0.164-0.749,0.023-1.109
			c-0.142-0.36-0.414-0.645-0.77-0.8C46.25,0.545,43.636,0,40.938,0C30.241,0,21.539,8.702,21.539,19.398
			C21.539,30.89,32.497,49.08,52.807,60.159z"/>
		<path fill="#454545" d="M107,66.065V39.143c0-3.769-3.065-6.835-6.834-6.835s-6.834,3.066-6.834,6.834V53.35
			c0,0.799,0.65,1.449,1.449,1.449s1.449-0.65,1.449-1.449V39.142c0-2.17,1.765-3.935,3.936-3.935c2.17,0,3.935,1.765,3.935,3.935
			v26.923c0,4.875-2.647,7.488-3.179,7.963L86.577,88.374c-0.564,0.564-0.564,1.484,0,2.049c0.548,0.549,1.504,0.547,2.049,0.001
			l14.249-14.257C103.063,76.006,107,72.61,107,66.065z"/>
		<path fill="#454545" d="M96.23,98.374c0-0.388-0.15-0.752-0.423-1.025c-0.274-0.273-0.639-0.425-1.026-0.425H66.066
			c-0.801,0-1.45,0.649-1.45,1.45v7.178c0,0.801,0.649,1.451,1.45,1.451c0.799,0,1.448-0.65,1.448-1.451v-5.729h25.817v5.729
			c0,0.801,0.65,1.451,1.449,1.451s1.449-0.65,1.449-1.451V98.374z"/>
	</g>
</g>
</svg>
