<?xml version="1.0" encoding="utf-8"?>
<!-- Generator: Adobe Illustrator 16.0.0, SVG Export Plug-In . SVG Version: 6.00 Build 0)  -->
<!DOCTYPE svg PUBLIC "-//W3C//DTD SVG 1.1//EN" "http://www.w3.org/Graphics/SVG/1.1/DTD/svg11.dtd">
<svg version="1.1" id="Шар_1" xmlns="http://www.w3.org/2000/svg" xmlns:xlink="http://www.w3.org/1999/xlink" x="0px" y="0px"
	 width="115px" height="106.138px" viewBox="0 0 115 106.138" enable-background="new 0 0 115 106.138" xml:space="preserve">
<g>
	<circle fill="#FABD8A" cx="71.562" cy="33.924" r="32.467"/>
	<path fill="#454545" d="M71.573,67.729c18.667,0,33.854-15.186,33.854-33.853C105.427,15.197,90.24,0,71.573,0
		c-18.68,0-33.877,15.197-33.877,33.877C37.696,52.543,52.894,67.729,71.573,67.729z M71.573,2.82
		c17.126,0,31.058,13.932,31.058,31.057c0,17.125-13.932,31.056-31.058,31.056c-17.124,0-31.056-13.931-31.056-31.056
		C40.518,16.752,54.449,2.82,71.573,2.82z"/>
	<path fill="#454545" d="M0.391,84.589c0.022,0.127,0.03,0.2,0.03,0.273l-0.002,0.001c0.016,0.04,0.034,0.094,0.059,0.167
		l0.064,0.171l9.355,19.921h0.222l0.09,0.526l0.131,0.142c0.017,0.009,0.04,0.025,0.066,0.044c0.079,0.034,0.153,0.079,0.22,0.133
		c0.067,0.027,0.12,0.05,0.176,0.084l0.267,0.071l0.081,0.016l0.194-0.01c0.046-0.013,0.093-0.021,0.14-0.027l0.149-0.078
		l0.06,0.009l0.317-0.115l13.294-8.376c2.223-1.423,5.11-1.821,7.69-1.055l26.099,7.84c1.442,0.44,2.961,0.664,4.514,0.664
		c2.677,0,5.299-0.66,7.585-1.908l40.899-22.213c2.542-1.396,3.563-4.246,2.481-6.929c-0.852-2.137-2.761-3.464-4.982-3.464
		c-0.511,0-1.03,0.07-1.544,0.209l-0.145,0.023L76.141,81.329c-0.729,0.248-1.123,1.048-0.878,1.781
		c0.229,0.676,1.096,1.114,1.776,0.881L108.8,73.404c0.297-0.082,0.568-0.12,0.826-0.12c1.664,0,2.291,1.551,2.356,1.728
		c0.462,1.098,0.27,2.585-1.216,3.399L69.89,100.554c-2.979,1.627-6.742,2.017-9.974,1.029l-26.093-7.838
		c-1.114-0.334-2.279-0.504-3.463-0.504c-2.3,0-4.538,0.631-6.471,1.822l-0.739,0.454l-7.006-16.53l12.259-6.042
		c1.871-0.592,5.532-1.55,9.622-1.55c2.968,0,5.594,0.511,7.805,1.517c0.018,0,0.102,0.038,0.184,0.079l19.346,7.002
		c1.575,0.766,1.873,2.236,1.66,3.267c-0.346,1.39-1.296,2.239-2.611,2.345c-0.379-0.016-1.144-0.065-2.199-0.135
		c-1.918-0.125-4.8-0.312-7.475-0.48l-0.305-0.02c-7.359-0.463-7.961-0.5-8.055-0.5c-0.364,0.007-0.711,0.161-0.971,0.434
		c-0.261,0.273-0.4,0.632-0.393,1.01c0.016,0.727,0.608,1.322,1.349,1.354l0.089,0.006c0.678,0.044,4.452,0.29,8.117,0.516
		c8.839,0.567,9.692,0.614,9.854,0.614c2.671-0.124,4.83-1.986,5.356-4.634c0.522-2.657-0.783-5.2-3.251-6.33
		c-0.106-0.043-0.154-0.064-0.194-0.084l-19.357-6.997c-2.611-1.169-5.623-1.757-8.979-1.757c-5.775,0-10.497,1.714-10.544,1.731
		c-0.075,0.022-0.102,0.029-0.118,0.035L1.018,83.365c-0.014,0.009-0.026,0.017-0.038,0.023l-0.187,0.167
		c-0.062,0.063-0.112,0.14-0.185,0.217L0.447,84.09c-0.015,0.064-0.025,0.107-0.04,0.151l-0.034,0.156L0,84.437l0.374,0.049
		L0.391,84.589z M13.624,80.271l7.113,16.795l-8.897,5.619L3.615,85.179L13.624,80.271z"/>
	<path fill="#454545" d="M80.773,41.621c0-5.079-4.133-9.21-9.212-9.21c-3.409,0-6.184-2.774-6.184-6.185
		c0-3.411,2.774-6.185,6.184-6.185c3.412,0,6.186,2.774,6.186,6.185c0,0.834,0.678,1.513,1.513,1.513
		c0.834,0,1.514-0.679,1.514-1.513c0-4.172-2.843-7.825-6.91-8.881l-0.788-0.205v-1.178c0-0.834-0.679-1.514-1.514-1.514
		s-1.514,0.68-1.514,1.514v1.178l-0.787,0.205c-4.069,1.057-6.91,4.709-6.91,8.881c0,5.079,4.132,9.211,9.211,9.211
		c3.412,0,6.186,2.774,6.186,6.184c0,3.411-2.773,6.185-6.186,6.185c-3.409,0-6.184-2.774-6.184-6.185
		c0-0.834-0.68-1.513-1.515-1.513s-1.513,0.679-1.513,1.513c0,4.172,2.841,7.824,6.91,8.881l0.787,0.206v1.178
		c0,0.835,0.679,1.514,1.514,1.514s1.514-0.679,1.514-1.514v-1.178l0.787-0.205C77.931,49.447,80.773,45.795,80.773,41.621z"/>
</g>
</svg>
