<?xml version="1.0" encoding="utf-8"?>
<!-- Generator: Adobe Illustrator 16.0.0, SVG Export Plug-In . SVG Version: 6.00 Build 0)  -->
<!DOCTYPE svg PUBLIC "-//W3C//DTD SVG 1.1//EN" "http://www.w3.org/Graphics/SVG/1.1/DTD/svg11.dtd">
<svg version="1.1" id="Шар_1" xmlns="http://www.w3.org/2000/svg" xmlns:xlink="http://www.w3.org/1999/xlink" x="0px" y="0px"
	 width="104px" height="104.001px" viewBox="0 0 104 104.001" enable-background="new 0 0 104 104.001" xml:space="preserve">
<g>
	<path fill="#454545" d="M103.868,46.195c-0.085-0.171-2.144-4.19-6.364-4.19c-3.012,0-4.928,2.061-5.801,3.289l-0.151,0.212H87.41
		l2.071-3.59l0.261-0.024c1.499-0.138,4.238-0.761,5.745-3.377c2.111-3.653-0.34-7.446-0.445-7.606
		c-0.211-0.322-0.572-0.53-0.968-0.556c-0.018-0.001-0.096-0.004-0.22-0.004c-1.081,0-4.751,0.247-6.584,3.421
		c-1.508,2.613-0.682,5.299-0.054,6.667l0.108,0.237l-1.928,3.337l-0.428-0.807c-2.316-4.369-7.406-11.699-15.469-11.699
		c-8.134,0-10.473,3.98-11.688,7.875c-0.1,0.317-0.069,0.654,0.085,0.949c0.153,0.294,0.413,0.511,0.73,0.61
		c0.115,0.036,0.235,0.054,0.356,0.054c0.547,0,1.043-0.358,1.204-0.872c1.213-3.88,3.127-6.126,9.312-6.126
		c6.876,0,11.39,6.75,13.468,10.774l0.381,0.737H71.252c-0.687,0-1.246,0.559-1.246,1.245c0,9.562-2.182,40.76-30.258,40.76
		c-0.475,0-0.901,0.264-1.114,0.688l-6.602,13.202l-0.367-0.061c-1.256-0.21-3.833-0.707-6.994-1.688l-0.691-0.214l6.254-8.179
		c0.202-0.264,0.289-0.59,0.246-0.918c-0.045-0.33-0.214-0.624-0.479-0.826c-0.513-0.393-1.357-0.276-1.745,0.232l-6.74,8.812
		l-0.354-0.14c-1.408-0.555-2.581-1.072-3.692-1.631c-1.544-0.777-3.017-1.647-4.381-2.587l-0.733-0.505l12.16-5.559
		c0.624-0.287,0.899-1.028,0.613-1.652c-0.197-0.431-0.663-0.721-1.158-0.721c-0.174,0-0.339,0.035-0.492,0.105l-13.285,6.075
		l-0.247-0.225c-2.562-2.335-4.491-5.035-5.735-8.023L3.919,83h18.327c0.687,0,1.245-0.559,1.245-1.245s-0.559-1.244-1.245-1.244
		H3.161l-0.089-0.396c-0.268-1.191-0.443-2.395-0.523-3.577l-0.036-0.539h37.236c0.557,0,1.05-0.375,1.198-0.912
		c0.149-0.538-0.08-1.113-0.558-1.398c-0.318-0.191-31.831-19.354-34.24-41.752l-0.152-1.423l24.12,24.119
		c0.447,0.447,1.312,0.447,1.762,0c0.482-0.485,0.482-1.275-0.002-1.76L6.029,27.023l0.008-0.22c0.067-1.72,0.207-3.412,0.428-5.173
		l0.128-1.025L31.867,45.88c0.445,0.445,1.312,0.447,1.762-0.001c0.482-0.484,0.482-1.274-0.001-1.76L7.102,17.594l0.053-0.264
		c0.311-1.559,0.675-3.079,1.085-4.518l0.234-0.826l25.145,25.144c0.445,0.445,1.312,0.446,1.761-0.001
		c0.483-0.485,0.482-1.275-0.002-1.76L9.347,9.34l0.111-0.303c0.847-2.321,1.68-4.084,2.228-5.156l0.317-0.617l0.163,0.164
		L56.371,47.63c0.447,0.447,1.313,0.447,1.76,0c0.484-0.485,0.484-1.275,0-1.761L35.778,23.518l0.007-0.218
		c0.234-7.651,4.043-11.407,6.293-12.964l0.521-0.361l0.079,0.197l9.915,24.792c0.188,0.465,0.659,0.777,1.173,0.777
		c0.155,0,0.306-0.028,0.448-0.085c0.636-0.256,0.946-0.982,0.691-1.62L44.403,7.783c-0.186-0.464-0.657-0.776-1.174-0.776
		c-0.154,0-0.305,0.028-0.447,0.083c-0.31,0.125-7.651,3.199-9.219,13.078l-0.155,0.979L12.625,0.365
		c-0.264-0.263-0.623-0.397-1.005-0.359c-0.37,0.036-0.702,0.236-0.91,0.548c-0.295,0.44-7.21,10.97-7.21,28.694
		c0,19.653,21.476,36.857,30.708,43.341l1.309,0.919H1.244C0.559,73.508,0,74.066,0,74.752c0,2.556,0.351,5.047,1.045,7.403
		c0.005,0.012,0.015,0.05,0.025,0.089l0.024,0.076c1.357,4.49,3.994,8.438,7.835,11.736l0.064,0.067
		c0.133,0.177,0.287,0.304,0.471,0.39l0.085,0.054c3.188,2.593,7.088,4.765,11.611,6.465l0.084,0.042
		c0.16,0.105,0.329,0.167,0.52,0.194l0.083,0.02c5.899,2.123,10.717,2.7,10.765,2.706c0.041,0.004,0.088,0.007,0.136,0.007
		c0.473,0,0.9-0.265,1.112-0.688l6.66-13.32l0.303-0.008c9.209-0.24,30.727-4.766,31.651-41.498l0.013-0.492h12.046l2.583,4.475
		l-0.17,0.261c-0.727,1.113-2.261,4.038-0.814,7.132c1.785,3.834,6.287,3.992,6.478,3.997c0.411,0,0.771-0.167,1.012-0.471
		c0.12-0.149,2.901-3.692,1.11-7.538c-1.087-2.336-3.189-3.313-4.763-3.724l-0.203-0.053l-2.355-4.079h4.142l0.151,0.212
		c0.873,1.228,2.789,3.289,5.801,3.289c4.221,0,6.278-4.018,6.364-4.189C104.044,46.958,104.044,46.542,103.868,46.195z"/>
	<path fill="#FABD8A" d="M89.426,35.013c0.826-1.431,2.337-1.933,3.458-2.101l0.398-0.06l0.146,0.375
		c0.414,1.05,0.732,2.604-0.097,4.041c-0.83,1.435-2.338,1.937-3.456,2.105l-0.399,0.06l-0.146-0.375
		C88.918,38.004,88.601,36.446,89.426,35.013z"/>
	<path fill="#FABD8A" d="M88.645,54.766l0.18-0.359l0.39,0.094c0.899,0.215,2.519,0.811,3.263,2.399
		c0.735,1.586,0.149,3.212-0.264,4.041l-0.18,0.359l-0.391-0.095c-1.099-0.265-2.556-0.896-3.256-2.396
		C87.686,57.308,88.14,55.782,88.645,54.766z"/>
	<path fill="#FABD8A" d="M101.054,47.065c-0.708,0.885-1.898,1.94-3.55,1.94c-1.654,0-2.843-1.055-3.549-1.94l-0.252-0.315
		l0.252-0.315c0.706-0.885,1.895-1.94,3.549-1.94c1.655,0,2.844,1.056,3.55,1.94l0.252,0.315L101.054,47.065z"/>
	<g>
		<path fill="#454545" d="M71.305,41.5c0.966,0,1.75-0.784,1.75-1.75S72.271,38,71.305,38h-0.02c-0.966,0-1.739,0.784-1.739,1.75
			S70.337,41.5,71.305,41.5z"/>
	</g>
</g>
</svg>
