<?xml version="1.0" encoding="utf-8"?>
<!-- Generator: Adobe Illustrator 16.0.0, SVG Export Plug-In . SVG Version: 6.00 Build 0)  -->
<!DOCTYPE svg PUBLIC "-//W3C//DTD SVG 1.1//EN" "http://www.w3.org/Graphics/SVG/1.1/DTD/svg11.dtd">
<svg version="1.1" id="Шар_1" xmlns="http://www.w3.org/2000/svg" xmlns:xlink="http://www.w3.org/1999/xlink" x="0px" y="0px"
	 width="145px" height="81.178px" viewBox="0 0 145 81.178" enable-background="new 0 0 145 81.178" xml:space="preserve">
<g>
	<g>
		<path fill="none" d="M51.843,51.666c0,0-0.719,0-1.606,0"/>
	</g>
	<g>
	</g>
	<g>
		<path opacity="0.75" fill="#000100" d="M10.53,56.205v12.477H6.765V56.205H0v-2.279h17.295v2.279H10.53z"/>
		<path opacity="0.75" fill="#000100" d="M29.581,65.304c1.021,0.788,2.404,1.183,4.148,1.183c1.744,0,3.127-0.395,4.148-1.183
			s1.532-1.858,1.532-3.209v-8.169h3.765V62.2c0,2.126-0.883,3.762-2.648,4.908c-1.766,1.147-4.032,1.721-6.797,1.721
			c-2.766,0-5.031-0.573-6.797-1.721c-1.766-1.146-2.648-2.782-2.648-4.908v-8.274h3.765v8.169
			C28.049,63.445,28.56,64.516,29.581,65.304z"/>
		<path opacity="0.75" fill="#000100" d="M52.269,68.682V53.926h3.766v12.391h10.179v2.365H52.269z"/>
		<path opacity="0.75" fill="#000100" d="M80.27,55.867c-1.096,0-1.994,0.148-2.696,0.443c-0.702,0.296-1.054,0.742-1.054,1.341
			s0.352,1.056,1.054,1.372s2.196,0.658,4.483,1.023c2.287,0.366,4.01,0.88,5.17,1.541c1.158,0.662,1.738,1.637,1.738,2.924
			c0,1.288-0.733,2.333-2.201,3.135c-1.469,0.803-3.395,1.203-5.775,1.203c-3.49,0-6.586-0.795-9.287-2.385l2.361-1.879
			c2.255,1.295,4.596,1.942,7.021,1.942c1.213,0,2.175-0.173,2.888-0.518s1.069-0.802,1.069-1.372s-0.335-1.014-1.005-1.33
			s-1.824-0.605-3.463-0.865c-1.638-0.261-2.883-0.5-3.732-0.718c-0.852-0.218-1.607-0.503-2.267-0.855
			c-1.319-0.661-1.978-1.675-1.978-3.04c0-1.364,0.75-2.416,2.25-3.155s3.355-1.108,5.568-1.108c1.425,0,2.84,0.155,4.244,0.465
			s2.616,0.746,3.638,1.309l-2.01,1.879c-0.66-0.395-1.554-0.718-2.682-0.972C82.477,55.994,81.366,55.867,80.27,55.867z"/>
		<path opacity="0.75" fill="#000100" d="M101.826,65.304c1.021,0.788,2.403,1.183,4.147,1.183s3.128-0.395,4.148-1.183
			c1.021-0.788,1.532-1.858,1.532-3.209v-8.169h3.765V62.2c0,2.126-0.883,3.762-2.648,4.908c-1.766,1.147-4.031,1.721-6.797,1.721
			s-5.031-0.573-6.797-1.721c-1.766-1.146-2.648-2.782-2.648-4.908v-8.274h3.766v8.169
			C100.293,63.445,100.804,64.516,101.826,65.304z"/>
		<path opacity="0.75" fill="#000100" d="M141.235,53.926H145v14.756h-4.086L128.28,57.915v10.767h-3.766V53.926h3.766l12.955,11.02
			V53.926z"/>
	</g>
	<g>
		<path fill="#000100" d="M15.721,75.594v0.355h-3.645v2.095h3.287v0.355h-3.287v2.707h-0.645v-5.513H15.721z"/>
		<path fill="#000100" d="M25.737,75.522c1.232,0,2.277,0.274,3.134,0.823c0.857,0.549,1.286,1.217,1.286,2.006
			c0,0.787-0.428,1.455-1.286,2.003c-0.857,0.549-1.902,0.823-3.134,0.823c-1.229,0-2.27-0.274-3.123-0.823
			c-0.853-0.548-1.28-1.216-1.28-2.003c0-0.789,0.427-1.457,1.28-2.006S24.508,75.522,25.737,75.522z M25.761,80.783
			c1.038,0,1.914-0.235,2.628-0.705c0.714-0.469,1.071-1.045,1.071-1.727c0-0.684-0.357-1.26-1.071-1.73
			c-0.714-0.469-1.59-0.704-2.628-0.704c-1.042,0-1.924,0.235-2.646,0.704c-0.722,0.471-1.082,1.047-1.082,1.73
			c0,0.682,0.36,1.258,1.082,1.727C23.837,80.548,24.719,80.783,25.761,80.783z"/>
		<path fill="#000100" d="M42.769,75.594h0.645v3.007c0,0.823-0.325,1.459-0.973,1.906s-1.487,0.671-2.518,0.671
			c-1.025,0-1.862-0.221-2.511-0.663s-0.972-1.047-0.972-1.815v-3.105h0.65v3.09c0,0.657,0.263,1.172,0.79,1.543
			c0.527,0.371,1.208,0.557,2.043,0.557c0.843,0,1.528-0.188,2.056-0.562c0.527-0.375,0.79-0.907,0.79-1.597V75.594z"/>
		<path fill="#000100" d="M57.54,75.594v5.513h-0.53l-6.335-4.818v4.818h-0.645v-5.513h0.546l6.32,4.818v-4.818H57.54z"/>
		<path fill="#000100" d="M64.347,75.594h2.917c1.475,0,2.602,0.256,3.379,0.77c0.778,0.513,1.167,1.176,1.167,1.988
			c0,0.798-0.385,1.456-1.154,1.976s-1.862,0.779-3.278,0.779h-3.03V75.594z M64.991,75.949v4.802h2.35
			c1.078,0,1.976-0.219,2.693-0.657c0.718-0.438,1.077-1.019,1.077-1.742c0-0.707-0.354-1.285-1.062-1.732
			c-0.708-0.447-1.625-0.67-2.75-0.67H64.991z"/>
		<path fill="#000100" d="M81.564,75.555l3.853,5.552h-0.676L83.422,79.2h-4.075l-1.313,1.906h-0.676l3.852-5.552H81.564z
			 M83.176,78.846l-1.795-2.597l-1.789,2.597H83.176z"/>
		<path fill="#000100" d="M97.293,75.594v0.355h-3.125v5.157h-0.65v-5.157h-3.125v-0.355H97.293z"/>
		<path fill="#000100" d="M103.833,75.594v5.513h-0.644v-5.513H103.833z"/>
		<path fill="#000100" d="M114.684,75.522c1.234,0,2.279,0.274,3.135,0.823c0.857,0.549,1.285,1.217,1.285,2.006
			c0,0.787-0.428,1.455-1.285,2.003c-0.855,0.549-1.9,0.823-3.135,0.823c-1.229,0-2.27-0.274-3.122-0.823
			c-0.853-0.548-1.279-1.216-1.279-2.003c0-0.789,0.427-1.457,1.279-2.006S113.456,75.522,114.684,75.522z M114.709,80.783
			c1.037,0,1.914-0.235,2.627-0.705c0.713-0.469,1.07-1.045,1.07-1.727c0-0.684-0.357-1.26-1.07-1.73
			c-0.713-0.469-1.59-0.704-2.627-0.704c-1.043,0-1.924,0.235-2.646,0.704c-0.721,0.471-1.082,1.047-1.082,1.73
			c0,0.682,0.361,1.258,1.082,1.727C112.786,80.548,113.667,80.783,114.709,80.783z"/>
		<path fill="#000100" d="M133.071,75.594v5.513h-0.531l-6.334-4.818v4.818h-0.645v-5.513h0.545l6.32,4.818v-4.818H133.071z"/>
	</g>
	<g>
		<g>
			<path fill="#FFFFFF" d="M51.843,49.293C34.973,37.46,29.957,15.414,40.628,0"/>
		</g>
		<g>
			<path fill="#FFEF2B" d="M51.843,49.293c0-36.463,6.025-29.263,24.86-29.263"/>
		</g>
		<g opacity="0.7">
			<path fill="#006034" d="M51.843,49.293C34.973,37.46,29.957,15.414,40.628,0"/>
		</g>
		<g>
			<path fill="#FFFFFF" d="M40.628,0c19.906,13.972,25.128,29.21,11.215,49.293"/>
		</g>
		<g opacity="0.55">
			<path fill="#F58529" d="M40.628,0c19.906,13.972,25.128,29.21,11.215,49.293"/>
		</g>
		<path fill="#5CC8E2" d="M51.843,49.293c0,0,32.402-3.882,24.86-29.263"/>
	</g>
</g>
</svg>
